<?xml version="1.0" encoding="utf-8"?>
<!-- Generator: Adobe Illustrator 27.0.0, SVG Export Plug-In . SVG Version: 6.00 Build 0)  -->
<svg version="1.1" id="Layer_2_00000047739198822999924700000010798117164802059666_"
	 xmlns="http://www.w3.org/2000/svg" xmlns:xlink="http://www.w3.org/1999/xlink" x="0px" y="0px" viewBox="0 0 313 848.5"
	 style="enable-background:new 0 0 313 848.5;" xml:space="preserve">
<style type="text/css">
	.st0{clip-path:url(#SVGID_00000116195943928641878160000013657375854756168618_);}
	.st1{clip-path:url(#SVGID_00000028300250524342726630000007846190214421219462_);}
	.st2{clip-path:url(#SVGID_00000183934808007723723280000005944622031161568656_);}
	.st3{fill:#3ED399;}
	.st4{fill:#2ACE89;}
	.st5{clip-path:url(#SVGID_00000108282158477087562450000008364321905133398711_);}
</style>
<g id="Layer_1-2">
	<g>
		<g>
			<g>
				<defs>
					<rect id="SVGID_1_" x="4.4" y="509.9" width="122.8" height="274.1"/>
				</defs>
				<clipPath id="SVGID_00000111891973698168783400000011058493869097931446_">
					<use xlink:href="#SVGID_1_"  style="overflow:visible;"/>
				</clipPath>
				<g style="clip-path:url(#SVGID_00000111891973698168783400000011058493869097931446_);">
					
						<image style="overflow:visible;enable-background:new    ;" width="946" height="1908" xlink:href="E86D447F6B30C81D.png"  transform="matrix(0.1521 0 0 0.1521 -1.4945 505.7882)">
					</image>
				</g>
			</g>
		</g>
		<g>
			<g>
				<defs>
					<rect id="SVGID_00000152254655089819847220000011555982842879004345_" x="186.1" y="509.9" width="122.8" height="274.1"/>
				</defs>
				<clipPath id="SVGID_00000026875041555673303190000015172656552903271575_">
					<use xlink:href="#SVGID_00000152254655089819847220000011555982842879004345_"  style="overflow:visible;"/>
				</clipPath>
				<g style="clip-path:url(#SVGID_00000026875041555673303190000015172656552903271575_);">
					
						<image style="overflow:visible;enable-background:new    ;" width="862" height="1894" xlink:href="E86D447F6B30C81F.png"  transform="matrix(0.1521 0 0 0.1521 183.1858 505.6837)">
					</image>
				</g>
			</g>
		</g>
		<g>
			<path d="M15.5,493.7l-0.8,2.3h-1l2.5-7.4h1.1L20,496h-1l-0.8-2.3H15.5L15.5,493.7z M18,492.9l-0.7-2.1c-0.2-0.5-0.3-0.9-0.4-1.3
				h0c-0.1,0.4-0.2,0.9-0.4,1.3l-0.7,2.1L18,492.9L18,492.9z"/>
			<path d="M25.4,488.2v6.4c0,0.5,0,1,0,1.4h-0.9l0-0.9h0c-0.3,0.6-0.9,1-1.8,1c-1.3,0-2.3-1.1-2.3-2.7c0-1.8,1.1-2.8,2.4-2.8
				c0.8,0,1.4,0.4,1.6,0.8h0v-3.2L25.4,488.2L25.4,488.2z M24.5,492.8c0-0.1,0-0.3,0-0.4c-0.1-0.6-0.7-1.1-1.4-1.1
				c-1,0-1.6,0.9-1.6,2c0,1.1,0.5,2,1.6,2c0.6,0,1.2-0.4,1.4-1.1c0-0.1,0-0.3,0-0.4L24.5,492.8L24.5,492.8z"/>
			<path d="M31.6,488.2v6.4c0,0.5,0,1,0,1.4h-0.9l0-0.9h0c-0.3,0.6-0.9,1-1.8,1c-1.3,0-2.3-1.1-2.3-2.7c0-1.8,1.1-2.8,2.4-2.8
				c0.8,0,1.4,0.4,1.6,0.8h0v-3.2L31.6,488.2L31.6,488.2z M30.6,492.8c0-0.1,0-0.3,0-0.4c-0.1-0.6-0.7-1.1-1.4-1.1
				c-1,0-1.6,0.9-1.6,2c0,1.1,0.5,2,1.6,2c0.6,0,1.2-0.4,1.4-1.1c0-0.1,0-0.3,0-0.4L30.6,492.8L30.6,492.8z"/>
			<path d="M39.3,495.8c-0.3,0.1-0.8,0.3-1.5,0.3c-1.6,0-2.6-1.1-2.6-2.7c0-1.6,1.1-2.8,2.8-2.8c0.6,0,1.1,0.1,1.3,0.3l-0.2,0.7
				c-0.2-0.1-0.6-0.3-1.1-0.3c-1.2,0-1.9,0.9-1.9,2c0,1.2,0.8,2,1.8,2c0.5,0,0.9-0.1,1.2-0.3L39.3,495.8L39.3,495.8z"/>
			<path d="M44.1,494.7c0,0.5,0,0.9,0.1,1.3h-0.9l-0.1-0.7h0c-0.3,0.4-0.9,0.8-1.6,0.8c-1.1,0-1.6-0.8-1.6-1.5c0-1.3,1.1-2,3.2-2
				v-0.1c0-0.4-0.1-1.2-1.2-1.2c-0.5,0-1,0.1-1.4,0.4l-0.2-0.6c0.4-0.3,1.1-0.5,1.7-0.5c1.6,0,2,1.1,2,2.2L44.1,494.7L44.1,494.7z
				 M43.2,493.3c-1.1,0-2.2,0.2-2.2,1.2c0,0.6,0.4,0.9,0.9,0.9c0.7,0,1.2-0.4,1.3-0.9c0-0.1,0-0.2,0-0.3L43.2,493.3L43.2,493.3z"/>
			<path d="M46.8,489.4v1.3h1.4v0.7h-1.4v2.9c0,0.7,0.2,1,0.7,1c0.3,0,0.4,0,0.6-0.1l0,0.7c-0.2,0.1-0.5,0.1-0.9,0.1
				c-0.4,0-0.8-0.2-1-0.4c-0.3-0.3-0.4-0.8-0.4-1.4v-2.9H45v-0.7h0.8v-1L46.8,489.4L46.8,489.4z"/>
			<path d="M49.7,493.5c0,1.3,0.8,1.8,1.8,1.8c0.7,0,1.1-0.1,1.5-0.3l0.2,0.7c-0.3,0.2-0.9,0.3-1.8,0.3c-1.6,0-2.6-1.1-2.6-2.7
				s0.9-2.8,2.5-2.8c1.7,0,2.2,1.5,2.2,2.5c0,0.2,0,0.3,0,0.4L49.7,493.5L49.7,493.5z M52.6,492.8c0-0.6-0.3-1.5-1.3-1.5
				c-1,0-1.4,0.9-1.5,1.5H52.6z"/>
			<path d="M59.2,495.2c0,1.2-0.3,2-0.8,2.4c-0.5,0.5-1.3,0.6-1.9,0.6c-0.7,0-1.3-0.2-1.8-0.4l0.2-0.7c0.4,0.2,0.9,0.4,1.5,0.4
				c1,0,1.7-0.5,1.7-1.9v-0.6h0c-0.3,0.5-0.9,0.9-1.7,0.9c-1.3,0-2.3-1.1-2.3-2.6c0-1.8,1.2-2.8,2.4-2.8c0.9,0,1.4,0.5,1.6,0.9h0
				l0-0.8h0.9c0,0.4,0,0.8,0,1.4L59.2,495.2L59.2,495.2z M58.2,492.8c0-0.2,0-0.3-0.1-0.4c-0.2-0.6-0.6-1-1.3-1
				c-0.9,0-1.6,0.8-1.6,2c0,1,0.5,1.9,1.6,1.9c0.6,0,1.1-0.4,1.3-1c0.1-0.2,0.1-0.4,0.1-0.5L58.2,492.8L58.2,492.8z"/>
			<path d="M65.6,493.3c0,2-1.4,2.8-2.6,2.8c-1.4,0-2.5-1.1-2.5-2.7c0-1.8,1.2-2.8,2.6-2.8C64.5,490.6,65.6,491.7,65.6,493.3
				L65.6,493.3z M61.4,493.3c0,1.2,0.7,2,1.6,2s1.6-0.9,1.6-2.1c0-0.9-0.4-2-1.6-2C61.9,491.3,61.4,492.4,61.4,493.3L61.4,493.3z"/>
			<path d="M66.8,492.3c0-0.6,0-1.2,0-1.6h0.8l0,1.1h0c0.2-0.7,0.8-1.2,1.5-1.2c0.1,0,0.2,0,0.3,0v0.9c-0.1,0-0.2,0-0.3,0
				c-0.7,0-1.2,0.5-1.3,1.2c0,0.1,0,0.3,0,0.4v2.8h-1V492.3L66.8,492.3z"/>
			<path d="M71.5,489.2c0,0.3-0.2,0.6-0.6,0.6c-0.4,0-0.6-0.3-0.6-0.6s0.2-0.6,0.6-0.6C71.2,488.6,71.5,488.9,71.5,489.2L71.5,489.2
				z M70.4,496v-5.3h1v5.3H70.4z"/>
			<path d="M73.5,493.5c0,1.3,0.8,1.8,1.8,1.8c0.7,0,1.1-0.1,1.5-0.3l0.2,0.7c-0.3,0.2-0.9,0.3-1.8,0.3c-1.6,0-2.6-1.1-2.6-2.7
				s0.9-2.8,2.5-2.8c1.7,0,2.2,1.5,2.2,2.5c0,0.2,0,0.3,0,0.4L73.5,493.5L73.5,493.5z M76.3,492.8c0-0.6-0.3-1.5-1.3-1.5
				c-1,0-1.4,0.9-1.5,1.5H76.3z"/>
			<path d="M78.3,495c0.3,0.2,0.8,0.4,1.3,0.4c0.7,0,1-0.3,1-0.8c0-0.5-0.3-0.7-1-1c-1-0.4-1.4-0.9-1.4-1.5c0-0.9,0.7-1.6,1.8-1.6
				c0.5,0,1,0.1,1.3,0.3l-0.2,0.7c-0.2-0.1-0.6-0.3-1.1-0.3c-0.6,0-0.9,0.3-0.9,0.7c0,0.4,0.3,0.6,1,0.9c0.9,0.3,1.4,0.8,1.4,1.6
				c0,0.9-0.7,1.6-2,1.6c-0.6,0-1.1-0.2-1.5-0.4L78.3,495L78.3,495z"/>
			<path d="M89.7,496c-0.2-0.2-0.4-0.4-0.7-0.7c-0.6,0.6-1.3,0.8-2.2,0.8c-1.4,0-2.3-1-2.3-2.1c0-1,0.6-1.7,1.4-2.2v0
				c-0.4-0.5-0.6-1-0.6-1.5c0-0.9,0.6-1.8,1.9-1.8c0.9,0,1.6,0.6,1.6,1.6c0,0.8-0.4,1.4-1.6,2v0c0.6,0.7,1.3,1.5,1.8,2
				c0.3-0.5,0.6-1.2,0.7-2.2h0.9c-0.2,1.2-0.5,2.1-1.1,2.7c0.4,0.4,0.8,0.8,1.2,1.3L89.7,496L89.7,496z M88.6,494.7
				c-0.4-0.5-1.3-1.4-2.1-2.3c-0.4,0.3-1,0.7-1,1.5c0,0.8,0.6,1.5,1.5,1.5C87.7,495.4,88.2,495.1,88.6,494.7z M86.3,490.2
				c0,0.5,0.3,0.9,0.6,1.3c0.7-0.4,1.2-0.8,1.2-1.5c0-0.4-0.3-1-0.9-1S86.3,489.6,86.3,490.2L86.3,490.2z"/>
			<path d="M95.1,489.2c0,0.3-0.2,0.6-0.6,0.6c-0.4,0-0.6-0.3-0.6-0.6s0.2-0.6,0.6-0.6C94.9,488.6,95.1,488.9,95.1,489.2L95.1,489.2
				z M94,496v-5.3h1v5.3H94z"/>
			<path d="M97.7,489.4v1.3h1.4v0.7h-1.4v2.9c0,0.7,0.2,1,0.7,1c0.3,0,0.4,0,0.6-0.1l0,0.7c-0.2,0.1-0.5,0.1-0.9,0.1
				c-0.4,0-0.8-0.2-1-0.4c-0.3-0.3-0.4-0.8-0.4-1.4v-2.9H96v-0.7h0.8v-1L97.7,489.4L97.7,489.4z"/>
			<path d="M100.7,493.5c0,1.3,0.8,1.8,1.8,1.8c0.7,0,1.1-0.1,1.5-0.3l0.2,0.7c-0.3,0.2-0.9,0.3-1.8,0.3c-1.6,0-2.6-1.1-2.6-2.7
				s0.9-2.8,2.5-2.8c1.7,0,2.2,1.5,2.2,2.5c0,0.2,0,0.3,0,0.4L100.7,493.5L100.7,493.5z M103.5,492.8c0-0.6-0.3-1.5-1.3-1.5
				c-1,0-1.4,0.9-1.5,1.5H103.5z"/>
			<path d="M105.6,492.1c0-0.6,0-1,0-1.4h0.8l0,0.9h0c0.3-0.5,0.8-1,1.7-1c0.7,0,1.3,0.4,1.5,1.1h0c0.2-0.3,0.4-0.5,0.6-0.7
				c0.3-0.2,0.7-0.4,1.2-0.4c0.7,0,1.7,0.5,1.7,2.3v3.1h-0.9v-3c0-1-0.4-1.6-1.1-1.6c-0.6,0-1,0.4-1.1,0.9c0,0.1-0.1,0.3-0.1,0.5
				v3.3h-0.9v-3.2c0-0.8-0.4-1.4-1.1-1.4c-0.6,0-1,0.5-1.2,1c-0.1,0.1-0.1,0.3-0.1,0.5v3.2h-0.9L105.6,492.1L105.6,492.1z"/>
			<path d="M114.6,495c0.3,0.2,0.8,0.4,1.3,0.4c0.7,0,1-0.3,1-0.8c0-0.5-0.3-0.7-1-1c-1-0.4-1.4-0.9-1.4-1.5c0-0.9,0.7-1.6,1.8-1.6
				c0.5,0,1,0.1,1.3,0.3l-0.2,0.7c-0.2-0.1-0.6-0.3-1.1-0.3c-0.6,0-0.9,0.3-0.9,0.7c0,0.4,0.3,0.6,1,0.9c0.9,0.3,1.4,0.8,1.4,1.6
				c0,0.9-0.7,1.6-2,1.6c-0.6,0-1.1-0.2-1.5-0.4L114.6,495L114.6,495z"/>
		</g>
		<g>
			<path d="M199.7,494.8c0.4,0.3,1,0.5,1.7,0.5c1,0,1.5-0.5,1.5-1.3c0-0.7-0.4-1.1-1.4-1.5c-1.2-0.4-1.9-1.1-1.9-2.1
				c0-1.2,1-2,2.4-2c0.7,0,1.3,0.2,1.6,0.4l-0.3,0.8c-0.2-0.1-0.7-0.4-1.4-0.4c-1,0-1.4,0.6-1.4,1.1c0,0.7,0.4,1,1.5,1.4
				c1.2,0.5,1.9,1.1,1.9,2.2c0,1.1-0.8,2.1-2.6,2.1c-0.7,0-1.5-0.2-1.9-0.5L199.7,494.8L199.7,494.8z"/>
			<path d="M206.3,489.4v1.3h1.4v0.7h-1.4v2.9c0,0.7,0.2,1,0.7,1c0.3,0,0.4,0,0.6-0.1l0,0.7c-0.2,0.1-0.5,0.1-0.9,0.1
				c-0.4,0-0.8-0.2-1-0.4c-0.3-0.3-0.4-0.8-0.4-1.4v-2.9h-0.8v-0.7h0.8v-1L206.3,489.4L206.3,489.4z"/>
			<path d="M212.4,494.7c0,0.5,0,0.9,0.1,1.3h-0.9l-0.1-0.7h0c-0.3,0.4-0.9,0.8-1.6,0.8c-1.1,0-1.6-0.8-1.6-1.5c0-1.3,1.1-2,3.2-2
				v-0.1c0-0.4-0.1-1.2-1.2-1.2c-0.5,0-1,0.1-1.4,0.4l-0.2-0.6c0.4-0.3,1.1-0.5,1.7-0.5c1.6,0,2,1.1,2,2.2V494.7L212.4,494.7z
				 M211.5,493.3c-1.1,0-2.2,0.2-2.2,1.2c0,0.6,0.4,0.9,0.9,0.9c0.7,0,1.1-0.4,1.3-0.9c0-0.1,0-0.2,0-0.3L211.5,493.3L211.5,493.3z"
				/>
			<path d="M214,492.3c0-0.6,0-1.2,0-1.6h0.8l0,1.1h0c0.2-0.7,0.8-1.2,1.5-1.2c0.1,0,0.2,0,0.3,0v0.9c-0.1,0-0.2,0-0.3,0
				c-0.7,0-1.2,0.5-1.3,1.2c0,0.1,0,0.3,0,0.4v2.8h-1V492.3L214,492.3z"/>
			<path d="M219,489.4v1.3h1.4v0.7H219v2.9c0,0.7,0.2,1,0.7,1c0.3,0,0.4,0,0.6-0.1l0,0.7c-0.2,0.1-0.5,0.1-0.9,0.1
				c-0.4,0-0.8-0.2-1-0.4c-0.3-0.3-0.4-0.8-0.4-1.4v-2.9h-0.8v-0.7h0.8v-1L219,489.4L219,489.4z"/>
			<path d="M223.8,492.3c0-0.6,0-1.2,0-1.6h0.8l0,1.1h0c0.2-0.7,0.8-1.2,1.5-1.2c0.1,0,0.2,0,0.3,0v0.9c-0.1,0-0.2,0-0.3,0
				c-0.7,0-1.2,0.5-1.3,1.2c0,0.1,0,0.3,0,0.4v2.8h-1V492.3L223.8,492.3z"/>
			<path d="M227.8,493.5c0,1.3,0.8,1.8,1.8,1.8c0.7,0,1.1-0.1,1.5-0.3l0.2,0.7c-0.3,0.2-0.9,0.3-1.8,0.3c-1.6,0-2.6-1.1-2.6-2.7
				s0.9-2.8,2.5-2.8c1.7,0,2.2,1.5,2.2,2.5c0,0.2,0,0.3,0,0.4L227.8,493.5L227.8,493.5z M230.6,492.8c0-0.6-0.3-1.5-1.3-1.5
				c-1,0-1.4,0.9-1.5,1.5H230.6z"/>
			<path d="M236.5,495.8c-0.3,0.1-0.8,0.3-1.5,0.3c-1.6,0-2.6-1.1-2.6-2.7c0-1.6,1.1-2.8,2.8-2.8c0.6,0,1.1,0.1,1.3,0.3l-0.2,0.7
				c-0.2-0.1-0.6-0.3-1.1-0.3c-1.2,0-1.9,0.9-1.9,2c0,1.2,0.8,2,1.8,2c0.5,0,0.9-0.1,1.2-0.3L236.5,495.8L236.5,495.8z"/>
			<path d="M238.1,493.5c0,1.3,0.8,1.8,1.8,1.8c0.7,0,1.1-0.1,1.5-0.3l0.2,0.7c-0.3,0.2-0.9,0.3-1.8,0.3c-1.6,0-2.6-1.1-2.6-2.7
				s0.9-2.8,2.5-2.8c1.7,0,2.2,1.5,2.2,2.5c0,0.2,0,0.3,0,0.4L238.1,493.5L238.1,493.5z M240.9,492.8c0-0.6-0.3-1.5-1.3-1.5
				c-1,0-1.4,0.9-1.5,1.5H240.9L240.9,492.8z"/>
			<path d="M244.1,489.2c0,0.3-0.2,0.6-0.6,0.6c-0.4,0-0.6-0.3-0.6-0.6s0.2-0.6,0.6-0.6C243.8,488.6,244.1,488.9,244.1,489.2
				L244.1,489.2z M243,496v-5.3h1v5.3H243z"/>
			<path d="M245.9,490.7l1,3c0.2,0.5,0.3,0.9,0.4,1.4h0c0.1-0.4,0.3-0.9,0.4-1.4l1-3h1l-2.1,5.3h-0.9l-2-5.3H245.9L245.9,490.7z"/>
			<path d="M251.9,489.2c0,0.3-0.2,0.6-0.6,0.6c-0.4,0-0.6-0.3-0.6-0.6s0.2-0.6,0.6-0.6C251.7,488.6,251.9,488.9,251.9,489.2
				L251.9,489.2z M250.8,496v-5.3h1v5.3H250.8z"/>
			<path d="M253.4,492.1c0-0.6,0-1,0-1.4h0.9l0.1,0.9h0c0.3-0.5,0.9-1,1.7-1c0.7,0,1.9,0.4,1.9,2.3v3.1h-1v-3.1
				c0-0.9-0.3-1.6-1.2-1.6c-0.6,0-1.1,0.4-1.3,1c0,0.1-0.1,0.3-0.1,0.4v3.2h-1L253.4,492.1L253.4,492.1z"/>
			<path d="M264,495.2c0,1.2-0.3,2-0.8,2.4c-0.5,0.5-1.3,0.6-1.9,0.6s-1.3-0.2-1.8-0.4l0.2-0.7c0.4,0.2,0.9,0.4,1.5,0.4
				c1,0,1.7-0.5,1.7-1.9v-0.6h0c-0.3,0.5-0.9,0.9-1.7,0.9c-1.3,0-2.3-1.1-2.3-2.6c0-1.8,1.2-2.8,2.4-2.8c0.9,0,1.4,0.5,1.6,0.9h0
				l0-0.8h0.9c0,0.4,0,0.8,0,1.4L264,495.2L264,495.2z M263,492.8c0-0.2,0-0.3-0.1-0.4c-0.2-0.6-0.6-1-1.3-1c-0.9,0-1.6,0.8-1.6,2
				c0,1,0.5,1.9,1.6,1.9c0.6,0,1.1-0.4,1.3-1c0.1-0.2,0.1-0.4,0.1-0.5L263,492.8L263,492.8z"/>
			<path d="M272.7,493.3c0,2-1.4,2.8-2.6,2.8c-1.4,0-2.5-1.1-2.5-2.7c0-1.8,1.2-2.8,2.6-2.8S272.7,491.7,272.7,493.3L272.7,493.3z
				 M268.5,493.3c0,1.2,0.7,2,1.6,2s1.6-0.9,1.6-2.1c0-0.9-0.4-2-1.6-2S268.5,492.4,268.5,493.3L268.5,493.3z"/>
			<path d="M273.9,492.3c0-0.6,0-1.2,0-1.6h0.8l0,1.1h0c0.2-0.7,0.8-1.2,1.5-1.2c0.1,0,0.2,0,0.3,0v0.9c-0.1,0-0.2,0-0.3,0
				c-0.7,0-1.2,0.5-1.3,1.2c0,0.1,0,0.3,0,0.4v2.8h-1L273.9,492.3L273.9,492.3z"/>
			<path d="M281.9,488.2v6.4c0,0.5,0,1,0,1.4h-0.9l0-0.9h0c-0.3,0.6-0.9,1-1.8,1c-1.3,0-2.3-1.1-2.3-2.7c0-1.8,1.1-2.8,2.4-2.8
				c0.8,0,1.4,0.4,1.6,0.8h0v-3.2L281.9,488.2L281.9,488.2z M280.9,492.8c0-0.1,0-0.3,0-0.4c-0.1-0.6-0.7-1.1-1.4-1.1
				c-1,0-1.6,0.9-1.6,2c0,1.1,0.5,2,1.6,2c0.6,0,1.2-0.4,1.4-1.1c0-0.1,0-0.3,0-0.4L280.9,492.8L280.9,492.8z"/>
			<path d="M284,493.5c0,1.3,0.8,1.8,1.8,1.8c0.7,0,1.1-0.1,1.5-0.3l0.2,0.7c-0.3,0.2-0.9,0.3-1.8,0.3c-1.6,0-2.6-1.1-2.6-2.7
				s0.9-2.8,2.5-2.8c1.7,0,2.2,1.5,2.2,2.5c0,0.2,0,0.3,0,0.4L284,493.5L284,493.5z M286.9,492.8c0-0.6-0.3-1.5-1.3-1.5
				c-1,0-1.4,0.9-1.5,1.5H286.9z"/>
			<path d="M289,492.3c0-0.6,0-1.2,0-1.6h0.8l0,1.1h0c0.2-0.7,0.8-1.2,1.5-1.2c0.1,0,0.2,0,0.3,0v0.9c-0.1,0-0.2,0-0.3,0
				c-0.7,0-1.2,0.5-1.3,1.2c0,0.1,0,0.3,0,0.4v2.8h-1L289,492.3L289,492.3z"/>
			<path d="M292.4,495c0.3,0.2,0.8,0.4,1.3,0.4c0.7,0,1-0.3,1-0.8c0-0.5-0.3-0.7-1-1c-1-0.4-1.4-0.9-1.4-1.5c0-0.9,0.7-1.6,1.8-1.6
				c0.5,0,1,0.1,1.3,0.3l-0.2,0.7c-0.2-0.1-0.6-0.3-1.1-0.3c-0.6,0-0.9,0.3-0.9,0.7c0,0.4,0.3,0.6,1,0.9c0.9,0.3,1.4,0.8,1.4,1.6
				c0,0.9-0.7,1.6-2,1.6c-0.6,0-1.1-0.2-1.5-0.4L292.4,495L292.4,495z"/>
		</g>
		<g>
			<path d="M-1.8,804.7l-0.8,2.3h-1l2.5-7.4h1.1l2.5,7.4h-1l-0.8-2.3H-1.8z M0.7,804l-0.7-2.1c-0.2-0.5-0.3-0.9-0.4-1.3h0
				c-0.1,0.4-0.2,0.9-0.4,1.3l-0.7,2.1L0.7,804L0.7,804z"/>
			<path d="M8.1,799.3v6.4c0,0.5,0,1,0,1.4H7.3l0-0.9h0c-0.3,0.6-0.9,1-1.8,1c-1.3,0-2.3-1.1-2.3-2.7c0-1.8,1.1-2.8,2.4-2.8
				c0.8,0,1.4,0.4,1.6,0.8h0v-3.2L8.1,799.3L8.1,799.3z M7.2,803.9c0-0.1,0-0.3,0-0.4c-0.1-0.6-0.7-1.1-1.4-1.1c-1,0-1.6,0.9-1.6,2
				c0,1.1,0.5,2,1.6,2c0.6,0,1.2-0.4,1.4-1.1c0-0.1,0-0.3,0-0.4L7.2,803.9L7.2,803.9z"/>
			<path d="M14.3,799.3v6.4c0,0.5,0,1,0,1.4h-0.9l0-0.9h0c-0.3,0.6-0.9,1-1.8,1c-1.3,0-2.3-1.1-2.3-2.7c0-1.8,1.1-2.8,2.4-2.8
				c0.8,0,1.4,0.4,1.6,0.8h0v-3.2L14.3,799.3L14.3,799.3z M13.3,803.9c0-0.1,0-0.3,0-0.4c-0.1-0.6-0.7-1.1-1.4-1.1
				c-1,0-1.6,0.9-1.6,2c0,1.1,0.5,2,1.6,2c0.6,0,1.2-0.4,1.4-1.1c0-0.1,0-0.3,0-0.4L13.3,803.9L13.3,803.9z"/>
			<path d="M18.6,801.7l1.1,3.1c0.1,0.4,0.3,0.8,0.4,1.1h0c0.1-0.3,0.2-0.7,0.3-1.1l1.1-3.1h1l-1.4,3.8c-0.7,1.8-1.2,2.7-1.8,3.3
				c-0.5,0.4-0.9,0.6-1.2,0.6l-0.2-0.8c0.2-0.1,0.6-0.2,0.8-0.5c0.3-0.2,0.6-0.6,0.8-1.1c0-0.1,0.1-0.2,0.1-0.2c0-0.1,0-0.1-0.1-0.3
				l-1.9-4.9L18.6,801.7L18.6,801.7z"/>
			<path d="M28.1,804.3c0,2-1.4,2.8-2.6,2.8c-1.4,0-2.5-1.1-2.5-2.7c0-1.8,1.2-2.8,2.6-2.8S28.1,802.7,28.1,804.3L28.1,804.3z
				 M23.9,804.4c0,1.2,0.7,2,1.6,2c0.9,0,1.6-0.9,1.6-2.1c0-0.9-0.4-2-1.6-2C24.4,802.3,23.9,803.4,23.9,804.4L23.9,804.4z"/>
			<path d="M33.7,805.6c0,0.6,0,1,0,1.5h-0.9l-0.1-0.9h0c-0.2,0.4-0.8,1-1.7,1c-0.8,0-1.8-0.5-1.8-2.3v-3.1h1v2.9
				c0,1,0.3,1.7,1.2,1.7c0.6,0,1.1-0.4,1.3-0.9c0.1-0.1,0.1-0.3,0.1-0.5v-3.2h1L33.7,805.6L33.7,805.6z"/>
			<path d="M35.3,803.4c0-0.6,0-1.2,0-1.6h0.8l0,1.1h0c0.2-0.7,0.8-1.2,1.5-1.2c0.1,0,0.2,0,0.3,0v0.9c-0.1,0-0.2,0-0.3,0
				c-0.7,0-1.2,0.5-1.3,1.2c0,0.1,0,0.3,0,0.4v2.8h-1V803.4z"/>
			<path d="M45.7,799.3v6.4c0,0.5,0,1,0,1.4h-0.9l0-0.9h0c-0.3,0.6-0.9,1-1.8,1c-1.3,0-2.3-1.1-2.3-2.7c0-1.8,1.1-2.8,2.4-2.8
				c0.8,0,1.4,0.4,1.6,0.8h0v-3.2L45.7,799.3L45.7,799.3z M44.8,803.9c0-0.1,0-0.3,0-0.4c-0.1-0.6-0.7-1.1-1.4-1.1
				c-1,0-1.6,0.9-1.6,2c0,1.1,0.5,2,1.6,2c0.6,0,1.2-0.4,1.4-1.1c0-0.1,0-0.3,0-0.4L44.8,803.9L44.8,803.9z"/>
			<path d="M48.4,800.2c0,0.3-0.2,0.6-0.6,0.6c-0.4,0-0.6-0.3-0.6-0.6s0.2-0.6,0.6-0.6S48.4,799.9,48.4,800.2L48.4,800.2z M47.4,807
				v-5.3h1v5.3H47.4z"/>
			<path d="M49.8,806c0.3,0.2,0.8,0.4,1.3,0.4c0.7,0,1-0.3,1-0.8s-0.3-0.7-1-1c-1-0.4-1.4-0.9-1.4-1.5c0-0.9,0.7-1.6,1.8-1.6
				c0.5,0,1,0.1,1.3,0.3l-0.2,0.7c-0.2-0.1-0.6-0.3-1.1-0.3c-0.6,0-0.9,0.3-0.9,0.7c0,0.4,0.3,0.6,1,0.9c0.9,0.3,1.4,0.8,1.4,1.6
				c0,0.9-0.7,1.6-2,1.6c-0.6,0-1.1-0.2-1.5-0.4L49.8,806L49.8,806z"/>
			<path d="M54.2,799.3h1v3.3h0c0.2-0.3,0.4-0.5,0.7-0.7c0.3-0.2,0.6-0.3,1-0.3c0.7,0,1.8,0.4,1.8,2.3v3.1h-1v-3
				c0-0.9-0.3-1.6-1.2-1.6c-0.6,0-1.1,0.4-1.3,1c-0.1,0.1-0.1,0.3-0.1,0.5v3.2h-1V799.3L54.2,799.3z"/>
			<path d="M60.8,804.5c0,1.3,0.8,1.8,1.8,1.8c0.7,0,1.1-0.1,1.5-0.3l0.2,0.7c-0.3,0.2-0.9,0.3-1.8,0.3c-1.6,0-2.6-1.1-2.6-2.7
				c0-1.6,0.9-2.8,2.5-2.8c1.7,0,2.2,1.5,2.2,2.5c0,0.2,0,0.3,0,0.4H60.8L60.8,804.5z M63.7,803.9c0-0.6-0.3-1.6-1.3-1.6
				c-1,0-1.4,0.9-1.5,1.6H63.7z"/>
			<path d="M65.7,806c0.3,0.2,0.8,0.4,1.3,0.4c0.7,0,1-0.3,1-0.8s-0.3-0.7-1-1c-1-0.4-1.4-0.9-1.4-1.5c0-0.9,0.7-1.6,1.8-1.6
				c0.5,0,1,0.1,1.3,0.3l-0.2,0.7c-0.2-0.1-0.6-0.3-1.1-0.3c-0.6,0-0.9,0.3-0.9,0.7c0,0.4,0.3,0.6,1,0.9c0.9,0.3,1.4,0.8,1.4,1.6
				c0,0.9-0.7,1.6-2,1.6c-0.6,0-1.1-0.2-1.5-0.4L65.7,806L65.7,806z"/>
			<path d="M76.1,805.7c0,0.5,0,0.9,0.1,1.3h-0.9l-0.1-0.7h0c-0.3,0.4-0.9,0.8-1.6,0.8c-1.1,0-1.6-0.8-1.6-1.5c0-1.3,1.1-2,3.2-2
				v-0.1c0-0.4-0.1-1.2-1.2-1.2c-0.5,0-1,0.1-1.4,0.4l-0.2-0.6c0.4-0.3,1.1-0.5,1.7-0.5c1.6,0,2,1.1,2,2.2L76.1,805.7L76.1,805.7z
				 M75.2,804.3c-1.1,0-2.2,0.2-2.2,1.2c0,0.6,0.4,0.9,0.9,0.9c0.7,0,1.1-0.4,1.3-0.9c0-0.1,0-0.2,0-0.3L75.2,804.3L75.2,804.3z"/>
			<path d="M77.7,799.3h1v7.8h-1V799.3z"/>
			<path d="M85.1,804.3c0,2-1.4,2.8-2.6,2.8c-1.4,0-2.5-1.1-2.5-2.7c0-1.8,1.2-2.8,2.6-2.8C84,801.6,85.1,802.7,85.1,804.3
				L85.1,804.3z M80.9,804.4c0,1.2,0.7,2,1.6,2c0.9,0,1.6-0.9,1.6-2.1c0-0.9-0.4-2-1.6-2C81.4,802.3,80.9,803.4,80.9,804.4
				L80.9,804.4z"/>
			<path d="M86.3,803.2c0-0.6,0-1,0-1.4h0.9l0.1,0.9h0c0.3-0.5,0.9-1,1.7-1c0.7,0,1.9,0.4,1.9,2.3v3.1h-1V804c0-0.9-0.3-1.6-1.2-1.6
				c-0.6,0-1.1,0.4-1.3,1c0,0.1-0.1,0.3-0.1,0.4v3.2h-1L86.3,803.2L86.3,803.2z"/>
			<path d="M96.9,806.2c0,1.2-0.3,2-0.8,2.4c-0.5,0.5-1.3,0.6-1.9,0.6c-0.7,0-1.3-0.2-1.8-0.4l0.2-0.7c0.4,0.2,0.9,0.4,1.5,0.4
				c1,0,1.7-0.5,1.7-1.9v-0.6h0c-0.3,0.5-0.9,0.9-1.7,0.9c-1.3,0-2.3-1.1-2.3-2.6c0-1.8,1.2-2.8,2.4-2.8c0.9,0,1.4,0.5,1.6,0.9h0
				l0-0.8h0.9c0,0.4,0,0.8,0,1.4L96.9,806.2L96.9,806.2z M95.9,803.8c0-0.2,0-0.3-0.1-0.4c-0.2-0.6-0.6-1-1.3-1
				c-0.9,0-1.6,0.8-1.6,2c0,1,0.5,1.9,1.6,1.9c0.6,0,1.1-0.4,1.3-1c0.1-0.2,0.1-0.4,0.1-0.5L95.9,803.8L95.9,803.8z"/>
			<path d="M101.2,801.7l0.7,2.7c0.1,0.6,0.3,1.1,0.4,1.7h0c0.1-0.5,0.3-1.1,0.5-1.7l0.9-2.7h0.8l0.8,2.6c0.2,0.6,0.4,1.2,0.5,1.7h0
				c0.1-0.5,0.2-1.1,0.4-1.7l0.8-2.7h1l-1.7,5.3h-0.9l-0.8-2.5c-0.2-0.6-0.3-1.1-0.5-1.7h0c-0.1,0.6-0.3,1.2-0.5,1.7l-0.9,2.5h-0.9
				l-1.6-5.3H101.2L101.2,801.7z"/>
			<path d="M109.9,800.2c0,0.3-0.2,0.6-0.6,0.6c-0.4,0-0.6-0.3-0.6-0.6s0.2-0.6,0.6-0.6C109.7,799.6,109.9,799.9,109.9,800.2
				L109.9,800.2z M108.8,807v-5.3h1v5.3H108.8z"/>
			<path d="M112.5,800.5v1.3h1.4v0.7h-1.4v2.9c0,0.7,0.2,1,0.7,1c0.3,0,0.4,0,0.6-0.1l0,0.7c-0.2,0.1-0.5,0.1-0.9,0.1
				c-0.4,0-0.8-0.2-1-0.4c-0.3-0.3-0.4-0.8-0.4-1.4v-2.9h-0.8v-0.7h0.8v-1L112.5,800.5L112.5,800.5z"/>
			<path d="M115,799.3h1v3.3h0c0.2-0.3,0.4-0.5,0.7-0.7c0.3-0.2,0.6-0.3,1-0.3c0.7,0,1.8,0.4,1.8,2.3v3.1h-1v-3
				c0-0.9-0.3-1.6-1.2-1.6c-0.6,0-1.1,0.4-1.3,1c-0.1,0.1-0.1,0.3-0.1,0.5v3.2h-1L115,799.3L115,799.3z"/>
			<path d="M122.2,800.5v1.3h1.4v0.7h-1.4v2.9c0,0.7,0.2,1,0.7,1c0.3,0,0.4,0,0.6-0.1l0,0.7c-0.2,0.1-0.5,0.1-0.9,0.1
				c-0.4,0-0.8-0.2-1-0.4c-0.3-0.3-0.4-0.8-0.4-1.4v-2.9h-0.8v-0.7h0.8v-1L122.2,800.5L122.2,800.5z"/>
			<path d="M124.6,799.3h1v3.3h0c0.2-0.3,0.4-0.5,0.7-0.7c0.3-0.2,0.6-0.3,1-0.3c0.7,0,1.8,0.4,1.8,2.3v3.1h-1v-3
				c0-0.9-0.3-1.6-1.2-1.6c-0.6,0-1.1,0.4-1.3,1c-0.1,0.1-0.1,0.3-0.1,0.5v3.2h-1L124.6,799.3L124.6,799.3z"/>
			<path d="M131.2,804.5c0,1.3,0.8,1.8,1.8,1.8c0.7,0,1.1-0.1,1.5-0.3l0.2,0.7c-0.3,0.2-0.9,0.3-1.8,0.3c-1.6,0-2.6-1.1-2.6-2.7
				c0-1.6,0.9-2.8,2.5-2.8c1.7,0,2.2,1.5,2.2,2.5c0,0.2,0,0.3,0,0.4H131.2L131.2,804.5z M134.1,803.9c0-0.6-0.3-1.6-1.3-1.6
				c-1,0-1.4,0.9-1.5,1.6H134.1z"/>
			<path d="M18.7,815.4v6.4c0,0.5,0,1,0,1.4h-0.9l0-0.9h0c-0.3,0.6-0.9,1-1.8,1c-1.3,0-2.3-1.1-2.3-2.7c0-1.8,1.1-2.8,2.4-2.8
				c0.8,0,1.4,0.4,1.6,0.8h0v-3.2L18.7,815.4L18.7,815.4z M17.7,820c0-0.1,0-0.3,0-0.4c-0.1-0.6-0.7-1.1-1.4-1.1c-1,0-1.6,0.9-1.6,2
				c0,1.1,0.5,2,1.6,2c0.6,0,1.2-0.4,1.4-1.1c0-0.1,0-0.3,0-0.4L17.7,820L17.7,820z"/>
			<path d="M20.8,820.7c0,1.3,0.8,1.8,1.8,1.8c0.7,0,1.1-0.1,1.5-0.3l0.2,0.7c-0.3,0.2-0.9,0.3-1.8,0.3c-1.6,0-2.6-1.1-2.6-2.7
				c0-1.6,0.9-2.8,2.5-2.8c1.7,0,2.2,1.5,2.2,2.5c0,0.2,0,0.3,0,0.4L20.8,820.7L20.8,820.7z M23.6,820c0-0.6-0.3-1.6-1.3-1.6
				c-1,0-1.4,0.9-1.5,1.6H23.6z"/>
			<path d="M25.6,822.2c0.3,0.2,0.8,0.4,1.3,0.4c0.7,0,1-0.3,1-0.8c0-0.5-0.3-0.7-1-1c-1-0.4-1.4-0.9-1.4-1.5c0-0.9,0.7-1.6,1.8-1.6
				c0.5,0,1,0.1,1.3,0.3l-0.2,0.7c-0.2-0.1-0.6-0.3-1.1-0.3c-0.6,0-0.9,0.3-0.9,0.7c0,0.4,0.3,0.6,1,0.9c0.9,0.3,1.4,0.8,1.4,1.6
				c0,0.9-0.7,1.6-2,1.6c-0.6,0-1.1-0.2-1.5-0.4L25.6,822.2L25.6,822.2z"/>
			<path d="M33.8,823c-0.3,0.1-0.8,0.3-1.5,0.3c-1.6,0-2.6-1.1-2.6-2.7c0-1.6,1.1-2.8,2.8-2.8c0.6,0,1.1,0.1,1.3,0.3l-0.2,0.7
				c-0.2-0.1-0.6-0.3-1.1-0.3c-1.2,0-1.9,0.9-1.9,2c0,1.2,0.8,2,1.8,2c0.5,0,0.9-0.1,1.2-0.3L33.8,823L33.8,823z"/>
			<path d="M35,819.5c0-0.6,0-1.2,0-1.6h0.8l0,1.1h0c0.2-0.7,0.8-1.2,1.5-1.2c0.1,0,0.2,0,0.3,0v0.9c-0.1,0-0.2,0-0.3,0
				c-0.7,0-1.2,0.5-1.3,1.2c0,0.1,0,0.3,0,0.4v2.8h-1V819.5z"/>
			<path d="M39.7,816.4c0,0.3-0.2,0.6-0.6,0.6c-0.4,0-0.6-0.3-0.6-0.6s0.2-0.6,0.6-0.6S39.6,816.1,39.7,816.4L39.7,816.4z
				 M38.6,823.2v-5.3h1v5.3H38.6z"/>
			<path d="M41.1,819.6c0-0.7,0-1.2,0-1.7h0.9l0.1,0.9h0c0.4-0.6,1-1,1.9-1c1.3,0,2.3,1.1,2.3,2.7c0,1.9-1.2,2.8-2.4,2.8
				c-0.7,0-1.3-0.3-1.6-0.8h0v2.9h-1L41.1,819.6L41.1,819.6z M42.1,821c0,0.1,0,0.3,0,0.4c0.2,0.7,0.8,1.1,1.4,1.1
				c1,0,1.6-0.8,1.6-2c0-1.1-0.6-2-1.6-2c-0.7,0-1.3,0.5-1.5,1.2c0,0.1-0.1,0.3-0.1,0.4V821L42.1,821z"/>
			<path d="M48.5,816.6v1.3h1.4v0.7h-1.4v2.9c0,0.7,0.2,1,0.7,1c0.3,0,0.4,0,0.6-0.1l0,0.7c-0.2,0.1-0.5,0.1-0.9,0.1
				c-0.4,0-0.8-0.2-1-0.4c-0.3-0.3-0.4-0.8-0.4-1.4v-2.9h-0.8v-0.7h0.8v-1L48.5,816.6L48.5,816.6z"/>
			<path d="M52,816.4c0,0.3-0.2,0.6-0.6,0.6c-0.4,0-0.6-0.3-0.6-0.6s0.2-0.6,0.6-0.6S52,816.1,52,816.4L52,816.4z M51,823.2v-5.3h1
				v5.3H51z"/>
			<path d="M58.3,820.5c0,2-1.4,2.8-2.6,2.8c-1.4,0-2.5-1.1-2.5-2.7c0-1.8,1.2-2.8,2.6-2.8C57.2,817.8,58.3,818.9,58.3,820.5
				L58.3,820.5z M54.1,820.5c0,1.2,0.7,2,1.6,2c0.9,0,1.6-0.9,1.6-2.1c0-0.9-0.4-2-1.6-2S54.1,819.6,54.1,820.5L54.1,820.5z"/>
			<path d="M59.5,819.3c0-0.6,0-1,0-1.4h0.9l0.1,0.9h0c0.3-0.5,0.9-1,1.7-1c0.7,0,1.9,0.4,1.9,2.3v3.1h-1v-3.1
				c0-0.9-0.3-1.6-1.2-1.6c-0.6,0-1.1,0.4-1.3,1c0,0.1-0.1,0.3-0.1,0.4v3.2h-1L59.5,819.3L59.5,819.3z"/>
			<path d="M65.5,822.2c0.3,0.2,0.8,0.4,1.3,0.4c0.7,0,1-0.3,1-0.8c0-0.5-0.3-0.7-1-1c-1-0.4-1.4-0.9-1.4-1.5c0-0.9,0.7-1.6,1.8-1.6
				c0.5,0,1,0.1,1.3,0.3l-0.2,0.7c-0.2-0.1-0.6-0.3-1.1-0.3c-0.6,0-0.9,0.3-0.9,0.7c0,0.4,0.3,0.6,1,0.9c0.9,0.3,1.4,0.8,1.4,1.6
				c0,0.9-0.7,1.6-2,1.6c-0.6,0-1.1-0.2-1.5-0.4L65.5,822.2L65.5,822.2z"/>
			<path d="M76,821.9c0,0.5,0,0.9,0.1,1.3h-0.9l-0.1-0.7h0c-0.3,0.4-0.9,0.8-1.6,0.8c-1.1,0-1.6-0.8-1.6-1.5c0-1.3,1.1-2,3.2-2v-0.1
				c0-0.4-0.1-1.2-1.2-1.2c-0.5,0-1,0.1-1.4,0.4l-0.2-0.6c0.4-0.3,1.1-0.5,1.7-0.5c1.6,0,2,1.1,2,2.2L76,821.9L76,821.9z M75,820.5
				c-1.1,0-2.2,0.2-2.2,1.2c0,0.6,0.4,0.9,0.9,0.9c0.7,0,1.1-0.4,1.3-0.9c0-0.1,0-0.2,0-0.3L75,820.5L75,820.5z"/>
			<path d="M77.5,819.3c0-0.6,0-1,0-1.4h0.9l0.1,0.9h0c0.3-0.5,0.9-1,1.7-1c0.7,0,1.9,0.4,1.9,2.3v3.1h-1v-3.1
				c0-0.9-0.3-1.6-1.2-1.6c-0.6,0-1.1,0.4-1.3,1c0,0.1-0.1,0.3-0.1,0.4v3.2h-1L77.5,819.3L77.5,819.3z"/>
			<path d="M88.1,815.4v6.4c0,0.5,0,1,0,1.4h-0.9l0-0.9h0c-0.3,0.6-0.9,1-1.8,1c-1.3,0-2.3-1.1-2.3-2.7c0-1.8,1.1-2.8,2.4-2.8
				c0.8,0,1.4,0.4,1.6,0.8h0v-3.2L88.1,815.4L88.1,815.4z M87.2,820c0-0.1,0-0.3,0-0.4c-0.1-0.6-0.7-1.1-1.4-1.1c-1,0-1.6,0.9-1.6,2
				c0,1.1,0.5,2,1.6,2c0.6,0,1.2-0.4,1.4-1.1c0-0.1,0-0.3,0-0.4L87.2,820L87.2,820z"/>
			<path d="M92.1,819.6c0-0.7,0-1.2,0-1.7h0.9l0.1,0.9h0c0.4-0.6,1-1,1.9-1c1.3,0,2.3,1.1,2.3,2.7c0,1.9-1.2,2.8-2.4,2.8
				c-0.7,0-1.3-0.3-1.6-0.8h0v2.9h-1L92.1,819.6L92.1,819.6z M93,821c0,0.1,0,0.3,0,0.4c0.2,0.7,0.8,1.1,1.4,1.1c1,0,1.6-0.8,1.6-2
				c0-1.1-0.6-2-1.6-2c-0.7,0-1.3,0.5-1.5,1.2c0,0.1-0.1,0.3-0.1,0.4V821L93,821z"/>
			<path d="M98.3,819.5c0-0.6,0-1.2,0-1.6h0.8l0,1.1h0c0.2-0.7,0.8-1.2,1.5-1.2c0.1,0,0.2,0,0.3,0v0.9c-0.1,0-0.2,0-0.3,0
				c-0.7,0-1.2,0.5-1.3,1.2c0,0.1,0,0.3,0,0.4v2.8h-1L98.3,819.5L98.3,819.5z"/>
			<path d="M103,816.4c0,0.3-0.2,0.6-0.6,0.6c-0.4,0-0.6-0.3-0.6-0.6s0.2-0.6,0.6-0.6C102.7,815.8,103,816.1,103,816.4L103,816.4z
				 M101.9,823.2v-5.3h1v5.3H101.9z"/>
			<path d="M108.2,823c-0.3,0.1-0.8,0.3-1.5,0.3c-1.6,0-2.6-1.1-2.6-2.7c0-1.6,1.1-2.8,2.8-2.8c0.6,0,1.1,0.1,1.3,0.3l-0.2,0.7
				c-0.2-0.1-0.6-0.3-1.1-0.3c-1.2,0-1.9,0.9-1.9,2c0,1.2,0.8,2,1.8,2c0.5,0,0.9-0.1,1.2-0.3L108.2,823L108.2,823z"/>
			<path d="M109.8,820.7c0,1.3,0.8,1.8,1.8,1.8c0.7,0,1.1-0.1,1.5-0.3l0.2,0.7c-0.3,0.2-0.9,0.3-1.8,0.3c-1.6,0-2.6-1.1-2.6-2.7
				c0-1.6,0.9-2.8,2.5-2.8c1.7,0,2.2,1.5,2.2,2.5c0,0.2,0,0.3,0,0.4L109.8,820.7L109.8,820.7z M112.7,820c0-0.6-0.3-1.6-1.3-1.6
				c-1,0-1.4,0.9-1.5,1.6H112.7L112.7,820z"/>
			<path d="M114.6,822.2c0.3,0.2,0.8,0.4,1.3,0.4c0.7,0,1-0.3,1-0.8c0-0.5-0.3-0.7-1-1c-1-0.4-1.4-0.9-1.4-1.5
				c0-0.9,0.7-1.6,1.8-1.6c0.5,0,1,0.1,1.3,0.3l-0.2,0.7c-0.2-0.1-0.6-0.3-1.1-0.3c-0.6,0-0.9,0.3-0.9,0.7c0,0.4,0.3,0.6,1,0.9
				c0.9,0.3,1.4,0.8,1.4,1.6c0,0.9-0.7,1.6-2,1.6c-0.6,0-1.1-0.2-1.5-0.4L114.6,822.2L114.6,822.2z"/>
			<path d="M10.8,838.1c0,0.5,0,0.9,0.1,1.3H10l-0.1-0.7h0c-0.3,0.4-0.9,0.8-1.6,0.8c-1.1,0-1.6-0.8-1.6-1.5c0-1.3,1.1-2,3.2-2v-0.1
				c0-0.4-0.1-1.2-1.2-1.2c-0.5,0-1,0.1-1.4,0.4L7,834.4c0.4-0.3,1.1-0.5,1.7-0.5c1.6,0,2,1.1,2,2.2L10.8,838.1L10.8,838.1z
				 M9.9,836.6c-1.1,0-2.2,0.2-2.2,1.2c0,0.6,0.4,0.9,0.9,0.9c0.7,0,1.1-0.4,1.3-0.9c0-0.1,0-0.2,0-0.3L9.9,836.6L9.9,836.6z"/>
			<path d="M16.1,839.2c-0.3,0.1-0.8,0.3-1.5,0.3c-1.6,0-2.6-1.1-2.6-2.7s1.1-2.8,2.8-2.8c0.6,0,1.1,0.1,1.3,0.3l-0.2,0.7
				c-0.2-0.1-0.6-0.3-1.1-0.3c-1.2,0-1.9,0.9-1.9,2c0,1.2,0.8,2,1.8,2c0.5,0,0.9-0.1,1.2-0.3L16.1,839.2L16.1,839.2z"/>
			<path d="M20.9,839.2c-0.3,0.1-0.8,0.3-1.5,0.3c-1.6,0-2.6-1.1-2.6-2.7s1.1-2.8,2.8-2.8c0.6,0,1.1,0.1,1.3,0.3l-0.2,0.7
				c-0.2-0.1-0.6-0.3-1.1-0.3c-1.2,0-1.9,0.9-1.9,2c0,1.2,0.8,2,1.8,2c0.5,0,0.9-0.1,1.2-0.3L20.9,839.2L20.9,839.2z"/>
			<path d="M26.8,836.6c0,2-1.4,2.8-2.6,2.8c-1.4,0-2.5-1.1-2.5-2.7c0-1.8,1.2-2.8,2.6-2.8C25.7,833.9,26.8,835,26.8,836.6
				L26.8,836.6z M22.6,836.7c0,1.2,0.7,2,1.6,2s1.6-0.9,1.6-2.1c0-0.9-0.4-2-1.6-2C23.1,834.7,22.6,835.7,22.6,836.7L22.6,836.7z"/>
			<path d="M28,835.7c0-0.6,0-1.2,0-1.6h0.8l0,1.1h0c0.2-0.7,0.8-1.2,1.5-1.2c0.1,0,0.2,0,0.3,0v0.9c-0.1,0-0.2,0-0.3,0
				c-0.7,0-1.2,0.5-1.3,1.2c0,0.1,0,0.3,0,0.4v2.8h-1L28,835.7L28,835.7z"/>
			<path d="M36,831.6v6.4c0,0.5,0,1,0,1.4h-0.9l0-0.9h0c-0.3,0.6-0.9,1-1.8,1c-1.3,0-2.3-1.1-2.3-2.7c0-1.8,1.1-2.8,2.4-2.8
				c0.8,0,1.4,0.4,1.6,0.8h0v-3.2L36,831.6L36,831.6z M35.1,836.2c0-0.1,0-0.3,0-0.4c-0.1-0.6-0.7-1.1-1.4-1.1c-1,0-1.6,0.9-1.6,2
				c0,1.1,0.5,2,1.6,2c0.6,0,1.2-0.4,1.4-1.1c0-0.1,0-0.3,0-0.4L35.1,836.2L35.1,836.2z"/>
			<path d="M38.7,832.6c0,0.3-0.2,0.6-0.6,0.6c-0.4,0-0.6-0.3-0.6-0.6c0-0.3,0.2-0.6,0.6-0.6S38.7,832.2,38.7,832.6L38.7,832.6z
				 M37.6,839.3V834h1v5.3H37.6z"/>
			<path d="M40.2,835.5c0-0.6,0-1,0-1.4H41l0.1,0.9h0c0.3-0.5,0.9-1,1.7-1c0.7,0,1.9,0.4,1.9,2.3v3.1h-1v-3.1c0-0.9-0.3-1.6-1.2-1.6
				c-0.6,0-1.1,0.4-1.3,1c0,0.1-0.1,0.3-0.1,0.4v3.2h-1L40.2,835.5L40.2,835.5z"/>
			<path d="M50.8,838.6c0,1.2-0.3,2-0.8,2.4c-0.5,0.5-1.3,0.6-1.9,0.6s-1.3-0.2-1.8-0.4l0.2-0.7c0.4,0.2,0.9,0.4,1.5,0.4
				c1,0,1.7-0.5,1.7-1.9v-0.6h0c-0.3,0.5-0.9,0.9-1.7,0.9c-1.3,0-2.3-1.1-2.3-2.6c0-1.8,1.2-2.8,2.4-2.8c0.9,0,1.4,0.5,1.6,0.9h0
				l0-0.8h0.9c0,0.4,0,0.8,0,1.4L50.8,838.6L50.8,838.6z M49.8,836.1c0-0.2,0-0.3-0.1-0.4c-0.2-0.6-0.6-1-1.3-1
				c-0.9,0-1.6,0.8-1.6,2c0,1,0.5,1.9,1.6,1.9c0.6,0,1.1-0.4,1.3-1c0.1-0.2,0.1-0.4,0.1-0.5V836.1z"/>
			<path d="M55.8,832.8v1.3h1.4v0.7h-1.4v2.9c0,0.7,0.2,1,0.7,1c0.3,0,0.4,0,0.6-0.1l0,0.7c-0.2,0.1-0.5,0.1-0.9,0.1
				c-0.4,0-0.8-0.2-1-0.4c-0.3-0.3-0.4-0.8-0.4-1.4v-2.9h-0.8V834h0.8v-1L55.8,832.8L55.8,832.8z"/>
			<path d="M63,836.6c0,2-1.4,2.8-2.6,2.8c-1.4,0-2.5-1.1-2.5-2.7c0-1.8,1.2-2.8,2.6-2.8C61.9,833.9,63,835,63,836.6L63,836.6z
				 M58.8,836.7c0,1.2,0.7,2,1.6,2s1.6-0.9,1.6-2.1c0-0.9-0.4-2-1.6-2S58.8,835.7,58.8,836.7L58.8,836.7z"/>
			<path d="M67.7,832.8v1.3h1.4v0.7h-1.4v2.9c0,0.7,0.2,1,0.7,1c0.3,0,0.4,0,0.6-0.1l0,0.7c-0.2,0.1-0.5,0.1-0.9,0.1
				c-0.4,0-0.8-0.2-1-0.4c-0.3-0.3-0.4-0.8-0.4-1.4v-2.9H66V834h0.8v-1L67.7,832.8L67.7,832.8z"/>
			<path d="M70.2,831.6h1v3.3h0c0.2-0.3,0.4-0.5,0.7-0.7c0.3-0.2,0.6-0.3,1-0.3c0.7,0,1.8,0.4,1.8,2.3v3.1h-1v-3
				c0-0.9-0.3-1.6-1.2-1.6c-0.6,0-1.1,0.4-1.3,1c-0.1,0.1-0.1,0.3-0.1,0.5v3.2h-1L70.2,831.6L70.2,831.6z"/>
			<path d="M76.8,836.9c0,1.3,0.8,1.8,1.8,1.8c0.7,0,1.1-0.1,1.5-0.3l0.2,0.7c-0.3,0.2-0.9,0.3-1.8,0.3c-1.6,0-2.6-1.1-2.6-2.7
				s0.9-2.8,2.5-2.8c1.7,0,2.2,1.5,2.2,2.5c0,0.2,0,0.3,0,0.4L76.8,836.9L76.8,836.9z M79.6,836.2c0-0.6-0.3-1.6-1.3-1.6
				c-1,0-1.4,0.9-1.5,1.6H79.6z"/>
			<path d="M87.8,839.2c-0.3,0.1-0.8,0.3-1.5,0.3c-1.6,0-2.6-1.1-2.6-2.7s1.1-2.8,2.8-2.8c0.6,0,1.1,0.1,1.3,0.3l-0.2,0.7
				c-0.2-0.1-0.6-0.3-1.1-0.3c-1.2,0-1.9,0.9-1.9,2c0,1.2,0.8,2,1.8,2c0.5,0,0.9-0.1,1.2-0.3L87.8,839.2L87.8,839.2z"/>
			<path d="M92.6,838.1c0,0.5,0,0.9,0.1,1.3h-0.9l-0.1-0.7h0c-0.3,0.4-0.9,0.8-1.6,0.8c-1.1,0-1.6-0.8-1.6-1.5c0-1.3,1.1-2,3.2-2
				v-0.1c0-0.4-0.1-1.2-1.2-1.2c-0.5,0-1,0.1-1.4,0.4l-0.2-0.6c0.4-0.3,1.1-0.5,1.7-0.5c1.6,0,2,1.1,2,2.2V838.1L92.6,838.1z
				 M91.7,836.6c-1.1,0-2.2,0.2-2.2,1.2c0,0.6,0.4,0.9,0.9,0.9c0.7,0,1.2-0.4,1.3-0.9c0-0.1,0-0.2,0-0.3V836.6L91.7,836.6z"/>
			<path d="M95.3,832.8v1.3h1.4v0.7h-1.4v2.9c0,0.7,0.2,1,0.7,1c0.3,0,0.4,0,0.6-0.1l0,0.7c-0.2,0.1-0.5,0.1-0.9,0.1
				c-0.4,0-0.8-0.2-1-0.4c-0.3-0.3-0.4-0.8-0.4-1.4v-2.9h-0.8V834h0.8v-1L95.3,832.8L95.3,832.8z"/>
			<path d="M98.2,836.9c0,1.3,0.8,1.8,1.8,1.8c0.7,0,1.1-0.1,1.5-0.3l0.2,0.7c-0.3,0.2-0.9,0.3-1.8,0.3c-1.6,0-2.6-1.1-2.6-2.7
				s0.9-2.8,2.5-2.8c1.7,0,2.2,1.5,2.2,2.5c0,0.2,0,0.3,0,0.4L98.2,836.9L98.2,836.9z M101.1,836.2c0-0.6-0.3-1.6-1.3-1.6
				c-1,0-1.4,0.9-1.5,1.6H101.1z"/>
			<path d="M107.7,838.6c0,1.2-0.3,2-0.8,2.4c-0.5,0.5-1.3,0.6-1.9,0.6c-0.7,0-1.3-0.2-1.8-0.4l0.2-0.7c0.4,0.2,0.9,0.4,1.5,0.4
				c1,0,1.7-0.5,1.7-1.9v-0.6h0c-0.3,0.5-0.9,0.9-1.7,0.9c-1.3,0-2.3-1.1-2.3-2.6c0-1.8,1.2-2.8,2.4-2.8c0.9,0,1.4,0.5,1.6,0.9h0
				l0-0.8h0.9c0,0.4,0,0.8,0,1.4L107.7,838.6L107.7,838.6z M106.8,836.1c0-0.2,0-0.3-0.1-0.4c-0.2-0.6-0.6-1-1.3-1
				c-0.9,0-1.6,0.8-1.6,2c0,1,0.5,1.9,1.6,1.9c0.6,0,1.1-0.4,1.3-1c0.1-0.2,0.1-0.4,0.1-0.5V836.1z"/>
			<path d="M114.1,836.6c0,2-1.4,2.8-2.6,2.8c-1.4,0-2.5-1.1-2.5-2.7c0-1.8,1.2-2.8,2.6-2.8C113,833.9,114.1,835,114.1,836.6
				L114.1,836.6z M109.9,836.7c0,1.2,0.7,2,1.6,2c0.9,0,1.6-0.9,1.6-2.1c0-0.9-0.4-2-1.6-2C110.4,834.7,109.9,835.7,109.9,836.7
				L109.9,836.7z"/>
			<path d="M115.3,835.7c0-0.6,0-1.2,0-1.6h0.8l0,1.1h0c0.2-0.7,0.8-1.2,1.5-1.2c0.1,0,0.2,0,0.3,0v0.9c-0.1,0-0.2,0-0.3,0
				c-0.7,0-1.2,0.5-1.3,1.2c0,0.1,0,0.3,0,0.4v2.8h-1V835.7z"/>
			<path d="M119.5,834l1.2,3.1c0.1,0.4,0.3,0.8,0.4,1.1h0c0.1-0.3,0.2-0.7,0.3-1.1l1.1-3.1h1l-1.4,3.8c-0.7,1.8-1.2,2.7-1.8,3.3
				c-0.5,0.4-0.9,0.6-1.2,0.6l-0.2-0.8c0.2-0.1,0.6-0.2,0.8-0.5c0.3-0.2,0.6-0.6,0.8-1.1c0-0.1,0.1-0.2,0.1-0.2c0-0.1,0-0.1-0.1-0.3
				l-1.9-4.9L119.5,834L119.5,834z"/>
			<path d="M123.6,838.8c0-0.4,0.3-0.7,0.7-0.7c0.4,0,0.6,0.3,0.6,0.7s-0.3,0.7-0.7,0.7C123.9,839.5,123.6,839.2,123.6,838.8
				L123.6,838.8z"/>
		</g>
		<g>
			<path d="M188.2,805.9c0.4,0.3,1,0.5,1.7,0.5c1,0,1.5-0.5,1.5-1.3c0-0.7-0.4-1.1-1.4-1.5c-1.2-0.4-1.9-1.1-1.9-2.1
				c0-1.1,1-2,2.4-2c0.7,0,1.3,0.2,1.6,0.4l-0.3,0.8c-0.2-0.1-0.7-0.4-1.4-0.4c-1,0-1.4,0.6-1.4,1.1c0,0.7,0.4,1,1.5,1.4
				c1.2,0.5,1.9,1.1,1.9,2.2c0,1.1-0.8,2.1-2.6,2.1c-0.7,0-1.5-0.2-1.9-0.5L188.2,805.9L188.2,805.9z"/>
			<path d="M194.8,800.5v1.3h1.4v0.7h-1.4v2.9c0,0.7,0.2,1,0.7,1c0.3,0,0.4,0,0.6-0.1l0,0.7c-0.2,0.1-0.5,0.1-0.9,0.1
				c-0.4,0-0.8-0.2-1-0.4c-0.3-0.3-0.4-0.8-0.4-1.4v-2.9H193v-0.7h0.8v-1L194.8,800.5L194.8,800.5z"/>
			<path d="M201,805.7c0,0.5,0,0.9,0.1,1.3h-0.9l-0.1-0.7h0c-0.3,0.4-0.9,0.8-1.6,0.8c-1.1,0-1.6-0.8-1.6-1.5c0-1.3,1.1-2,3.2-2
				v-0.1c0-0.4-0.1-1.2-1.2-1.2c-0.5,0-1,0.1-1.4,0.4l-0.2-0.6c0.4-0.3,1.1-0.5,1.7-0.5c1.6,0,2,1.1,2,2.2V805.7L201,805.7z
				 M200,804.3c-1.1,0-2.2,0.2-2.2,1.2c0,0.6,0.4,0.9,0.9,0.9c0.7,0,1.2-0.4,1.3-0.9c0-0.1,0-0.2,0-0.3L200,804.3L200,804.3z"/>
			<path d="M202.5,803.4c0-0.6,0-1.2,0-1.6h0.8l0,1.1h0c0.2-0.7,0.8-1.2,1.5-1.2c0.1,0,0.2,0,0.3,0v0.9c-0.1,0-0.2,0-0.3,0
				c-0.7,0-1.2,0.5-1.3,1.2c0,0.1,0,0.3,0,0.4v2.8h-1L202.5,803.4L202.5,803.4z"/>
			<path d="M207.5,800.5v1.3h1.4v0.7h-1.4v2.9c0,0.7,0.2,1,0.7,1c0.3,0,0.4,0,0.6-0.1l0,0.7c-0.2,0.1-0.5,0.1-0.9,0.1
				c-0.4,0-0.8-0.2-1-0.4c-0.3-0.3-0.4-0.8-0.4-1.4v-2.9h-0.8v-0.7h0.8v-1L207.5,800.5L207.5,800.5z"/>
			<path d="M212.3,803.4c0-0.6,0-1.2,0-1.6h0.8l0,1.1h0c0.2-0.7,0.8-1.2,1.5-1.2c0.1,0,0.2,0,0.3,0v0.9c-0.1,0-0.2,0-0.3,0
				c-0.7,0-1.2,0.5-1.3,1.2c0,0.1,0,0.3,0,0.4v2.8h-1V803.4z"/>
			<path d="M216.3,804.5c0,1.3,0.8,1.8,1.8,1.8c0.7,0,1.1-0.1,1.5-0.3l0.2,0.7c-0.3,0.2-0.9,0.3-1.8,0.3c-1.6,0-2.6-1.1-2.6-2.7
				c0-1.6,0.9-2.8,2.5-2.8c1.7,0,2.2,1.5,2.2,2.5c0,0.2,0,0.3,0,0.4H216.3L216.3,804.5z M219.1,803.9c0-0.6-0.3-1.6-1.3-1.6
				c-1,0-1.4,0.9-1.5,1.6H219.1z"/>
			<path d="M225,806.8c-0.3,0.1-0.8,0.3-1.5,0.3c-1.6,0-2.6-1.1-2.6-2.7c0-1.6,1.1-2.8,2.8-2.8c0.6,0,1.1,0.1,1.3,0.3l-0.2,0.7
				c-0.2-0.1-0.6-0.3-1.1-0.3c-1.2,0-1.9,0.9-1.9,2c0,1.2,0.8,2,1.8,2c0.5,0,0.9-0.1,1.2-0.3L225,806.8L225,806.8z"/>
			<path d="M226.6,804.5c0,1.3,0.8,1.8,1.8,1.8c0.7,0,1.1-0.1,1.5-0.3l0.2,0.7c-0.3,0.2-0.9,0.3-1.8,0.3c-1.6,0-2.6-1.1-2.6-2.7
				c0-1.6,0.9-2.8,2.5-2.8c1.7,0,2.2,1.5,2.2,2.5c0,0.2,0,0.3,0,0.4H226.6L226.6,804.5z M229.4,803.9c0-0.6-0.3-1.6-1.3-1.6
				c-1,0-1.4,0.9-1.5,1.6H229.4L229.4,803.9z"/>
			<path d="M232.6,800.2c0,0.3-0.2,0.6-0.6,0.6c-0.4,0-0.6-0.3-0.6-0.6s0.2-0.6,0.6-0.6C232.4,799.6,232.6,799.9,232.6,800.2
				L232.6,800.2z M231.5,807v-5.3h1v5.3H231.5z"/>
			<path d="M234.5,801.7l1,3c0.2,0.5,0.3,0.9,0.4,1.4h0c0.1-0.4,0.3-0.9,0.4-1.4l1-3h1l-2.1,5.3h-0.9l-2-5.3H234.5L234.5,801.7z"/>
			<path d="M240.4,800.2c0,0.3-0.2,0.6-0.6,0.6c-0.4,0-0.6-0.3-0.6-0.6s0.2-0.6,0.6-0.6C240.2,799.6,240.4,799.9,240.4,800.2
				L240.4,800.2z M239.4,807v-5.3h1v5.3H239.4L239.4,807z"/>
			<path d="M241.9,803.2c0-0.6,0-1,0-1.4h0.9l0.1,0.9h0c0.3-0.5,0.9-1,1.7-1c0.7,0,1.9,0.4,1.9,2.3v3.1h-1V804
				c0-0.9-0.3-1.6-1.2-1.6c-0.6,0-1.1,0.4-1.3,1c0,0.1-0.1,0.3-0.1,0.4v3.2h-1L241.9,803.2L241.9,803.2z"/>
			<path d="M252.5,806.2c0,1.2-0.3,2-0.8,2.4c-0.5,0.5-1.3,0.6-1.9,0.6c-0.7,0-1.3-0.2-1.8-0.4l0.2-0.7c0.4,0.2,0.9,0.4,1.5,0.4
				c1,0,1.7-0.5,1.7-1.9v-0.6h0c-0.3,0.5-0.9,0.9-1.7,0.9c-1.3,0-2.3-1.1-2.3-2.6c0-1.8,1.2-2.8,2.4-2.8c0.9,0,1.4,0.5,1.6,0.9h0
				l0-0.8h0.9c0,0.4,0,0.8,0,1.4L252.5,806.2L252.5,806.2z M251.5,803.8c0-0.2,0-0.3-0.1-0.4c-0.2-0.6-0.6-1-1.3-1
				c-0.9,0-1.6,0.8-1.6,2c0,1,0.5,1.9,1.6,1.9c0.6,0,1.1-0.4,1.3-1c0.1-0.2,0.1-0.4,0.1-0.5L251.5,803.8L251.5,803.8z"/>
			<path d="M256.8,801.7l1.1,3.1c0.1,0.4,0.3,0.8,0.4,1.1h0c0.1-0.3,0.2-0.7,0.3-1.1l1.1-3.1h1l-1.4,3.8c-0.7,1.8-1.2,2.7-1.8,3.3
				c-0.5,0.4-0.9,0.6-1.2,0.6l-0.2-0.8c0.2-0.1,0.6-0.2,0.8-0.5c0.3-0.2,0.6-0.6,0.8-1.1c0-0.1,0.1-0.2,0.1-0.2c0-0.1,0-0.1-0.1-0.3
				l-1.9-4.9L256.8,801.7L256.8,801.7z"/>
			<path d="M266.2,804.3c0,2-1.4,2.8-2.6,2.8c-1.4,0-2.5-1.1-2.5-2.7c0-1.8,1.2-2.8,2.6-2.8S266.2,802.7,266.2,804.3L266.2,804.3z
				 M262,804.4c0,1.2,0.7,2,1.6,2s1.6-0.9,1.6-2.1c0-0.9-0.4-2-1.6-2S262,803.4,262,804.4L262,804.4z"/>
			<path d="M271.9,805.6c0,0.6,0,1,0,1.5h-0.9l-0.1-0.9h0c-0.2,0.4-0.8,1-1.7,1c-0.8,0-1.8-0.5-1.8-2.3v-3.1h1v2.9
				c0,1,0.3,1.7,1.2,1.7c0.6,0,1.1-0.4,1.3-0.9c0.1-0.1,0.1-0.3,0.1-0.5v-3.2h1L271.9,805.6L271.9,805.6z"/>
			<path d="M273.5,803.4c0-0.6,0-1.2,0-1.6h0.8l0,1.1h0c0.2-0.7,0.8-1.2,1.5-1.2c0.1,0,0.2,0,0.3,0v0.9c-0.1,0-0.2,0-0.3,0
				c-0.7,0-1.2,0.5-1.3,1.2c0,0.1,0,0.3,0,0.4v2.8h-1L273.5,803.4L273.5,803.4z"/>
			<path d="M284.2,804.3c0,2-1.4,2.8-2.6,2.8c-1.4,0-2.5-1.1-2.5-2.7c0-1.8,1.2-2.8,2.6-2.8S284.2,802.7,284.2,804.3L284.2,804.3z
				 M280,804.4c0,1.2,0.7,2,1.6,2s1.6-0.9,1.6-2.1c0-0.9-0.4-2-1.6-2S280,803.4,280,804.4L280,804.4z"/>
			<path d="M285.4,803.4c0-0.6,0-1.2,0-1.6h0.8l0,1.1h0c0.2-0.7,0.8-1.2,1.5-1.2c0.1,0,0.2,0,0.3,0v0.9c-0.1,0-0.2,0-0.3,0
				c-0.7,0-1.2,0.5-1.3,1.2c0,0.1,0,0.3,0,0.4v2.8h-1L285.4,803.4L285.4,803.4z"/>
			<path d="M293.4,799.3v6.4c0,0.5,0,1,0,1.4h-0.9l0-0.9h0c-0.3,0.6-0.9,1-1.8,1c-1.3,0-2.3-1.1-2.3-2.7c0-1.8,1.1-2.8,2.4-2.8
				c0.8,0,1.4,0.4,1.6,0.8h0v-3.2L293.4,799.3L293.4,799.3z M292.4,803.9c0-0.1,0-0.3,0-0.4c-0.1-0.6-0.7-1.1-1.4-1.1
				c-1,0-1.6,0.9-1.6,2c0,1.1,0.5,2,1.6,2c0.6,0,1.2-0.4,1.4-1.1c0-0.1,0-0.3,0-0.4L292.4,803.9L292.4,803.9z"/>
			<path d="M295.5,804.5c0,1.3,0.8,1.8,1.8,1.8c0.7,0,1.1-0.1,1.5-0.3l0.2,0.7c-0.3,0.2-0.9,0.3-1.8,0.3c-1.6,0-2.6-1.1-2.6-2.7
				c0-1.6,0.9-2.8,2.5-2.8c1.7,0,2.2,1.5,2.2,2.5c0,0.2,0,0.3,0,0.4H295.5L295.5,804.5z M298.4,803.9c0-0.6-0.3-1.6-1.3-1.6
				c-1,0-1.4,0.9-1.5,1.6H298.4z"/>
			<path d="M300.5,803.4c0-0.6,0-1.2,0-1.6h0.8l0,1.1h0c0.2-0.7,0.8-1.2,1.5-1.2c0.1,0,0.2,0,0.3,0v0.9c-0.1,0-0.2,0-0.3,0
				c-0.7,0-1.2,0.5-1.3,1.2c0,0.1,0,0.3,0,0.4v2.8h-1L300.5,803.4L300.5,803.4z"/>
			<path d="M303.9,806c0.3,0.2,0.8,0.4,1.3,0.4c0.7,0,1-0.3,1-0.8s-0.3-0.7-1-1c-1-0.4-1.4-0.9-1.4-1.5c0-0.9,0.7-1.6,1.8-1.6
				c0.5,0,1,0.1,1.3,0.3l-0.2,0.7c-0.2-0.1-0.6-0.3-1.1-0.3c-0.6,0-0.9,0.3-0.9,0.7c0,0.4,0.3,0.6,1,0.9c0.9,0.3,1.4,0.8,1.4,1.6
				c0,0.9-0.7,1.6-2,1.6c-0.6,0-1.1-0.2-1.5-0.4L303.9,806L303.9,806z"/>
			<path d="M194.3,821.9c0,0.5,0,0.9,0.1,1.3h-0.9l-0.1-0.7h0c-0.3,0.4-0.9,0.8-1.6,0.8c-1.1,0-1.6-0.8-1.6-1.5c0-1.3,1.1-2,3.2-2
				v-0.1c0-0.4-0.1-1.2-1.2-1.2c-0.5,0-1,0.1-1.4,0.4l-0.2-0.6c0.4-0.3,1.1-0.5,1.7-0.5c1.6,0,2,1.1,2,2.2V821.9L194.3,821.9z
				 M193.3,820.5c-1.1,0-2.2,0.2-2.2,1.2c0,0.6,0.4,0.9,0.9,0.9c0.7,0,1.2-0.4,1.3-0.9c0-0.1,0-0.2,0-0.3L193.3,820.5L193.3,820.5z"
				/>
			<path d="M195.8,819.3c0-0.6,0-1,0-1.4h0.9l0.1,0.9h0c0.3-0.5,0.9-1,1.7-1c0.7,0,1.9,0.4,1.9,2.3v3.1h-1v-3.1
				c0-0.9-0.3-1.6-1.2-1.6c-0.6,0-1.1,0.4-1.3,1c0,0.1-0.1,0.3-0.1,0.4v3.2h-1V819.3L195.8,819.3z"/>
			<path d="M206.5,815.4v6.4c0,0.5,0,1,0,1.4h-0.9l0-0.9h0c-0.3,0.6-0.9,1-1.8,1c-1.3,0-2.3-1.1-2.3-2.7c0-1.8,1.1-2.8,2.4-2.8
				c0.8,0,1.4,0.4,1.6,0.8h0v-3.2L206.5,815.4L206.5,815.4z M205.5,820c0-0.1,0-0.3,0-0.4c-0.1-0.6-0.7-1.1-1.4-1.1
				c-1,0-1.6,0.9-1.6,2c0,1.1,0.5,2,1.6,2c0.6,0,1.2-0.4,1.4-1.1c0-0.1,0-0.3,0-0.4L205.5,820L205.5,820z"/>
			<path d="M210.4,819.3c0-0.6,0-1,0-1.4h0.8l0,0.9h0c0.3-0.5,0.8-1,1.7-1c0.7,0,1.3,0.4,1.5,1.1h0c0.2-0.3,0.4-0.5,0.6-0.7
				c0.3-0.2,0.7-0.4,1.2-0.4c0.7,0,1.7,0.5,1.7,2.3v3.1H217v-3c0-1-0.4-1.6-1.2-1.6c-0.6,0-1,0.4-1.2,0.9c0,0.1-0.1,0.3-0.1,0.5v3.3
				h-0.9V820c0-0.8-0.4-1.4-1.1-1.4c-0.6,0-1,0.5-1.2,1c-0.1,0.1-0.1,0.3-0.1,0.5v3.2h-0.9L210.4,819.3L210.4,819.3z"/>
			<path d="M223.2,821.9c0,0.5,0,0.9,0.1,1.3h-0.9l-0.1-0.7h0c-0.3,0.4-0.9,0.8-1.6,0.8c-1.1,0-1.6-0.8-1.6-1.5c0-1.3,1.1-2,3.2-2
				v-0.1c0-0.4-0.1-1.2-1.2-1.2c-0.5,0-1,0.1-1.4,0.4l-0.2-0.6c0.4-0.3,1.1-0.5,1.7-0.5c1.6,0,2,1.1,2,2.2V821.9L223.2,821.9z
				 M222.3,820.5c-1.1,0-2.2,0.2-2.2,1.2c0,0.6,0.4,0.9,0.9,0.9c0.7,0,1.2-0.4,1.3-0.9c0-0.1,0-0.2,0-0.3V820.5L222.3,820.5z"/>
			<path d="M224.8,819.3c0-0.6,0-1,0-1.4h0.9l0.1,0.9h0c0.3-0.5,0.9-1,1.7-1c0.7,0,1.9,0.4,1.9,2.3v3.1h-1v-3.1
				c0-0.9-0.3-1.6-1.2-1.6c-0.6,0-1.1,0.4-1.3,1c0,0.1-0.1,0.3-0.1,0.4v3.2h-1V819.3L224.8,819.3z"/>
			<path d="M234.5,821.9c0,0.5,0,0.9,0.1,1.3h-0.9l-0.1-0.7h0c-0.3,0.4-0.9,0.8-1.6,0.8c-1.1,0-1.6-0.8-1.6-1.5c0-1.3,1.1-2,3.2-2
				v-0.1c0-0.4-0.1-1.2-1.2-1.2c-0.5,0-1,0.1-1.4,0.4l-0.2-0.6c0.4-0.3,1.1-0.5,1.7-0.5c1.6,0,2,1.1,2,2.2V821.9L234.5,821.9z
				 M233.6,820.5c-1.1,0-2.2,0.2-2.2,1.2c0,0.6,0.4,0.9,0.9,0.9c0.7,0,1.1-0.4,1.3-0.9c0-0.1,0-0.2,0-0.3L233.6,820.5L233.6,820.5z"
				/>
			<path d="M240.6,822.4c0,1.2-0.3,2-0.8,2.4c-0.5,0.5-1.3,0.6-1.9,0.6c-0.7,0-1.3-0.2-1.8-0.4l0.2-0.7c0.4,0.2,0.9,0.4,1.6,0.4
				c1,0,1.7-0.5,1.7-1.9v-0.6h0c-0.3,0.5-0.9,0.9-1.7,0.9c-1.3,0-2.3-1.1-2.3-2.6c0-1.8,1.2-2.8,2.4-2.8c0.9,0,1.4,0.5,1.6,0.9h0
				l0-0.8h0.9c0,0.4,0,0.8,0,1.4L240.6,822.4L240.6,822.4z M239.7,820c0-0.2,0-0.3-0.1-0.4c-0.2-0.6-0.6-1-1.3-1
				c-0.9,0-1.6,0.8-1.6,2c0,1,0.5,1.9,1.6,1.9c0.6,0,1.1-0.4,1.3-1c0.1-0.2,0.1-0.4,0.1-0.5L239.7,820L239.7,820z"/>
			<path d="M243.2,816.4c0,0.3-0.2,0.6-0.6,0.6c-0.4,0-0.6-0.3-0.6-0.6s0.2-0.6,0.6-0.6C243,815.8,243.2,816.1,243.2,816.4
				L243.2,816.4z M242.1,823.2v-5.3h1v5.3H242.1z"/>
			<path d="M244.7,819.3c0-0.6,0-1,0-1.4h0.9l0.1,0.9h0c0.3-0.5,0.9-1,1.7-1c0.7,0,1.9,0.4,1.9,2.3v3.1h-1v-3.1
				c0-0.9-0.3-1.6-1.2-1.6c-0.6,0-1.1,0.4-1.3,1c0,0.1-0.1,0.3-0.1,0.4v3.2h-1L244.7,819.3L244.7,819.3z"/>
			<path d="M255.3,822.4c0,1.2-0.3,2-0.8,2.4c-0.5,0.5-1.3,0.6-1.9,0.6s-1.3-0.2-1.8-0.4l0.2-0.7c0.4,0.2,0.9,0.4,1.5,0.4
				c1,0,1.7-0.5,1.7-1.9v-0.6h0c-0.3,0.5-0.9,0.9-1.7,0.9c-1.3,0-2.3-1.1-2.3-2.6c0-1.8,1.2-2.8,2.4-2.8c0.9,0,1.4,0.5,1.6,0.9h0
				l0-0.8h0.9c0,0.4,0,0.8,0,1.4L255.3,822.4L255.3,822.4z M254.3,820c0-0.2,0-0.3-0.1-0.4c-0.2-0.6-0.6-1-1.3-1
				c-0.9,0-1.6,0.8-1.6,2c0,1,0.5,1.9,1.6,1.9c0.6,0,1.1-0.4,1.3-1c0.1-0.2,0.1-0.4,0.1-0.5L254.3,820L254.3,820z"/>
			<path d="M260.4,816.6v1.3h1.4v0.7h-1.4v2.9c0,0.7,0.2,1,0.7,1c0.3,0,0.4,0,0.6-0.1l0,0.7c-0.2,0.1-0.5,0.1-0.9,0.1
				c-0.4,0-0.8-0.2-1-0.4c-0.3-0.3-0.4-0.8-0.4-1.4v-2.9h-0.8v-0.7h0.8v-1L260.4,816.6L260.4,816.6z"/>
			<path d="M262.8,815.4h1v3.3h0c0.2-0.3,0.4-0.5,0.7-0.7c0.3-0.2,0.6-0.3,1-0.3c0.7,0,1.8,0.4,1.8,2.3v3.1h-1v-3
				c0-0.9-0.3-1.6-1.2-1.6c-0.6,0-1.1,0.4-1.3,1c-0.1,0.1-0.1,0.3-0.1,0.5v3.2h-1L262.8,815.4L262.8,815.4z"/>
			<path d="M269.4,820.7c0,1.3,0.8,1.8,1.8,1.8c0.7,0,1.1-0.1,1.5-0.3l0.2,0.7c-0.3,0.2-0.9,0.3-1.8,0.3c-1.6,0-2.6-1.1-2.6-2.7
				c0-1.6,0.9-2.8,2.5-2.8c1.7,0,2.2,1.5,2.2,2.5c0,0.2,0,0.3,0,0.4L269.4,820.7L269.4,820.7z M272.2,820c0-0.6-0.3-1.6-1.3-1.6
				c-1,0-1.4,0.9-1.5,1.6H272.2z"/>
			<path d="M274.4,819.3c0-0.6,0-1,0-1.4h0.8l0,0.9h0c0.3-0.5,0.8-1,1.7-1c0.7,0,1.3,0.4,1.5,1.1h0c0.2-0.3,0.4-0.5,0.6-0.7
				c0.3-0.2,0.7-0.4,1.2-0.4c0.7,0,1.7,0.5,1.7,2.3v3.1H281v-3c0-1-0.4-1.6-1.1-1.6c-0.6,0-1,0.4-1.2,0.9c0,0.1-0.1,0.3-0.1,0.5v3.3
				h-0.9V820c0-0.8-0.4-1.4-1.1-1.4c-0.6,0-1,0.5-1.2,1c-0.1,0.1-0.1,0.3-0.1,0.5v3.2h-0.9L274.4,819.3L274.4,819.3z"/>
			<path d="M286.2,817.9l0.7,2.7c0.1,0.6,0.3,1.1,0.4,1.7h0c0.1-0.5,0.3-1.1,0.5-1.7l0.9-2.7h0.8l0.8,2.6c0.2,0.6,0.4,1.2,0.5,1.7h0
				c0.1-0.5,0.2-1.1,0.4-1.7l0.8-2.7h1l-1.7,5.3h-0.9l-0.8-2.5c-0.2-0.6-0.3-1.1-0.5-1.7h0c-0.1,0.6-0.3,1.2-0.5,1.7l-0.9,2.5h-0.9
				l-1.6-5.3H286.2L286.2,817.9z"/>
			<path d="M294.9,816.4c0,0.3-0.2,0.6-0.6,0.6c-0.4,0-0.6-0.3-0.6-0.6s0.2-0.6,0.6-0.6S294.9,816.1,294.9,816.4L294.9,816.4z
				 M293.8,823.2v-5.3h1v5.3H293.8z"/>
			<path d="M297.6,816.6v1.3h1.4v0.7h-1.4v2.9c0,0.7,0.2,1,0.7,1c0.3,0,0.4,0,0.6-0.1l0,0.7c-0.2,0.1-0.5,0.1-0.9,0.1
				c-0.4,0-0.8-0.2-1-0.4c-0.3-0.3-0.4-0.8-0.4-1.4v-2.9h-0.8v-0.7h0.8v-1L297.6,816.6L297.6,816.6z"/>
			<path d="M300,815.4h1v3.3h0c0.2-0.3,0.4-0.5,0.7-0.7c0.3-0.2,0.6-0.3,1-0.3c0.7,0,1.8,0.4,1.8,2.3v3.1h-1v-3
				c0-0.9-0.3-1.6-1.2-1.6c-0.6,0-1.1,0.4-1.3,1c-0.1,0.1-0.1,0.3-0.1,0.5v3.2h-1L300,815.4L300,815.4z"/>
			<path d="M195.2,832.8v1.3h1.4v0.7h-1.4v2.9c0,0.7,0.2,1,0.7,1c0.3,0,0.4,0,0.6-0.1l0,0.7c-0.2,0.1-0.5,0.1-0.9,0.1
				c-0.4,0-0.8-0.2-1-0.4c-0.3-0.3-0.4-0.8-0.4-1.4v-2.9h-0.8V834h0.8v-1L195.2,832.8L195.2,832.8z"/>
			<path d="M197.6,831.6h1v3.3h0c0.2-0.3,0.4-0.5,0.7-0.7c0.3-0.2,0.6-0.3,1-0.3c0.7,0,1.8,0.4,1.8,2.3v3.1h-1v-3
				c0-0.9-0.3-1.6-1.2-1.6c-0.6,0-1.1,0.4-1.3,1c-0.1,0.1-0.1,0.3-0.1,0.5v3.2h-1L197.6,831.6L197.6,831.6z"/>
			<path d="M204.2,836.9c0,1.3,0.8,1.8,1.8,1.8c0.7,0,1.1-0.1,1.5-0.3l0.2,0.7c-0.3,0.2-0.9,0.3-1.8,0.3c-1.6,0-2.6-1.1-2.6-2.7
				s0.9-2.8,2.5-2.8c1.7,0,2.2,1.5,2.2,2.5c0,0.2,0,0.3,0,0.4L204.2,836.9L204.2,836.9z M207.1,836.2c0-0.6-0.3-1.6-1.3-1.6
				c-1,0-1.4,0.9-1.5,1.6H207.1z"/>
			<path d="M216.3,836.6c0,2-1.4,2.8-2.6,2.8c-1.4,0-2.5-1.1-2.5-2.7c0-1.8,1.2-2.8,2.6-2.8S216.3,835,216.3,836.6L216.3,836.6z
				 M212.1,836.7c0,1.2,0.7,2,1.6,2s1.6-0.9,1.6-2.1c0-0.9-0.4-2-1.6-2S212.1,835.7,212.1,836.7L212.1,836.7z"/>
			<path d="M217.5,835.8c0-0.7,0-1.2,0-1.7h0.9l0.1,0.9h0c0.4-0.6,1-1,1.9-1c1.3,0,2.3,1.1,2.3,2.7c0,1.9-1.2,2.8-2.4,2.8
				c-0.7,0-1.3-0.3-1.6-0.8h0v2.9h-1V835.8z M218.4,837.2c0,0.1,0,0.3,0,0.4c0.2,0.7,0.8,1.1,1.4,1.1c1,0,1.6-0.8,1.6-2
				c0-1.1-0.6-2-1.6-2c-0.7,0-1.3,0.5-1.5,1.2c0,0.1-0.1,0.3-0.1,0.4V837.2L218.4,837.2z"/>
			<path d="M224.9,832.8v1.3h1.4v0.7h-1.4v2.9c0,0.7,0.2,1,0.7,1c0.3,0,0.4,0,0.6-0.1l0,0.7c-0.2,0.1-0.5,0.1-0.9,0.1
				c-0.4,0-0.8-0.2-1-0.4c-0.3-0.3-0.4-0.8-0.4-1.4v-2.9h-0.8V834h0.8v-1L224.9,832.8L224.9,832.8z"/>
			<path d="M228.4,832.6c0,0.3-0.2,0.6-0.6,0.6c-0.4,0-0.6-0.3-0.6-0.6c0-0.3,0.2-0.6,0.6-0.6C228.2,832,228.4,832.2,228.4,832.6
				L228.4,832.6z M227.3,839.3V834h1v5.3H227.3z"/>
			<path d="M234.7,836.6c0,2-1.4,2.8-2.6,2.8c-1.4,0-2.5-1.1-2.5-2.7c0-1.8,1.2-2.8,2.6-2.8S234.7,835,234.7,836.6L234.7,836.6z
				 M230.5,836.7c0,1.2,0.7,2,1.6,2c0.9,0,1.6-0.9,1.6-2.1c0-0.9-0.4-2-1.6-2C231,834.7,230.5,835.7,230.5,836.7L230.5,836.7z"/>
			<path d="M235.9,835.5c0-0.6,0-1,0-1.4h0.9l0.1,0.9h0c0.3-0.5,0.9-1,1.7-1c0.7,0,1.9,0.4,1.9,2.3v3.1h-1v-3.1
				c0-0.9-0.3-1.6-1.2-1.6c-0.6,0-1.1,0.4-1.3,1c0,0.1-0.1,0.3-0.1,0.4v3.2h-1L235.9,835.5L235.9,835.5z"/>
			<path d="M241.8,838.4c0.3,0.2,0.8,0.4,1.3,0.4c0.7,0,1-0.3,1-0.8c0-0.5-0.3-0.7-1-1c-1-0.4-1.4-0.9-1.4-1.5
				c0-0.9,0.7-1.6,1.8-1.6c0.5,0,1,0.1,1.3,0.3l-0.2,0.7c-0.2-0.1-0.6-0.3-1.1-0.3c-0.6,0-0.9,0.3-0.9,0.7c0,0.4,0.3,0.6,1,0.9
				c0.9,0.3,1.4,0.8,1.4,1.6c0,0.9-0.7,1.6-2,1.6c-0.6,0-1.1-0.2-1.5-0.4L241.8,838.4L241.8,838.4z"/>
			<path d="M249.8,832.8v1.3h1.4v0.7h-1.4v2.9c0,0.7,0.2,1,0.7,1c0.3,0,0.4,0,0.6-0.1l0,0.7c-0.2,0.1-0.5,0.1-0.9,0.1
				c-0.4,0-0.8-0.2-1-0.4c-0.3-0.3-0.4-0.8-0.4-1.4v-2.9H248V834h0.8v-1L249.8,832.8L249.8,832.8z"/>
			<path d="M257,836.6c0,2-1.4,2.8-2.6,2.8c-1.4,0-2.5-1.1-2.5-2.7c0-1.8,1.2-2.8,2.6-2.8S257,835,257,836.6L257,836.6z
				 M252.8,836.7c0,1.2,0.7,2,1.6,2s1.6-0.9,1.6-2.1c0-0.9-0.4-2-1.6-2C253.3,834.7,252.8,835.7,252.8,836.7L252.8,836.7z"/>
			<path d="M264.2,838.1c0,0.5,0,0.9,0.1,1.3h-0.9l-0.1-0.7h0c-0.3,0.4-0.9,0.8-1.6,0.8c-1.1,0-1.6-0.8-1.6-1.5c0-1.3,1.1-2,3.2-2
				v-0.1c0-0.4-0.1-1.2-1.2-1.2c-0.5,0-1,0.1-1.4,0.4l-0.2-0.6c0.4-0.3,1.1-0.5,1.7-0.5c1.6,0,2,1.1,2,2.2L264.2,838.1L264.2,838.1z
				 M263.3,836.6c-1.1,0-2.2,0.2-2.2,1.2c0,0.6,0.4,0.9,0.9,0.9c0.7,0,1.1-0.4,1.3-0.9c0-0.1,0-0.2,0-0.3L263.3,836.6L263.3,836.6z"
				/>
			<path d="M269.5,839.2c-0.3,0.1-0.8,0.3-1.5,0.3c-1.6,0-2.6-1.1-2.6-2.7s1.1-2.8,2.8-2.8c0.6,0,1.1,0.1,1.3,0.3l-0.2,0.7
				c-0.2-0.1-0.6-0.3-1.1-0.3c-1.2,0-1.9,0.9-1.9,2c0,1.2,0.8,2,1.8,2c0.5,0,0.9-0.1,1.2-0.3L269.5,839.2L269.5,839.2z"/>
			<path d="M274.4,839.2c-0.3,0.1-0.8,0.3-1.5,0.3c-1.6,0-2.6-1.1-2.6-2.7s1.1-2.8,2.8-2.8c0.6,0,1.1,0.1,1.3,0.3l-0.2,0.7
				c-0.2-0.1-0.6-0.3-1.1-0.3c-1.2,0-1.9,0.9-1.9,2c0,1.2,0.8,2,1.8,2c0.5,0,0.9-0.1,1.2-0.3L274.4,839.2L274.4,839.2z"/>
			<path d="M276,836.9c0,1.3,0.8,1.8,1.8,1.8c0.7,0,1.1-0.1,1.5-0.3l0.2,0.7c-0.3,0.2-0.9,0.3-1.8,0.3c-1.6,0-2.6-1.1-2.6-2.7
				s0.9-2.8,2.5-2.8c1.7,0,2.2,1.5,2.2,2.5c0,0.2,0,0.3,0,0.4L276,836.9L276,836.9z M278.8,836.2c0-0.6-0.3-1.6-1.3-1.6
				c-1,0-1.4,0.9-1.5,1.6H278.8z"/>
			<path d="M280.9,835.8c0-0.7,0-1.2,0-1.7h0.9l0.1,0.9h0c0.4-0.6,1-1,1.9-1c1.3,0,2.3,1.1,2.3,2.7c0,1.9-1.2,2.8-2.4,2.8
				c-0.7,0-1.3-0.3-1.6-0.8h0v2.9h-1L280.9,835.8L280.9,835.8z M281.8,837.2c0,0.1,0,0.3,0,0.4c0.2,0.7,0.8,1.1,1.4,1.1
				c1,0,1.6-0.8,1.6-2c0-1.1-0.6-2-1.6-2c-0.7,0-1.3,0.5-1.5,1.2c0,0.1-0.1,0.3-0.1,0.4V837.2L281.8,837.2z"/>
			<path d="M288.3,832.8v1.3h1.4v0.7h-1.4v2.9c0,0.7,0.2,1,0.7,1c0.3,0,0.4,0,0.6-0.1l0,0.7c-0.2,0.1-0.5,0.1-0.9,0.1
				c-0.4,0-0.8-0.2-1-0.4c-0.3-0.3-0.4-0.8-0.4-1.4v-2.9h-0.8V834h0.8v-1L288.3,832.8L288.3,832.8z"/>
			<path d="M297.8,836.6c0,2-1.4,2.8-2.6,2.8c-1.4,0-2.5-1.1-2.5-2.7c0-1.8,1.2-2.8,2.6-2.8S297.8,835,297.8,836.6L297.8,836.6z
				 M293.7,836.7c0,1.2,0.7,2,1.6,2c0.9,0,1.6-0.9,1.6-2.1c0-0.9-0.4-2-1.6-2S293.7,835.7,293.7,836.7L293.7,836.7z"/>
			<path d="M299.1,835.7c0-0.6,0-1.2,0-1.6h0.8l0,1.1h0c0.2-0.7,0.8-1.2,1.5-1.2c0.1,0,0.2,0,0.3,0v0.9c-0.1,0-0.2,0-0.3,0
				c-0.7,0-1.2,0.5-1.3,1.2c0,0.1,0,0.3,0,0.4v2.8h-1L299.1,835.7L299.1,835.7z"/>
			<path d="M221,851.9c0-0.6,0-1.2,0-1.6h0.8l0,1.1h0c0.2-0.7,0.8-1.2,1.5-1.2c0.1,0,0.2,0,0.3,0v0.9c-0.1,0-0.2,0-0.3,0
				c-0.7,0-1.2,0.5-1.3,1.2c0,0.1,0,0.3,0,0.4v2.8h-1V851.9z"/>
			<path d="M225,853c0,1.3,0.8,1.8,1.8,1.8c0.7,0,1.1-0.1,1.5-0.3l0.2,0.7c-0.3,0.2-0.9,0.3-1.8,0.3c-1.6,0-2.6-1.1-2.6-2.7
				s0.9-2.8,2.5-2.8c1.7,0,2.2,1.5,2.2,2.5c0,0.2,0,0.3,0,0.4L225,853L225,853z M227.8,852.3c0-0.6-0.3-1.6-1.3-1.6
				c-1,0-1.4,0.9-1.5,1.6H227.8L227.8,852.3z"/>
			<path d="M228.7,857c0.4,0,0.8-0.2,1.1-0.4c0.3-0.3,0.4-0.7,0.4-2v-4.4h1v4.8c0,1-0.2,1.7-0.6,2.2c-0.4,0.4-1.1,0.6-1.6,0.6
				L228.7,857L228.7,857z M231.2,848.7c0,0.3-0.2,0.6-0.6,0.6c-0.4,0-0.6-0.3-0.6-0.6s0.2-0.6,0.6-0.6
				C230.9,848.1,231.2,848.4,231.2,848.7L231.2,848.7z"/>
			<path d="M233.2,853c0,1.3,0.8,1.8,1.8,1.8c0.7,0,1.1-0.1,1.5-0.3l0.2,0.7c-0.3,0.2-0.9,0.3-1.8,0.3c-1.6,0-2.6-1.1-2.6-2.7
				s0.9-2.8,2.5-2.8c1.7,0,2.2,1.5,2.2,2.5c0,0.2,0,0.3,0,0.4L233.2,853L233.2,853z M236,852.3c0-0.6-0.3-1.6-1.3-1.6
				c-1,0-1.4,0.9-1.5,1.6H236z"/>
			<path d="M241.9,855.3c-0.3,0.1-0.8,0.3-1.5,0.3c-1.6,0-2.6-1.1-2.6-2.7c0-1.6,1.1-2.8,2.8-2.8c0.6,0,1.1,0.1,1.3,0.3l-0.2,0.7
				c-0.2-0.1-0.6-0.3-1.1-0.3c-1.2,0-1.9,0.9-1.9,2c0,1.2,0.8,2,1.8,2c0.5,0,0.9-0.1,1.2-0.3L241.9,855.3L241.9,855.3z"/>
			<path d="M244.3,848.9v1.3h1.4v0.7h-1.4v2.9c0,0.7,0.2,1,0.7,1c0.3,0,0.4,0,0.6-0.1l0,0.7c-0.2,0.1-0.5,0.1-0.9,0.1
				c-0.4,0-0.8-0.2-1-0.4c-0.3-0.3-0.4-0.8-0.4-1.4v-2.9h-0.8v-0.7h0.8v-1L244.3,848.9L244.3,848.9z"/>
			<path d="M250.2,848.9v1.3h1.4v0.7h-1.4v2.9c0,0.7,0.2,1,0.7,1c0.3,0,0.4,0,0.6-0.1l0,0.7c-0.2,0.1-0.5,0.1-0.9,0.1
				c-0.4,0-0.8-0.2-1-0.4c-0.3-0.3-0.4-0.8-0.4-1.4v-2.9h-0.8v-0.7h0.8v-1L250.2,848.9L250.2,848.9z"/>
			<path d="M252.7,847.7h1v3.3h0c0.2-0.3,0.4-0.5,0.7-0.7c0.3-0.2,0.6-0.3,1-0.3c0.7,0,1.8,0.4,1.8,2.3v3.1h-1v-3
				c0-0.9-0.3-1.6-1.2-1.6c-0.6,0-1.1,0.4-1.3,1c-0.1,0.1-0.1,0.3-0.1,0.5v3.2h-1L252.7,847.7L252.7,847.7z"/>
			<path d="M259.3,853c0,1.3,0.8,1.8,1.8,1.8c0.7,0,1.1-0.1,1.5-0.3l0.2,0.7c-0.3,0.2-0.9,0.3-1.8,0.3c-1.6,0-2.6-1.1-2.6-2.7
				s0.9-2.8,2.5-2.8c1.7,0,2.2,1.5,2.2,2.5c0,0.2,0,0.3,0,0.4L259.3,853L259.3,853z M262.1,852.3c0-0.6-0.3-1.6-1.3-1.6
				c-1,0-1.4,0.9-1.5,1.6H262.1z"/>
			<path d="M264.2,851.6c0-0.6,0-1,0-1.4h0.8l0,0.9h0c0.3-0.5,0.8-1,1.7-1c0.7,0,1.3,0.4,1.5,1.1h0c0.2-0.3,0.4-0.5,0.6-0.7
				c0.3-0.2,0.7-0.4,1.2-0.4c0.7,0,1.7,0.5,1.7,2.3v3.1h-0.9v-3c0-1-0.4-1.6-1.2-1.6c-0.6,0-1,0.4-1.1,0.9c0,0.1-0.1,0.3-0.1,0.5
				v3.3h-0.9v-3.2c0-0.8-0.4-1.4-1.1-1.4c-0.6,0-1,0.5-1.2,1c-0.1,0.1-0.1,0.3-0.1,0.5v3.2h-0.9L264.2,851.6L264.2,851.6z"/>
			<path d="M273.1,854.9c0-0.4,0.3-0.7,0.7-0.7c0.4,0,0.6,0.3,0.6,0.7s-0.3,0.7-0.7,0.7C273.4,855.6,273.1,855.3,273.1,854.9
				L273.1,854.9z"/>
		</g>
		<g>
			<g>
				<defs>
					<polygon id="SVGID_00000181076111653346706410000004739423950374337210_" points="127.7,345.2 4.9,345.2 5.5,71.1 127.7,71.1 
											"/>
				</defs>
				<clipPath id="SVGID_00000160173774940243119960000013811087981488379273_">
					<use xlink:href="#SVGID_00000181076111653346706410000004739423950374337210_"  style="overflow:visible;"/>
				</clipPath>
				<g style="clip-path:url(#SVGID_00000160173774940243119960000013811087981488379273_);">
					
						<image style="overflow:visible;enable-background:new    ;" width="856" height="1858" xlink:href="E86D447F6B30C81A.png"  transform="matrix(0.1521 0 0 0.1521 2.4458 68.5206)">
					</image>
				</g>
			</g>
		</g>
		<g>
			<path d="M12.2,49.9c0.5-0.1,1.2-0.2,1.8-0.2c1,0,1.7,0.2,2.1,0.6c0.4,0.3,0.6,0.8,0.6,1.4c0,1-0.6,1.6-1.4,1.9v0
				c0.6,0.2,0.9,0.7,1.1,1.5c0.2,1,0.4,1.7,0.6,2h-1c-0.1-0.2-0.3-0.8-0.5-1.8c-0.2-1-0.6-1.4-1.5-1.4h-0.9v3.2h-1L12.2,49.9
				L12.2,49.9z M13.2,53.3h1c1,0,1.7-0.6,1.7-1.4c0-1-0.7-1.4-1.7-1.4c-0.5,0-0.8,0-0.9,0.1L13.2,53.3L13.2,53.3z"/>
			<path d="M18.7,54.7c0,1.3,0.8,1.8,1.8,1.8c0.7,0,1.1-0.1,1.5-0.3l0.2,0.7c-0.3,0.2-0.9,0.3-1.8,0.3c-1.6,0-2.6-1.1-2.6-2.7
				c0-1.6,0.9-2.8,2.5-2.8c1.7,0,2.2,1.5,2.2,2.5c0,0.2,0,0.3,0,0.4L18.7,54.7L18.7,54.7z M21.5,54c0-0.6-0.3-1.6-1.3-1.6
				c-1,0-1.4,0.9-1.5,1.6H21.5z"/>
			<path d="M28.1,56.4c0,1.2-0.3,2-0.8,2.4c-0.5,0.5-1.3,0.6-1.9,0.6s-1.3-0.2-1.8-0.4l0.2-0.7c0.4,0.2,0.9,0.4,1.5,0.4
				c1,0,1.7-0.5,1.7-1.9v-0.6h0c-0.3,0.5-0.9,0.9-1.7,0.9c-1.3,0-2.3-1.1-2.3-2.6c0-1.8,1.2-2.8,2.4-2.8c0.9,0,1.4,0.5,1.6,0.9h0
				l0-0.8h0.9c0,0.4,0,0.8,0,1.4L28.1,56.4L28.1,56.4z M27.2,54c0-0.2,0-0.3-0.1-0.4c-0.2-0.6-0.6-1-1.3-1c-0.9,0-1.6,0.8-1.6,2
				c0,1,0.5,1.9,1.6,1.9c0.6,0,1.1-0.4,1.3-1c0.1-0.2,0.1-0.4,0.1-0.5L27.2,54L27.2,54z"/>
			<path d="M30.7,50.4c0,0.3-0.2,0.6-0.6,0.6c-0.4,0-0.6-0.3-0.6-0.6c0-0.3,0.2-0.6,0.6-0.6S30.7,50.1,30.7,50.4L30.7,50.4z
				 M29.7,57.2v-5.3h1v5.3H29.7z"/>
			<path d="M32.1,56.2c0.3,0.2,0.8,0.4,1.3,0.4c0.7,0,1-0.3,1-0.8s-0.3-0.7-1-1c-1-0.4-1.4-0.9-1.4-1.5c0-0.9,0.7-1.6,1.8-1.6
				c0.5,0,1,0.1,1.3,0.3l-0.2,0.7c-0.2-0.1-0.6-0.3-1.1-0.3c-0.6,0-0.9,0.3-0.9,0.7c0,0.4,0.3,0.6,1,0.9c0.9,0.3,1.4,0.8,1.4,1.6
				c0,0.9-0.7,1.6-2,1.6c-0.6,0-1.1-0.2-1.5-0.4L32.1,56.2L32.1,56.2z"/>
			<path d="M37.7,50.6v1.3h1.4v0.7h-1.4v2.9c0,0.7,0.2,1,0.7,1c0.3,0,0.4,0,0.6-0.1l0,0.7c-0.2,0.1-0.5,0.1-0.9,0.1
				c-0.4,0-0.8-0.2-1-0.4c-0.3-0.3-0.4-0.8-0.4-1.4v-2.9h-0.8v-0.7h0.8v-1L37.7,50.6L37.7,50.6z"/>
			<path d="M40.6,54.7c0,1.3,0.8,1.8,1.8,1.8c0.7,0,1.1-0.1,1.5-0.3l0.2,0.7c-0.3,0.2-0.9,0.3-1.8,0.3c-1.6,0-2.6-1.1-2.6-2.7
				c0-1.6,0.9-2.8,2.5-2.8c1.7,0,2.2,1.5,2.2,2.5c0,0.2,0,0.3,0,0.4L40.6,54.7L40.6,54.7z M43.4,54c0-0.6-0.3-1.6-1.3-1.6
				c-1,0-1.4,0.9-1.5,1.6H43.4z"/>
			<path d="M45.6,53.6c0-0.6,0-1.2,0-1.6h0.8l0,1.1h0c0.2-0.7,0.8-1.2,1.5-1.2c0.1,0,0.2,0,0.3,0v0.9c-0.1,0-0.2,0-0.3,0
				c-0.7,0-1.2,0.5-1.3,1.2c0,0.1,0,0.3,0,0.4v2.8h-1V53.6z"/>
			<path d="M56.3,54.5c0,2-1.4,2.8-2.6,2.8c-1.4,0-2.5-1.1-2.5-2.7c0-1.8,1.2-2.8,2.6-2.8S56.3,52.9,56.3,54.5L56.3,54.5z
				 M52.1,54.6c0,1.2,0.7,2,1.6,2s1.6-0.9,1.6-2.1c0-0.9-0.4-2-1.6-2C52.5,52.5,52.1,53.6,52.1,54.6L52.1,54.6z"/>
			<path d="M57.5,53.3c0-0.6,0-1,0-1.4h0.9l0.1,0.9h0c0.3-0.5,0.9-1,1.7-1c0.7,0,1.9,0.4,1.9,2.3v3.1h-1v-3.1c0-0.9-0.3-1.6-1.2-1.6
				c-0.6,0-1.1,0.4-1.3,1c0,0.1-0.1,0.3-0.1,0.4v3.2h-1L57.5,53.3L57.5,53.3z"/>
			<path d="M72.1,54c-0.1-1-0.1-2.3-0.1-3.2h0c-0.3,0.9-0.6,1.8-0.9,2.8l-1.3,3.6H69l-1.2-3.5c-0.4-1.1-0.6-2-0.8-2.9h0
				c0,0.9-0.1,2.1-0.1,3.3l-0.2,3.2h-0.9l0.5-7.4h1.2l1.3,3.6c0.3,0.9,0.5,1.7,0.7,2.5h0c0.2-0.7,0.5-1.6,0.8-2.5l1.3-3.6h1.2
				l0.5,7.4h-0.9L72.1,54L72.1,54z"/>
			<path d="M75.1,51.9l1.1,3.1c0.1,0.4,0.3,0.8,0.4,1.1h0c0.1-0.3,0.2-0.7,0.3-1.1l1.1-3.1h1l-1.4,3.8c-0.7,1.8-1.2,2.7-1.8,3.3
				c-0.5,0.4-0.9,0.6-1.2,0.6l-0.2-0.8c0.2-0.1,0.6-0.2,0.8-0.5c0.3-0.2,0.6-0.6,0.8-1.1c0-0.1,0.1-0.2,0.1-0.2s0-0.1-0.1-0.3
				L74,51.9L75.1,51.9L75.1,51.9z"/>
			<path d="M88.3,58.3c-1-0.3-2-0.6-2.8-0.9c-0.2-0.1-0.3-0.1-0.4-0.1c-1.8-0.1-3.2-1.4-3.2-3.7s1.4-3.9,3.4-3.9
				c2,0,3.3,1.6,3.3,3.7c0,1.9-0.9,3.1-2.1,3.5v0c0.7,0.2,1.5,0.4,2.2,0.5L88.3,58.3L88.3,58.3z M87.5,53.5c0-1.5-0.8-3-2.3-3
				c-1.6,0-2.4,1.5-2.4,3.1c0,1.6,0.9,3,2.4,3C86.7,56.6,87.5,55.2,87.5,53.5L87.5,53.5z"/>
			<path d="M89.7,49.9c0.5-0.1,1.2-0.2,1.8-0.2c1,0,1.7,0.2,2.1,0.6c0.4,0.3,0.6,0.8,0.6,1.4c0,1-0.6,1.6-1.4,1.9v0
				c0.6,0.2,0.9,0.7,1.1,1.5c0.2,1,0.4,1.7,0.6,2h-1c-0.1-0.2-0.3-0.8-0.5-1.8c-0.2-1-0.6-1.4-1.5-1.4h-0.9v3.2h-1L89.7,49.9
				L89.7,49.9z M90.7,53.3h1c1,0,1.7-0.6,1.7-1.4c0-1-0.7-1.4-1.7-1.4c-0.5,0-0.8,0-0.9,0.1L90.7,53.3L90.7,53.3z"/>
			<path d="M97.8,56c0.4,0.3,1,0.5,1.7,0.5c1,0,1.5-0.5,1.5-1.3c0-0.7-0.4-1.1-1.4-1.5c-1.2-0.4-1.9-1.1-1.9-2.1c0-1.1,1-2,2.4-2
				c0.7,0,1.3,0.2,1.6,0.4l-0.3,0.8c-0.2-0.1-0.7-0.4-1.4-0.4c-1,0-1.4,0.6-1.4,1.1c0,0.7,0.4,1,1.5,1.4c1.2,0.5,1.9,1.1,1.9,2.2
				c0,1.1-0.8,2.1-2.6,2.1c-0.7,0-1.5-0.2-1.9-0.5L97.8,56L97.8,56z"/>
			<path d="M103.3,49.4h1v3.3h0c0.2-0.3,0.4-0.5,0.7-0.7c0.3-0.2,0.6-0.3,1-0.3c0.7,0,1.8,0.4,1.8,2.3v3.1h-1v-3
				c0-0.9-0.3-1.6-1.2-1.6c-0.6,0-1.1,0.4-1.3,1c-0.1,0.1-0.1,0.3-0.1,0.5v3.2h-1L103.3,49.4L103.3,49.4z"/>
			<path d="M114.2,54.5c0,2-1.4,2.8-2.6,2.8c-1.4,0-2.5-1.1-2.5-2.7c0-1.8,1.2-2.8,2.6-2.8S114.2,52.9,114.2,54.5L114.2,54.5z
				 M110,54.6c0,1.2,0.7,2,1.6,2c0.9,0,1.6-0.9,1.6-2.1c0-0.9-0.4-2-1.6-2C110.4,52.5,110,53.6,110,54.6L110,54.6z"/>
			<path d="M115.4,53.6c0-0.7,0-1.2,0-1.7h0.9l0.1,0.9h0c0.4-0.6,1-1,1.9-1c1.3,0,2.3,1.1,2.3,2.7c0,1.9-1.2,2.8-2.4,2.8
				c-0.7,0-1.3-0.3-1.6-0.8h0v2.9h-1C115.4,59.4,115.4,53.6,115.4,53.6z M116.3,55.1c0,0.1,0,0.3,0,0.4c0.2,0.7,0.8,1.1,1.4,1.1
				c1,0,1.6-0.8,1.6-2c0-1.1-0.6-2-1.6-2c-0.7,0-1.3,0.5-1.5,1.2c0,0.1-0.1,0.3-0.1,0.4V55.1L116.3,55.1z"/>
		</g>
		<g>
			<path d="M9.8,361c0.5-0.1,1.1-0.1,1.8-0.1c0.9,0,1.6,0.2,2.1,0.6c0.4,0.4,0.6,0.9,0.6,1.5c0,0.7-0.2,1.2-0.6,1.6
				c-0.5,0.5-1.3,0.8-2.3,0.8c-0.3,0-0.5,0-0.8-0.1v3h-1V361z M10.7,364.5c0.2,0.1,0.5,0.1,0.8,0.1c1.1,0,1.8-0.6,1.8-1.6
				s-0.7-1.5-1.7-1.5c-0.4,0-0.7,0-0.9,0.1C10.7,361.7,10.7,364.5,10.7,364.5z"/>
			<path d="M15.4,364.6c0-0.6,0-1.2,0-1.6h0.8l0,1.1h0c0.2-0.7,0.8-1.2,1.5-1.2c0.1,0,0.2,0,0.3,0v0.9c-0.1,0-0.2,0-0.3,0
				c-0.7,0-1.2,0.5-1.3,1.2c0,0.1,0,0.3,0,0.4v2.8h-1V364.6L15.4,364.6z"/>
			<path d="M23.7,365.6c0,2-1.4,2.8-2.6,2.8c-1.4,0-2.5-1.1-2.5-2.7c0-1.8,1.2-2.8,2.6-2.8S23.7,363.9,23.7,365.6L23.7,365.6z
				 M19.5,365.6c0,1.2,0.7,2,1.6,2c0.9,0,1.6-0.9,1.6-2.1c0-0.9-0.4-2-1.6-2C20,363.6,19.5,364.6,19.5,365.6L19.5,365.6z"/>
			<path d="M25.2,363l1,3c0.2,0.5,0.3,0.9,0.4,1.4h0c0.1-0.4,0.3-0.9,0.4-1.4l1-3h1l-2.1,5.3h-0.9l-2-5.3H25.2L25.2,363z"/>
			<path d="M31.1,361.5c0,0.3-0.2,0.6-0.6,0.6c-0.4,0-0.6-0.3-0.6-0.6c0-0.3,0.2-0.6,0.6-0.6S31.1,361.1,31.1,361.5L31.1,361.5z
				 M30.1,368.2V363h1v5.3H30.1z"/>
			<path d="M37.2,360.5v6.4c0,0.5,0,1,0,1.4h-0.9l0-0.9h0c-0.3,0.6-0.9,1-1.8,1c-1.3,0-2.3-1.1-2.3-2.7c0-1.8,1.1-2.8,2.4-2.8
				c0.8,0,1.4,0.4,1.6,0.8h0v-3.2L37.2,360.5L37.2,360.5z M36.2,365.1c0-0.1,0-0.3,0-0.4c-0.1-0.6-0.7-1.1-1.4-1.1
				c-1,0-1.6,0.9-1.6,2c0,1.1,0.5,2,1.6,2c0.6,0,1.2-0.4,1.4-1.1c0-0.1,0-0.3,0-0.4L36.2,365.1L36.2,365.1z"/>
			<path d="M39.3,365.8c0,1.3,0.8,1.8,1.8,1.8c0.7,0,1.1-0.1,1.5-0.3l0.2,0.7c-0.3,0.2-0.9,0.3-1.8,0.3c-1.6,0-2.6-1.1-2.6-2.7
				s0.9-2.8,2.5-2.8c1.7,0,2.2,1.5,2.2,2.5c0,0.2,0,0.3,0,0.4H39.3L39.3,365.8z M42.1,365.1c0-0.6-0.3-1.6-1.3-1.6
				c-1,0-1.4,0.9-1.5,1.6C39.3,365.1,42.1,365.1,42.1,365.1z"/>
			<path d="M47.7,361.7v1.3h1.4v0.7h-1.4v2.9c0,0.7,0.2,1,0.7,1c0.3,0,0.4,0,0.6-0.1l0,0.7c-0.2,0.1-0.5,0.1-0.9,0.1
				c-0.4,0-0.8-0.2-1-0.4c-0.3-0.3-0.4-0.8-0.4-1.4v-2.9H46V363h0.8v-1L47.7,361.7L47.7,361.7z"/>
			<path d="M50.2,360.5h1v3.3h0c0.2-0.3,0.4-0.5,0.7-0.7c0.3-0.2,0.6-0.3,1-0.3c0.7,0,1.8,0.4,1.8,2.3v3.1h-1v-3
				c0-0.9-0.3-1.6-1.2-1.6c-0.6,0-1.1,0.4-1.3,1c-0.1,0.1-0.1,0.3-0.1,0.5v3.2h-1L50.2,360.5L50.2,360.5z"/>
			<path d="M56.8,365.8c0,1.3,0.8,1.8,1.8,1.8c0.7,0,1.1-0.1,1.5-0.3l0.2,0.7c-0.3,0.2-0.9,0.3-1.8,0.3c-1.6,0-2.6-1.1-2.6-2.7
				s0.9-2.8,2.5-2.8c1.7,0,2.2,1.5,2.2,2.5c0,0.2,0,0.3,0,0.4H56.8z M59.6,365.1c0-0.6-0.3-1.6-1.3-1.6c-1,0-1.4,0.9-1.5,1.6H59.6z"
				/>
			<path d="M64.1,364.4c0-0.6,0-1,0-1.4h0.9l0.1,0.9h0c0.3-0.5,0.9-1,1.7-1c0.7,0,1.9,0.4,1.9,2.3v3.1h-1v-3.1
				c0-0.9-0.3-1.6-1.2-1.6c-0.6,0-1.1,0.4-1.3,1c0,0.1-0.1,0.3-0.1,0.4v3.2h-1L64.1,364.4L64.1,364.4z"/>
			<path d="M73.8,367c0,0.5,0,0.9,0.1,1.3H73l-0.1-0.7h0c-0.3,0.4-0.9,0.8-1.6,0.8c-1.1,0-1.6-0.8-1.6-1.5c0-1.3,1.1-2,3.2-2v-0.1
				c0-0.4-0.1-1.2-1.2-1.2c-0.5,0-1,0.1-1.4,0.4l-0.2-0.6c0.4-0.3,1.1-0.5,1.7-0.5c1.6,0,2,1.1,2,2.2L73.8,367L73.8,367z
				 M72.9,365.5c-1.1,0-2.2,0.2-2.2,1.2c0,0.6,0.4,0.9,0.9,0.9c0.7,0,1.2-0.4,1.3-0.9c0-0.1,0-0.2,0-0.3V365.5L72.9,365.5z"/>
			<path d="M75.4,364.4c0-0.6,0-1,0-1.4h0.8l0,0.9h0c0.3-0.5,0.8-1,1.7-1c0.7,0,1.3,0.4,1.5,1.1h0c0.2-0.3,0.4-0.5,0.6-0.7
				c0.3-0.2,0.7-0.4,1.2-0.4c0.7,0,1.7,0.5,1.7,2.3v3.1H82v-3c0-1-0.4-1.6-1.1-1.6c-0.6,0-1,0.4-1.2,0.9c0,0.1-0.1,0.3-0.1,0.5v3.3
				h-0.9v-3.2c0-0.8-0.4-1.4-1.1-1.4c-0.6,0-1,0.5-1.2,1c-0.1,0.1-0.1,0.3-0.1,0.5v3.2h-0.9L75.4,364.4L75.4,364.4z"/>
			<path d="M85,365.8c0,1.3,0.8,1.8,1.8,1.8c0.7,0,1.1-0.1,1.5-0.3l0.2,0.7c-0.3,0.2-0.9,0.3-1.8,0.3c-1.6,0-2.6-1.1-2.6-2.7
				s0.9-2.8,2.5-2.8c1.7,0,2.2,1.5,2.2,2.5c0,0.2,0,0.3,0,0.4H85z M87.9,365.1c0-0.6-0.3-1.6-1.3-1.6c-1,0-1.4,0.9-1.5,1.6H87.9z"/>
			<path d="M97.1,365.6c0,2-1.4,2.8-2.6,2.8c-1.4,0-2.5-1.1-2.5-2.7c0-1.8,1.2-2.8,2.6-2.8S97.1,363.9,97.1,365.6L97.1,365.6z
				 M92.9,365.6c0,1.2,0.7,2,1.6,2c0.9,0,1.6-0.9,1.6-2.1c0-0.9-0.4-2-1.6-2C93.4,363.6,92.9,364.6,92.9,365.6L92.9,365.6z"/>
			<path d="M98.4,368.2v-4.6h-0.7V363h0.7v-0.3c0-0.7,0.2-1.4,0.6-1.8c0.4-0.4,0.8-0.5,1.3-0.5c0.4,0,0.6,0.1,0.8,0.2l-0.1,0.7
				c-0.1-0.1-0.3-0.1-0.6-0.1c-0.8,0-1,0.7-1,1.5v0.3h1.3v0.7h-1.3v4.6L98.4,368.2L98.4,368.2z"/>
			<path d="M104.2,363l1.2,3.1c0.1,0.4,0.3,0.8,0.4,1.1h0c0.1-0.3,0.2-0.7,0.3-1.1l1.1-3.1h1l-1.4,3.8c-0.7,1.8-1.2,2.7-1.8,3.3
				c-0.5,0.4-0.9,0.6-1.2,0.6l-0.2-0.8c0.2-0.1,0.6-0.2,0.8-0.5c0.3-0.2,0.6-0.6,0.8-1.1c0-0.1,0.1-0.2,0.1-0.2s0-0.1-0.1-0.3
				l-1.9-4.9L104.2,363L104.2,363z"/>
			<path d="M113.6,365.6c0,2-1.4,2.8-2.6,2.8c-1.4,0-2.5-1.1-2.5-2.7c0-1.8,1.2-2.8,2.6-2.8S113.6,363.9,113.6,365.6L113.6,365.6z
				 M109.5,365.6c0,1.2,0.7,2,1.6,2c0.9,0,1.6-0.9,1.6-2.1c0-0.9-0.4-2-1.6-2S109.5,364.6,109.5,365.6L109.5,365.6z"/>
			<path d="M119.3,366.8c0,0.6,0,1,0,1.5h-0.9l-0.1-0.9h0c-0.2,0.4-0.8,1-1.7,1c-0.8,0-1.8-0.5-1.8-2.3v-3.1h1v2.9
				c0,1,0.3,1.7,1.2,1.7c0.6,0,1.1-0.4,1.3-0.9c0.1-0.1,0.1-0.3,0.1-0.5v-3.2h1L119.3,366.8L119.3,366.8z"/>
			<path d="M120.9,364.6c0-0.6,0-1.2,0-1.6h0.8l0,1.1h0c0.2-0.7,0.8-1.2,1.5-1.2c0.1,0,0.2,0,0.3,0v0.9c-0.1,0-0.2,0-0.3,0
				c-0.7,0-1.2,0.5-1.3,1.2c0,0.1,0,0.3,0,0.4v2.8h-1V364.6L120.9,364.6z"/>
			<path d="M5.6,380.8c0-0.6,0-1.2,0-1.6h0.8l0,1.1h0c0.2-0.7,0.8-1.2,1.5-1.2c0.1,0,0.2,0,0.3,0v0.9c-0.1,0-0.2,0-0.3,0
				c-0.7,0-1.2,0.5-1.3,1.2c0,0.1,0,0.3,0,0.4v2.8h-1V380.8L5.6,380.8z"/>
			<path d="M9.6,381.9c0,1.3,0.8,1.8,1.8,1.8c0.7,0,1.1-0.1,1.5-0.3l0.2,0.7c-0.3,0.2-0.9,0.3-1.8,0.3c-1.6,0-2.6-1.1-2.6-2.7
				c0-1.6,0.9-2.8,2.5-2.8c1.7,0,2.2,1.5,2.2,2.5c0,0.2,0,0.3,0,0.4H9.6L9.6,381.9z M12.4,381.2c0-0.6-0.3-1.6-1.3-1.6
				c-1,0-1.4,0.9-1.5,1.6H12.4L12.4,381.2z"/>
			<path d="M14.4,383.4c0.3,0.2,0.8,0.4,1.3,0.4c0.7,0,1-0.3,1-0.8s-0.3-0.7-1-1c-1-0.4-1.4-0.9-1.4-1.5c0-0.9,0.7-1.6,1.8-1.6
				c0.5,0,1,0.1,1.3,0.3l-0.2,0.7c-0.2-0.1-0.6-0.3-1.1-0.3c-0.6,0-0.9,0.3-0.9,0.7c0,0.4,0.3,0.6,1,0.9c0.9,0.3,1.4,0.8,1.4,1.6
				c0,0.9-0.7,1.6-2,1.6c-0.6,0-1.1-0.2-1.5-0.4L14.4,383.4L14.4,383.4z"/>
			<path d="M20,377.8v1.3h1.4v0.7H20v2.9c0,0.7,0.2,1,0.7,1c0.3,0,0.4,0,0.6-0.1l0,0.7c-0.2,0.1-0.5,0.1-0.9,0.1
				c-0.4,0-0.8-0.2-1-0.4c-0.3-0.3-0.4-0.8-0.4-1.4v-2.9h-0.8v-0.7h0.8v-1L20,377.8L20,377.8z"/>
			<path d="M26.2,383.1c0,0.5,0,0.9,0.1,1.3h-0.9l-0.1-0.7h0c-0.3,0.4-0.9,0.8-1.6,0.8c-1.1,0-1.6-0.8-1.6-1.5c0-1.3,1.1-2,3.2-2
				v-0.1c0-0.4-0.1-1.2-1.2-1.2c-0.5,0-1,0.1-1.4,0.4l-0.2-0.6c0.4-0.3,1.1-0.5,1.7-0.5c1.6,0,2,1.1,2,2.2
				C26.2,381.2,26.2,383.1,26.2,383.1z M25.3,381.7c-1.1,0-2.2,0.2-2.2,1.2c0,0.6,0.4,0.9,0.9,0.9c0.7,0,1.2-0.4,1.3-0.9
				c0-0.1,0-0.2,0-0.3L25.3,381.7L25.3,381.7z"/>
			<path d="M32.2,383c0,0.6,0,1,0,1.5h-0.9l-0.1-0.9h0c-0.2,0.4-0.8,1-1.7,1c-0.8,0-1.8-0.5-1.8-2.3v-3.1h1v2.9c0,1,0.3,1.7,1.2,1.7
				c0.6,0,1.1-0.4,1.3-0.9c0.1-0.1,0.1-0.3,0.1-0.5v-3.2h1L32.2,383L32.2,383z"/>
			<path d="M33.8,380.8c0-0.6,0-1.2,0-1.6h0.8l0,1.1h0c0.2-0.7,0.8-1.2,1.5-1.2c0.1,0,0.2,0,0.3,0v0.9c-0.1,0-0.2,0-0.3,0
				c-0.7,0-1.2,0.5-1.3,1.2c0,0.1,0,0.3,0,0.4v2.8h-1V380.8L33.8,380.8z"/>
			<path d="M41,383.1c0,0.5,0,0.9,0.1,1.3h-0.9l-0.1-0.7h0c-0.3,0.4-0.9,0.8-1.6,0.8c-1.1,0-1.6-0.8-1.6-1.5c0-1.3,1.1-2,3.2-2v-0.1
				c0-0.4-0.1-1.2-1.2-1.2c-0.5,0-1,0.1-1.4,0.4l-0.2-0.6c0.4-0.3,1.1-0.5,1.7-0.5c1.6,0,2,1.1,2,2.2C41,381.2,41,383.1,41,383.1z
				 M40.1,381.7c-1.1,0-2.2,0.2-2.2,1.2c0,0.6,0.4,0.9,0.9,0.9c0.7,0,1.1-0.4,1.3-0.9c0-0.1,0-0.2,0-0.3L40.1,381.7L40.1,381.7z"/>
			<path d="M42.6,380.5c0-0.6,0-1,0-1.4h0.9l0.1,0.9h0c0.3-0.5,0.9-1,1.7-1c0.7,0,1.9,0.4,1.9,2.3v3.1h-1v-3.1
				c0-0.9-0.3-1.6-1.2-1.6c-0.6,0-1.1,0.4-1.3,1c0,0.1-0.1,0.3-0.1,0.4v3.2h-1L42.6,380.5L42.6,380.5z"/>
			<path d="M49.7,377.8v1.3h1.4v0.7h-1.4v2.9c0,0.7,0.2,1,0.7,1c0.3,0,0.4,0,0.6-0.1l0,0.7c-0.2,0.1-0.5,0.1-0.9,0.1
				c-0.4,0-0.8-0.2-1-0.4c-0.3-0.3-0.4-0.8-0.4-1.4v-2.9H48v-0.7h0.8v-1C48.8,378.1,49.7,377.8,49.7,377.8z"/>
			<path d="M51.5,385.8c0.2-0.7,0.5-1.8,0.7-2.6l1.1-0.1c-0.3,0.9-0.7,2.1-1.1,2.7L51.5,385.8L51.5,385.8z"/>
			<path d="M57.9,377.8v1.3h1.4v0.7h-1.4v2.9c0,0.7,0.2,1,0.7,1c0.3,0,0.4,0,0.6-0.1l0,0.7c-0.2,0.1-0.5,0.1-0.9,0.1
				c-0.4,0-0.8-0.2-1-0.4c-0.3-0.3-0.4-0.8-0.4-1.4v-2.9h-0.8v-0.7H57v-1L57.9,377.8L57.9,377.8z"/>
			<path d="M60.4,376.6h1v3.3h0c0.2-0.3,0.4-0.5,0.7-0.7c0.3-0.2,0.6-0.3,1-0.3c0.7,0,1.8,0.4,1.8,2.3v3.1h-1v-3
				c0-0.9-0.3-1.6-1.2-1.6c-0.6,0-1.1,0.4-1.3,1c-0.1,0.1-0.1,0.3-0.1,0.5v3.2h-1L60.4,376.6L60.4,376.6z"/>
			<path d="M67,381.9c0,1.3,0.8,1.8,1.8,1.8c0.7,0,1.1-0.1,1.5-0.3l0.2,0.7c-0.3,0.2-0.9,0.3-1.8,0.3c-1.6,0-2.6-1.1-2.6-2.7
				c0-1.6,0.9-2.8,2.5-2.8c1.7,0,2.2,1.5,2.2,2.5c0,0.2,0,0.3,0,0.4H67z M69.8,381.2c0-0.6-0.3-1.6-1.3-1.6c-1,0-1.4,0.9-1.5,1.6
				H69.8z"/>
			<path d="M74.2,376.6h1v7.8h-1V376.6z"/>
			<path d="M80.5,383.1c0,0.5,0,0.9,0.1,1.3h-0.9l-0.1-0.7h0c-0.3,0.4-0.9,0.8-1.6,0.8c-1.1,0-1.6-0.8-1.6-1.5c0-1.3,1.1-2,3.2-2
				v-0.1c0-0.4-0.1-1.2-1.2-1.2c-0.5,0-1,0.1-1.4,0.4l-0.2-0.6c0.4-0.3,1.1-0.5,1.7-0.5c1.6,0,2,1.1,2,2.2L80.5,383.1L80.5,383.1z
				 M79.6,381.7c-1.1,0-2.2,0.2-2.2,1.2c0,0.6,0.4,0.9,0.9,0.9c0.7,0,1.2-0.4,1.3-0.9c0-0.1,0-0.2,0-0.3L79.6,381.7L79.6,381.7z"/>
			<path d="M82.1,380.5c0-0.6,0-1,0-1.4h0.9l0.1,0.9h0c0.3-0.5,0.9-1,1.7-1c0.7,0,1.9,0.4,1.9,2.3v3.1h-1v-3.1
				c0-0.9-0.3-1.6-1.2-1.6c-0.6,0-1.1,0.4-1.3,1c0,0.1-0.1,0.3-0.1,0.4v3.2h-1L82.1,380.5L82.1,380.5z"/>
			<path d="M92.7,383.6c0,1.2-0.3,2-0.8,2.4c-0.5,0.5-1.3,0.6-1.9,0.6c-0.7,0-1.3-0.2-1.8-0.4l0.2-0.7c0.4,0.2,0.9,0.4,1.5,0.4
				c1,0,1.7-0.5,1.7-1.9v-0.6h0c-0.3,0.5-0.9,0.9-1.7,0.9c-1.3,0-2.3-1.1-2.3-2.6c0-1.8,1.2-2.8,2.4-2.8c0.9,0,1.4,0.5,1.6,0.9h0
				l0-0.8h0.9c0,0.4,0,0.8,0,1.4L92.7,383.6L92.7,383.6z M91.7,381.2c0-0.2,0-0.3-0.1-0.4c-0.2-0.6-0.6-1-1.3-1
				c-0.9,0-1.6,0.8-1.6,2c0,1,0.5,1.9,1.6,1.9c0.6,0,1.1-0.4,1.3-1c0.1-0.2,0.1-0.4,0.1-0.5V381.2z"/>
			<path d="M98.7,383c0,0.6,0,1,0,1.5h-0.9l-0.1-0.9h0c-0.2,0.4-0.8,1-1.7,1c-0.8,0-1.8-0.5-1.8-2.3v-3.1h1v2.9c0,1,0.3,1.7,1.2,1.7
				c0.6,0,1.1-0.4,1.3-0.9c0.1-0.1,0.1-0.3,0.1-0.5v-3.2h1L98.7,383L98.7,383z"/>
			<path d="M104,383.1c0,0.5,0,0.9,0.1,1.3h-0.9l-0.1-0.7h0c-0.3,0.4-0.9,0.8-1.6,0.8c-1.1,0-1.6-0.8-1.6-1.5c0-1.3,1.1-2,3.2-2
				v-0.1c0-0.4-0.1-1.2-1.2-1.2c-0.5,0-1,0.1-1.4,0.4l-0.2-0.6c0.4-0.3,1.1-0.5,1.7-0.5c1.6,0,2,1.1,2,2.2L104,383.1L104,383.1z
				 M103.1,381.7c-1.1,0-2.2,0.2-2.2,1.2c0,0.6,0.4,0.9,0.9,0.9c0.7,0,1.2-0.4,1.3-0.9c0-0.1,0-0.2,0-0.3V381.7L103.1,381.7z"/>
			<path d="M110.1,383.6c0,1.2-0.3,2-0.8,2.4c-0.5,0.5-1.3,0.6-1.9,0.6c-0.7,0-1.3-0.2-1.8-0.4l0.2-0.7c0.4,0.2,0.9,0.4,1.5,0.4
				c1,0,1.7-0.5,1.7-1.9v-0.6h0c-0.3,0.5-0.9,0.9-1.7,0.9c-1.3,0-2.3-1.1-2.3-2.6c0-1.8,1.2-2.8,2.4-2.8c0.9,0,1.4,0.5,1.6,0.9h0
				l0-0.8h0.9c0,0.4,0,0.8,0,1.4L110.1,383.6L110.1,383.6z M109.1,381.2c0-0.2,0-0.3-0.1-0.4c-0.2-0.6-0.6-1-1.3-1
				c-0.9,0-1.6,0.8-1.6,2c0,1,0.5,1.9,1.6,1.9c0.6,0,1.1-0.4,1.3-1c0.1-0.2,0.1-0.4,0.1-0.5L109.1,381.2L109.1,381.2z"/>
			<path d="M112.2,381.9c0,1.3,0.8,1.8,1.8,1.8c0.7,0,1.1-0.1,1.5-0.3l0.2,0.7c-0.3,0.2-0.9,0.3-1.8,0.3c-1.6,0-2.6-1.1-2.6-2.7
				c0-1.6,0.9-2.8,2.5-2.8c1.7,0,2.2,1.5,2.2,2.5c0,0.2,0,0.3,0,0.4H112.2L112.2,381.9z M115,381.2c0-0.6-0.3-1.6-1.3-1.6
				c-1,0-1.4,0.9-1.5,1.6H115z"/>
			<path d="M124.2,381.7c0,2-1.4,2.8-2.6,2.8c-1.4,0-2.5-1.1-2.5-2.7c0-1.8,1.2-2.8,2.6-2.8C123.1,379,124.2,380.1,124.2,381.7
				L124.2,381.7z M120,381.8c0,1.2,0.7,2,1.6,2c0.9,0,1.6-0.9,1.6-2.1c0-0.9-0.4-2-1.6-2C120.5,379.7,120.1,380.8,120,381.8
				L120,381.8z"/>
			<path d="M125.5,384.4v-4.6h-0.7v-0.7h0.7v-0.3c0-0.7,0.2-1.4,0.6-1.8c0.4-0.4,0.8-0.5,1.3-0.5c0.4,0,0.6,0.1,0.8,0.2l-0.1,0.7
				c-0.1-0.1-0.3-0.1-0.6-0.1c-0.8,0-1,0.7-1,1.5v0.3h1.3v0.7h-1.3v4.6L125.5,384.4L125.5,384.4z"/>
			<path d="M0.3,395.3l1.1,3.1c0.1,0.4,0.3,0.8,0.4,1.1h0c0.1-0.3,0.2-0.7,0.3-1.1l1.1-3.1h1L2.8,399c-0.7,1.8-1.2,2.7-1.8,3.3
				c-0.5,0.4-0.9,0.6-1.2,0.6l-0.2-0.8c0.2-0.1,0.6-0.2,0.8-0.5c0.3-0.2,0.6-0.6,0.8-1.1c0-0.1,0.1-0.2,0.1-0.2s0-0.1-0.1-0.3
				l-1.9-4.9L0.3,395.3L0.3,395.3z"/>
			<path d="M9.8,397.9c0,2-1.4,2.8-2.6,2.8c-1.4,0-2.5-1.1-2.5-2.7c0-1.8,1.2-2.8,2.6-2.8S9.8,396.3,9.8,397.9L9.8,397.9z
				 M5.6,397.9c0,1.2,0.7,2,1.6,2s1.6-0.9,1.6-2.1c0-0.9-0.4-2-1.6-2S5.6,396.9,5.6,397.9L5.6,397.9z"/>
			<path d="M15.5,399.1c0,0.6,0,1,0,1.5h-0.9l-0.1-0.9h0c-0.2,0.4-0.8,1-1.7,1c-0.8,0-1.8-0.5-1.8-2.3v-3.1h1v2.9
				c0,1,0.3,1.7,1.2,1.7c0.6,0,1.1-0.4,1.3-0.9c0.1-0.1,0.1-0.3,0.1-0.5v-3.2h1L15.5,399.1L15.5,399.1z"/>
			<path d="M17.1,396.9c0-0.6,0-1.2,0-1.6h0.8l0,1.1h0c0.2-0.7,0.8-1.2,1.5-1.2c0.1,0,0.2,0,0.3,0v0.9c-0.1,0-0.2,0-0.3,0
				c-0.7,0-1.2,0.5-1.3,1.2c0,0.1,0,0.3,0,0.4v2.8h-1L17.1,396.9L17.1,396.9z"/>
			<path d="M22.9,396.7c0-0.6,0-1,0-1.4h0.8l0,0.9h0c0.3-0.5,0.8-1,1.7-1c0.7,0,1.3,0.4,1.5,1.1h0c0.2-0.3,0.4-0.5,0.6-0.7
				c0.3-0.2,0.7-0.4,1.2-0.4c0.7,0,1.7,0.5,1.7,2.3v3.1h-0.9v-3c0-1-0.4-1.6-1.2-1.6c-0.6,0-1,0.4-1.1,0.9c0,0.1-0.1,0.3-0.1,0.5
				v3.3h-0.9v-3.2c0-0.8-0.4-1.4-1.1-1.4c-0.6,0-1,0.5-1.2,1c-0.1,0.1-0.1,0.3-0.1,0.5v3.2h-0.9V396.7L22.9,396.7z"/>
			<path d="M32.6,398.1c0,1.3,0.8,1.8,1.8,1.8c0.7,0,1.1-0.1,1.5-0.3l0.2,0.7c-0.3,0.2-0.9,0.3-1.8,0.3c-1.6,0-2.6-1.1-2.6-2.7
				s0.9-2.8,2.5-2.8c1.7,0,2.2,1.5,2.2,2.5c0,0.2,0,0.3,0,0.4H32.6L32.6,398.1z M35.4,397.4c0-0.6-0.3-1.6-1.3-1.6
				c-1,0-1.4,0.9-1.5,1.6H35.4z"/>
			<path d="M37.5,396.7c0-0.6,0-1,0-1.4h0.9l0.1,0.9h0c0.3-0.5,0.9-1,1.7-1c0.7,0,1.9,0.4,1.9,2.3v3.1h-1v-3.1
				c0-0.9-0.3-1.6-1.2-1.6c-0.6,0-1.1,0.4-1.3,1c0,0.1-0.1,0.3-0.1,0.4v3.2h-1L37.5,396.7L37.5,396.7z"/>
			<path d="M48,399.1c0,0.6,0,1,0,1.5h-0.9l-0.1-0.9h0c-0.2,0.4-0.8,1-1.7,1c-0.8,0-1.8-0.5-1.8-2.3v-3.1h1v2.9c0,1,0.3,1.7,1.2,1.7
				c0.6,0,1.1-0.4,1.3-0.9c0.1-0.1,0.1-0.3,0.1-0.5v-3.2h1L48,399.1L48,399.1z"/>
			<path d="M48.9,401.9c0.2-0.7,0.5-1.8,0.7-2.6l1.1-0.1c-0.3,0.9-0.7,2.1-1.1,2.7L48.9,401.9z"/>
			<path d="M54.5,395.3l1.2,3.1c0.1,0.4,0.3,0.8,0.4,1.1h0c0.1-0.3,0.2-0.7,0.3-1.1l1.1-3.1h1L57,399c-0.7,1.8-1.2,2.7-1.8,3.3
				c-0.5,0.4-0.9,0.6-1.2,0.6l-0.2-0.8c0.2-0.1,0.6-0.2,0.8-0.5c0.3-0.2,0.6-0.6,0.8-1.1c0-0.1,0.1-0.2,0.1-0.2s0-0.1-0.1-0.3
				l-1.9-4.9L54.5,395.3L54.5,395.3z"/>
			<path d="M64,397.9c0,2-1.4,2.8-2.6,2.8c-1.4,0-2.5-1.1-2.5-2.7c0-1.8,1.2-2.8,2.6-2.8C62.9,395.2,64,396.3,64,397.9L64,397.9z
				 M59.8,397.9c0,1.2,0.7,2,1.6,2s1.6-0.9,1.6-2.1c0-0.9-0.4-2-1.6-2S59.8,396.9,59.8,397.9L59.8,397.9z"/>
			<path d="M69.6,399.1c0,0.6,0,1,0,1.5h-0.9l-0.1-0.9h0c-0.2,0.4-0.8,1-1.7,1c-0.8,0-1.8-0.5-1.8-2.3v-3.1h1v2.9
				c0,1,0.3,1.7,1.2,1.7c0.6,0,1.1-0.4,1.3-0.9c0.1-0.1,0.1-0.3,0.1-0.5v-3.2h1L69.6,399.1L69.6,399.1z"/>
			<path d="M71.2,396.9c0-0.6,0-1.2,0-1.6H72l0,1.1h0c0.2-0.7,0.8-1.2,1.5-1.2c0.1,0,0.2,0,0.3,0v0.9c-0.1,0-0.2,0-0.3,0
				c-0.7,0-1.2,0.5-1.3,1.2c0,0.1,0,0.3,0,0.4v2.8h-1V396.9L71.2,396.9z"/>
			<path d="M80.9,400.4c-0.3,0.1-0.8,0.3-1.5,0.3c-1.6,0-2.6-1.1-2.6-2.7c0-1.6,1.1-2.8,2.8-2.8c0.6,0,1.1,0.1,1.3,0.3l-0.2,0.7
				c-0.2-0.1-0.6-0.3-1.1-0.3c-1.2,0-1.9,0.9-1.9,2c0,1.2,0.8,2,1.8,2c0.5,0,0.9-0.1,1.2-0.3L80.9,400.4L80.9,400.4z"/>
			<path d="M86.7,397.9c0,2-1.4,2.8-2.6,2.8c-1.4,0-2.5-1.1-2.5-2.7c0-1.8,1.2-2.8,2.6-2.8S86.7,396.3,86.7,397.9L86.7,397.9z
				 M82.5,397.9c0,1.2,0.7,2,1.6,2s1.6-0.9,1.6-2.1c0-0.9-0.4-2-1.6-2C83,395.9,82.5,396.9,82.5,397.9L82.5,397.9z"/>
			<path d="M92.3,399.1c0,0.6,0,1,0,1.5h-0.9l-0.1-0.9h0c-0.2,0.4-0.8,1-1.7,1c-0.8,0-1.8-0.5-1.8-2.3v-3.1h1v2.9
				c0,1,0.3,1.7,1.2,1.7c0.6,0,1.1-0.4,1.3-0.9c0.1-0.1,0.1-0.3,0.1-0.5v-3.2h1L92.3,399.1L92.3,399.1z"/>
			<path d="M93.9,396.7c0-0.6,0-1,0-1.4h0.9l0.1,0.9h0c0.3-0.5,0.9-1,1.7-1c0.7,0,1.9,0.4,1.9,2.3v3.1h-1v-3.1
				c0-0.9-0.3-1.6-1.2-1.6c-0.6,0-1.1,0.4-1.3,1c0,0.1-0.1,0.3-0.1,0.4v3.2h-1L93.9,396.7L93.9,396.7z"/>
			<path d="M101.1,394v1.3h1.4v0.7h-1.4v2.9c0,0.7,0.2,1,0.7,1c0.3,0,0.4,0,0.6-0.1l0,0.7c-0.2,0.1-0.5,0.1-0.9,0.1
				c-0.4,0-0.8-0.2-1-0.4c-0.3-0.3-0.4-0.8-0.4-1.4V396h-0.8v-0.7h0.8v-1L101.1,394L101.1,394z"/>
			<path d="M103.6,396.9c0-0.6,0-1.2,0-1.6h0.8l0,1.1h0c0.2-0.7,0.8-1.2,1.5-1.2c0.1,0,0.2,0,0.3,0v0.9c-0.1,0-0.2,0-0.3,0
				c-0.7,0-1.2,0.5-1.3,1.2c0,0.1,0,0.3,0,0.4v2.8h-1V396.9L103.6,396.9z"/>
			<path d="M107.8,395.3l1.2,3.1c0.1,0.4,0.3,0.8,0.4,1.1h0c0.1-0.3,0.2-0.7,0.3-1.1l1.1-3.1h1l-1.4,3.8c-0.7,1.8-1.2,2.7-1.8,3.3
				c-0.5,0.4-0.9,0.6-1.2,0.6l-0.2-0.8c0.2-0.1,0.6-0.2,0.8-0.5c0.3-0.2,0.6-0.6,0.8-1.1c0-0.1,0.1-0.2,0.1-0.2s0-0.1-0.1-0.3
				l-1.9-4.9L107.8,395.3L107.8,395.3z"/>
			<path d="M111.5,401.9c0.2-0.7,0.5-1.8,0.7-2.6l1.1-0.1c-0.3,0.9-0.7,2.1-1.1,2.7L111.5,401.9L111.5,401.9z"/>
			<path d="M120.4,399.3c0,0.5,0,0.9,0.1,1.3h-0.9l-0.1-0.7h0c-0.3,0.4-0.9,0.8-1.6,0.8c-1.1,0-1.6-0.8-1.6-1.5c0-1.3,1.1-2,3.2-2
				v-0.1c0-0.4-0.1-1.2-1.2-1.2c-0.5,0-1,0.1-1.4,0.4l-0.2-0.6c0.4-0.3,1.1-0.5,1.7-0.5c1.6,0,2,1.1,2,2.2V399.3z M119.5,397.9
				c-1.1,0-2.2,0.2-2.2,1.2c0,0.6,0.4,0.9,0.9,0.9c0.7,0,1.2-0.4,1.3-0.9c0-0.1,0-0.2,0-0.3V397.9L119.5,397.9z"/>
			<path d="M122,396.7c0-0.6,0-1,0-1.4h0.9l0.1,0.9h0c0.3-0.5,0.9-1,1.7-1c0.7,0,1.9,0.4,1.9,2.3v3.1h-1v-3.1c0-0.9-0.3-1.6-1.2-1.6
				c-0.6,0-1.1,0.4-1.3,1c0,0.1-0.1,0.3-0.1,0.4v3.2h-1V396.7L122,396.7z"/>
			<path d="M132.6,392.8v6.4c0,0.5,0,1,0,1.4h-0.9l0-0.9h0c-0.3,0.6-0.9,1-1.8,1c-1.3,0-2.3-1.1-2.3-2.7c0-1.8,1.1-2.8,2.4-2.8
				c0.8,0,1.4,0.4,1.6,0.8h0v-3.2L132.6,392.8L132.6,392.8z M131.7,397.4c0-0.1,0-0.3,0-0.4c-0.1-0.6-0.7-1.1-1.4-1.1
				c-1,0-1.6,0.9-1.6,2c0,1.1,0.5,2,1.6,2c0.6,0,1.2-0.4,1.4-1.1c0-0.1,0-0.3,0-0.4L131.7,397.4L131.7,397.4z"/>
			<path d="M32.3,411.4l1.1,3.1c0.1,0.4,0.3,0.8,0.4,1.1h0c0.1-0.3,0.2-0.7,0.3-1.1l1.1-3.1h1l-1.4,3.8c-0.7,1.8-1.2,2.7-1.8,3.3
				c-0.5,0.4-0.9,0.6-1.2,0.6l-0.2-0.8c0.2-0.1,0.6-0.2,0.8-0.5c0.3-0.2,0.6-0.6,0.8-1.1c0-0.1,0.1-0.2,0.1-0.2s0-0.1-0.1-0.3
				l-1.9-4.9L32.3,411.4L32.3,411.4z"/>
			<path d="M41.8,414c0,2-1.4,2.8-2.6,2.8c-1.4,0-2.5-1.1-2.5-2.7c0-1.8,1.2-2.8,2.6-2.8C40.7,411.3,41.8,412.4,41.8,414L41.8,414z
				 M37.6,414.1c0,1.2,0.7,2,1.6,2c0.9,0,1.6-0.9,1.6-2.1c0-0.9-0.4-2-1.6-2S37.6,413.1,37.6,414.1L37.6,414.1z"/>
			<path d="M47.4,415.3c0,0.6,0,1,0,1.5h-0.9l-0.1-0.9h0c-0.2,0.4-0.8,1-1.7,1c-0.8,0-1.8-0.5-1.8-2.3v-3.1h1v2.9
				c0,1,0.3,1.7,1.2,1.7c0.6,0,1.1-0.4,1.3-0.9c0.1-0.1,0.1-0.3,0.1-0.5v-3.2h1L47.4,415.3L47.4,415.3z"/>
			<path d="M49,413.1c0-0.6,0-1.2,0-1.6h0.8l0,1.1h0c0.2-0.7,0.8-1.2,1.5-1.2c0.1,0,0.2,0,0.3,0v0.9c-0.1,0-0.2,0-0.3,0
				c-0.7,0-1.2,0.5-1.3,1.2c0,0.1,0,0.3,0,0.4v2.8h-1V413.1L49,413.1z"/>
			<path d="M56.1,410.2v1.3h1.4v0.7h-1.4v2.9c0,0.7,0.2,1,0.7,1c0.3,0,0.4,0,0.6-0.1l0,0.7c-0.2,0.1-0.5,0.1-0.9,0.1
				c-0.4,0-0.8-0.2-1-0.4c-0.3-0.3-0.4-0.8-0.4-1.4v-2.9h-0.8v-0.7h0.8v-1L56.1,410.2L56.1,410.2z"/>
			<path d="M59.6,410c0,0.3-0.2,0.6-0.6,0.6c-0.4,0-0.6-0.3-0.6-0.6c0-0.3,0.2-0.6,0.6-0.6S59.6,409.6,59.6,410L59.6,410z
				 M58.5,416.7v-5.3h1v5.3H58.5z"/>
			<path d="M61.1,412.9c0-0.6,0-1,0-1.4h0.8l0,0.9h0c0.3-0.5,0.8-1,1.7-1c0.7,0,1.3,0.4,1.5,1.1h0c0.2-0.3,0.4-0.5,0.6-0.7
				c0.3-0.2,0.7-0.4,1.2-0.4c0.7,0,1.7,0.5,1.7,2.3v3.1h-0.9v-3c0-1-0.4-1.6-1.2-1.6c-0.6,0-1,0.4-1.1,0.9c0,0.1-0.1,0.3-0.1,0.5
				v3.3h-0.9v-3.2c0-0.8-0.4-1.4-1.1-1.4c-0.6,0-1,0.5-1.2,1c-0.1,0.1-0.1,0.3-0.1,0.5v3.2h-0.9L61.1,412.9L61.1,412.9z"/>
			<path d="M70.7,414.3c0,1.3,0.8,1.8,1.8,1.8c0.7,0,1.1-0.1,1.5-0.3l0.2,0.7c-0.3,0.2-0.9,0.3-1.8,0.3c-1.6,0-2.6-1.1-2.6-2.7
				c0-1.6,0.9-2.8,2.5-2.8c1.7,0,2.2,1.5,2.2,2.5c0,0.2,0,0.3,0,0.4H70.7L70.7,414.3z M73.6,413.6c0-0.6-0.3-1.6-1.3-1.6
				c-1,0-1.4,0.9-1.5,1.6H73.6z"/>
			<path d="M77.4,416.2l2.4-3.1c0.2-0.3,0.5-0.5,0.7-0.8v0h-2.9v-0.8h4v0.6l-2.4,3.1c-0.2,0.3-0.4,0.6-0.7,0.8v0h3.1v0.8h-4.3
				L77.4,416.2L77.4,416.2z"/>
			<path d="M87.4,414c0,2-1.4,2.8-2.6,2.8c-1.4,0-2.5-1.1-2.5-2.7c0-1.8,1.2-2.8,2.6-2.8C86.3,411.3,87.4,412.4,87.4,414L87.4,414z
				 M83.2,414.1c0,1.2,0.7,2,1.6,2c0.9,0,1.6-0.9,1.6-2.1c0-0.9-0.4-2-1.6-2C83.7,412.1,83.2,413.1,83.2,414.1L83.2,414.1z"/>
			<path d="M88.6,412.9c0-0.6,0-1,0-1.4h0.9l0.1,0.9h0c0.3-0.5,0.9-1,1.7-1c0.7,0,1.9,0.4,1.9,2.3v3.1h-1v-3.1
				c0-0.9-0.3-1.6-1.2-1.6c-0.6,0-1.1,0.4-1.3,1c0,0.1-0.1,0.3-0.1,0.4v3.2h-1L88.6,412.9L88.6,412.9z"/>
			<path d="M95.2,414.3c0,1.3,0.8,1.8,1.8,1.8c0.7,0,1.1-0.1,1.5-0.3l0.2,0.7c-0.3,0.2-0.9,0.3-1.8,0.3c-1.6,0-2.6-1.1-2.6-2.7
				c0-1.6,0.9-2.8,2.5-2.8c1.7,0,2.2,1.5,2.2,2.5c0,0.2,0,0.3,0,0.4H95.2z M98,413.6c0-0.6-0.3-1.6-1.3-1.6c-1,0-1.4,0.9-1.5,1.6H98
				z"/>
			<path d="M99.8,416.2c0-0.4,0.3-0.7,0.7-0.7c0.4,0,0.6,0.3,0.6,0.7s-0.3,0.7-0.7,0.7C100,416.8,99.8,416.6,99.8,416.2L99.8,416.2z
				"/>
		</g>
		<g>
			<path class="st3" d="M66.9,39.5c-9.3,0-16.9-7.6-16.9-16.9S57.6,5.6,66.9,5.6s16.9,7.6,16.9,16.9S76.3,39.5,66.9,39.5z M66.9,8.5
				c-7.8,0-14.1,6.3-14.1,14.1s6.3,14.1,14.1,14.1S81,30.3,81,22.6S74.7,8.5,66.9,8.5z"/>
			<path class="st4" d="M65.1,17.6L65.1,17.6l-3.3,1.5l-0.7-3l4.5-2.1h3.3v17h-3.8L65.1,17.6L65.1,17.6z"/>
		</g>
		<g>
			<g>
				<defs>
					<rect id="SVGID_00000120526050189472414530000017670914305309895810_" x="185.7" y="71.1" width="123.7" height="274.1"/>
				</defs>
				<clipPath id="SVGID_00000065064731568243544780000011288522073823062679_">
					<use xlink:href="#SVGID_00000120526050189472414530000017670914305309895810_"  style="overflow:visible;"/>
				</clipPath>
				<g style="clip-path:url(#SVGID_00000065064731568243544780000011288522073823062679_);">
					
						<image style="overflow:visible;enable-background:new    ;" width="886" height="1872" xlink:href="E86D447F6B30C81B.png"  transform="matrix(0.1521 0 0 0.1521 179.5022 67.6175)">
					</image>
				</g>
			</g>
		</g>
		<g>
			<path d="M201.3,57.5c-0.4,0.2-1.3,0.4-2.3,0.4c-1.1,0-2-0.3-2.8-1c-0.6-0.6-1-1.6-1-2.7c0-2.2,1.5-3.8,4-3.8
				c0.9,0,1.5,0.2,1.8,0.3l-0.2,0.8c-0.4-0.2-0.9-0.3-1.6-0.3c-1.8,0-3,1.1-3,3c0,1.8,1.1,3,2.8,3c0.6,0,1.1-0.1,1.3-0.2v-2.2h-1.5
				V54h2.4L201.3,57.5L201.3,57.5z"/>
			<path d="M203.3,55.4c0,1.3,0.8,1.8,1.8,1.8c0.7,0,1.1-0.1,1.5-0.3l0.2,0.7c-0.3,0.2-0.9,0.3-1.8,0.3c-1.6,0-2.6-1.1-2.6-2.7
				c0-1.6,0.9-2.8,2.5-2.8c1.7,0,2.2,1.5,2.2,2.5c0,0.2,0,0.3,0,0.4L203.3,55.4L203.3,55.4z M206.1,54.7c0-0.6-0.3-1.6-1.3-1.6
				c-1,0-1.4,0.9-1.5,1.6H206.1L206.1,54.7z"/>
			<path d="M208.2,54c0-0.6,0-1,0-1.4h0.9l0.1,0.9h0c0.3-0.5,0.9-1,1.7-1c0.7,0,1.9,0.4,1.9,2.3v3.1h-1v-3.1c0-0.9-0.3-1.6-1.2-1.6
				c-0.6,0-1.1,0.4-1.3,1c0,0.1-0.1,0.3-0.1,0.4v3.2h-1V54L208.2,54z"/>
			<path d="M214.8,55.4c0,1.3,0.8,1.8,1.8,1.8c0.7,0,1.1-0.1,1.5-0.3l0.2,0.7c-0.3,0.2-0.9,0.3-1.8,0.3c-1.6,0-2.6-1.1-2.6-2.7
				c0-1.6,0.9-2.8,2.5-2.8c1.7,0,2.2,1.5,2.2,2.5c0,0.2,0,0.3,0,0.4L214.8,55.4L214.8,55.4z M217.6,54.7c0-0.6-0.3-1.6-1.3-1.6
				c-1,0-1.4,0.9-1.5,1.6H217.6z"/>
			<path d="M219.8,54.2c0-0.6,0-1.2,0-1.6h0.8l0,1.1h0c0.2-0.7,0.8-1.2,1.5-1.2c0.1,0,0.2,0,0.3,0v0.9c-0.1,0-0.2,0-0.3,0
				c-0.7,0-1.2,0.5-1.3,1.2c0,0.1,0,0.3,0,0.4v2.8h-1V54.2z"/>
			<path d="M227,56.6c0,0.5,0,0.9,0.1,1.3h-0.9l-0.1-0.7h0c-0.3,0.4-0.9,0.8-1.6,0.8c-1.1,0-1.6-0.8-1.6-1.5c0-1.3,1.1-2,3.2-2v-0.1
				c0-0.4-0.1-1.2-1.2-1.2c-0.5,0-1,0.1-1.4,0.4l-0.2-0.6c0.4-0.3,1.1-0.5,1.7-0.5c1.6,0,2,1.1,2,2.2C227,54.6,227,56.6,227,56.6z
				 M226.1,55.2c-1.1,0-2.2,0.2-2.2,1.2c0,0.6,0.4,0.9,0.9,0.9c0.7,0,1.1-0.4,1.3-0.9c0-0.1,0-0.2,0-0.3L226.1,55.2L226.1,55.2z"/>
			<path d="M229.7,51.3v1.3h1.4v0.7h-1.4v2.9c0,0.7,0.2,1,0.7,1c0.3,0,0.4,0,0.6-0.1l0,0.7c-0.2,0.1-0.5,0.1-0.9,0.1
				c-0.4,0-0.8-0.2-1-0.4c-0.3-0.3-0.4-0.8-0.4-1.4v-2.9h-0.8v-0.7h0.8v-1C228.7,51.6,229.7,51.3,229.7,51.3z"/>
			<path d="M232.6,55.4c0,1.3,0.8,1.8,1.8,1.8c0.7,0,1.1-0.1,1.5-0.3l0.2,0.7c-0.3,0.2-0.9,0.3-1.8,0.3c-1.6,0-2.6-1.1-2.6-2.7
				c0-1.6,0.9-2.8,2.5-2.8c1.7,0,2.2,1.5,2.2,2.5c0,0.2,0,0.3,0,0.4L232.6,55.4L232.6,55.4z M235.4,54.7c0-0.6-0.3-1.6-1.3-1.6
				c-1,0-1.4,0.9-1.5,1.6H235.4L235.4,54.7z"/>
			<path d="M240.2,52.6l1.2,3.1c0.1,0.4,0.3,0.8,0.4,1.1h0c0.1-0.3,0.2-0.7,0.3-1.1l1.1-3.1h1l-1.4,3.8c-0.7,1.8-1.2,2.7-1.8,3.3
				c-0.5,0.4-0.9,0.6-1.2,0.6l-0.2-0.8c0.2-0.1,0.6-0.2,0.8-0.5c0.3-0.2,0.6-0.6,0.8-1.1c0-0.1,0.1-0.2,0.1-0.2s0-0.1-0.1-0.3
				l-1.9-4.9L240.2,52.6L240.2,52.6z"/>
			<path d="M249.7,55.2c0,2-1.4,2.8-2.6,2.8c-1.4,0-2.5-1.1-2.5-2.7c0-1.8,1.2-2.8,2.6-2.8S249.7,53.6,249.7,55.2L249.7,55.2z
				 M245.5,55.2c0,1.2,0.7,2,1.6,2c0.9,0,1.6-0.9,1.6-2.1c0-0.9-0.4-2-1.6-2C246,53.2,245.5,54.2,245.5,55.2L245.5,55.2z"/>
			<path d="M255.3,56.4c0,0.6,0,1,0,1.5h-0.9l-0.1-0.9h0c-0.2,0.4-0.8,1-1.7,1c-0.8,0-1.8-0.5-1.8-2.3v-3.1h1v2.9
				c0,1,0.3,1.7,1.2,1.7c0.6,0,1.1-0.4,1.3-0.9c0.1-0.1,0.1-0.3,0.1-0.5v-3.2h1L255.3,56.4L255.3,56.4z"/>
			<path d="M256.9,54.2c0-0.6,0-1.2,0-1.6h0.8l0,1.1h0c0.2-0.7,0.8-1.2,1.5-1.2c0.1,0,0.2,0,0.3,0v0.9c-0.1,0-0.2,0-0.3,0
				c-0.7,0-1.2,0.5-1.3,1.2c0,0.1,0,0.3,0,0.4v2.8h-1L256.9,54.2L256.9,54.2z"/>
			<path d="M268.9,58.9c-1-0.3-2-0.6-2.8-0.9c-0.2-0.1-0.3-0.1-0.4-0.1c-1.8-0.1-3.2-1.4-3.2-3.7s1.4-3.9,3.4-3.9
				c2,0,3.3,1.6,3.3,3.7c0,1.9-0.9,3.1-2.1,3.5v0c0.7,0.2,1.5,0.4,2.2,0.5L268.9,58.9L268.9,58.9z M268.1,54.2c0-1.5-0.8-3-2.3-3
				s-2.4,1.5-2.4,3.1c0,1.6,0.9,3,2.4,3S268.1,55.8,268.1,54.2L268.1,54.2z"/>
			<path d="M270.4,50.6c0.5-0.1,1.2-0.2,1.8-0.2c1,0,1.7,0.2,2.1,0.6c0.4,0.3,0.6,0.8,0.6,1.4c0,1-0.6,1.6-1.4,1.9v0
				c0.6,0.2,0.9,0.7,1.1,1.5c0.2,1,0.4,1.7,0.6,2h-1c-0.1-0.2-0.3-0.8-0.5-1.8c-0.2-1-0.6-1.4-1.5-1.4h-0.9v3.2h-1L270.4,50.6
				L270.4,50.6z M271.3,54h1c1,0,1.7-0.6,1.7-1.4c0-1-0.7-1.4-1.7-1.4c-0.5,0-0.8,0-0.9,0.1L271.3,54L271.3,54z"/>
			<path d="M282.3,57.7c-0.3,0.1-0.8,0.3-1.5,0.3c-1.6,0-2.6-1.1-2.6-2.7s1.1-2.8,2.8-2.8c0.6,0,1.1,0.1,1.3,0.3l-0.2,0.7
				c-0.2-0.1-0.6-0.3-1.1-0.3c-1.2,0-1.9,0.9-1.9,2c0,1.2,0.8,2,1.8,2c0.5,0,0.9-0.1,1.2-0.3L282.3,57.7L282.3,57.7z"/>
			<path d="M288.2,55.2c0,2-1.4,2.8-2.6,2.8c-1.4,0-2.5-1.1-2.5-2.7c0-1.8,1.2-2.8,2.6-2.8S288.2,53.6,288.2,55.2L288.2,55.2z
				 M284,55.2c0,1.2,0.7,2,1.6,2s1.6-0.9,1.6-2.1c0-0.9-0.4-2-1.6-2S284,54.2,284,55.2L284,55.2z"/>
			<path d="M293.9,50.1v6.4c0,0.5,0,1,0,1.4h-0.9l0-0.9h0c-0.3,0.6-0.9,1-1.8,1c-1.3,0-2.3-1.1-2.3-2.7c0-1.8,1.1-2.8,2.4-2.8
				c0.8,0,1.4,0.4,1.6,0.8h0v-3.2L293.9,50.1L293.9,50.1z M293,54.7c0-0.1,0-0.3,0-0.4c-0.1-0.6-0.7-1.1-1.4-1.1c-1,0-1.6,0.9-1.6,2
				c0,1.1,0.5,2,1.6,2c0.6,0,1.2-0.4,1.4-1.1c0-0.1,0-0.3,0-0.4L293,54.7L293,54.7z"/>
			<path d="M296.1,55.4c0,1.3,0.8,1.8,1.8,1.8c0.7,0,1.1-0.1,1.5-0.3l0.2,0.7c-0.3,0.2-0.9,0.3-1.8,0.3c-1.6,0-2.6-1.1-2.6-2.7
				c0-1.6,0.9-2.8,2.5-2.8c1.7,0,2.2,1.5,2.2,2.5c0,0.2,0,0.3,0,0.4L296.1,55.4L296.1,55.4z M298.9,54.7c0-0.6-0.3-1.6-1.3-1.6
				c-1,0-1.4,0.9-1.5,1.6H298.9z"/>
		</g>
		<g>
			<path d="M185.5,368c-0.3,0.2-1.1,0.4-1.9,0.4c-2.1,0-3.6-1.3-3.6-3.7c0-2.4,1.6-3.9,3.8-3.9c0.9,0,1.5,0.2,1.7,0.3l-0.2,0.8
				c-0.4-0.2-0.9-0.3-1.5-0.3c-1.7,0-2.9,1.1-2.9,3c0,1.8,1,3,2.8,3c0.6,0,1.2-0.1,1.6-0.3L185.5,368L185.5,368z"/>
			<path d="M186.7,360.5h1v3.3h0c0.2-0.3,0.4-0.5,0.7-0.7c0.3-0.2,0.6-0.3,1-0.3c0.7,0,1.8,0.4,1.8,2.3v3.1h-1v-3
				c0-0.9-0.3-1.6-1.2-1.6c-0.6,0-1.1,0.4-1.3,1c-0.1,0.1-0.1,0.3-0.1,0.5v3.2h-1L186.7,360.5L186.7,360.5z"/>
			<path d="M197.5,365.6c0,2-1.4,2.8-2.6,2.8c-1.4,0-2.5-1.1-2.5-2.7c0-1.8,1.2-2.8,2.6-2.8S197.6,363.9,197.5,365.6L197.5,365.6z
				 M193.4,365.6c0,1.2,0.7,2,1.6,2s1.6-0.9,1.6-2.1c0-0.9-0.4-2-1.6-2C193.8,363.6,193.4,364.6,193.4,365.6L193.4,365.6z"/>
			<path d="M203.5,365.6c0,2-1.4,2.8-2.6,2.8c-1.4,0-2.5-1.1-2.5-2.7c0-1.8,1.2-2.8,2.6-2.8S203.6,363.9,203.5,365.6L203.5,365.6z
				 M199.4,365.6c0,1.2,0.7,2,1.6,2s1.6-0.9,1.6-2.1c0-0.9-0.4-2-1.6-2S199.4,364.6,199.4,365.6L199.4,365.6z"/>
			<path d="M204.6,367.3c0.3,0.2,0.8,0.4,1.3,0.4c0.7,0,1-0.3,1-0.8c0-0.5-0.3-0.7-1-1c-1-0.4-1.4-0.9-1.4-1.5
				c0-0.9,0.7-1.6,1.8-1.6c0.5,0,1,0.1,1.3,0.3l-0.2,0.7c-0.2-0.1-0.6-0.3-1.1-0.3c-0.6,0-0.9,0.3-0.9,0.7c0,0.4,0.3,0.6,1,0.9
				c0.9,0.3,1.4,0.8,1.4,1.6c0,0.9-0.7,1.6-2,1.6c-0.6,0-1.1-0.2-1.5-0.4L204.6,367.3L204.6,367.3z"/>
			<path d="M209.6,365.8c0,1.3,0.8,1.8,1.8,1.8c0.7,0,1.1-0.1,1.5-0.3l0.2,0.7c-0.3,0.2-0.9,0.3-1.8,0.3c-1.6,0-2.6-1.1-2.6-2.7
				s0.9-2.8,2.5-2.8c1.7,0,2.2,1.5,2.2,2.5c0,0.2,0,0.3,0,0.4H209.6L209.6,365.8z M212.4,365.1c0-0.6-0.3-1.6-1.3-1.6
				c-1,0-1.4,0.9-1.5,1.6H212.4z"/>
			<path d="M220.6,367c0,0.5,0,0.9,0.1,1.3h-0.9l-0.1-0.7h0c-0.3,0.4-0.9,0.8-1.6,0.8c-1.1,0-1.6-0.8-1.6-1.5c0-1.3,1.1-2,3.2-2
				v-0.1c0-0.4-0.1-1.2-1.2-1.2c-0.5,0-1,0.1-1.4,0.4l-0.2-0.6c0.4-0.3,1.1-0.5,1.7-0.5c1.6,0,2,1.1,2,2.2V367z M219.7,365.5
				c-1.1,0-2.2,0.2-2.2,1.2c0,0.6,0.4,0.9,0.9,0.9c0.7,0,1.1-0.4,1.3-0.9c0-0.1,0-0.2,0-0.3L219.7,365.5L219.7,365.5z"/>
			<path d="M224.5,364.7c0-0.7,0-1.2,0-1.7h0.9l0.1,0.9h0c0.4-0.6,1-1,1.9-1c1.3,0,2.3,1.1,2.3,2.7c0,1.9-1.2,2.8-2.4,2.8
				c-0.7,0-1.3-0.3-1.6-0.8h0v2.9h-1V364.7L224.5,364.7z M225.4,366.1c0,0.1,0,0.3,0,0.4c0.2,0.7,0.8,1.1,1.4,1.1c1,0,1.6-0.8,1.6-2
				c0-1.1-0.6-2-1.6-2c-0.7,0-1.3,0.5-1.5,1.2c0,0.1-0.1,0.3-0.1,0.4V366.1L225.4,366.1z"/>
			<path d="M230.7,364.6c0-0.6,0-1.2,0-1.6h0.8l0,1.1h0c0.2-0.7,0.8-1.2,1.5-1.2c0.1,0,0.2,0,0.3,0v0.9c-0.1,0-0.2,0-0.3,0
				c-0.7,0-1.2,0.5-1.3,1.2c0,0.1,0,0.3,0,0.4v2.8h-1L230.7,364.6L230.7,364.6z"/>
			<path d="M234.7,365.8c0,1.3,0.8,1.8,1.8,1.8c0.7,0,1.1-0.1,1.5-0.3l0.2,0.7c-0.3,0.2-0.9,0.3-1.8,0.3c-1.6,0-2.6-1.1-2.6-2.7
				s0.9-2.8,2.5-2.8c1.7,0,2.2,1.5,2.2,2.5c0,0.2,0,0.3,0,0.4H234.7L234.7,365.8z M237.5,365.1c0-0.6-0.3-1.6-1.3-1.6
				c-1,0-1.4,0.9-1.5,1.6H237.5z"/>
			<path d="M239.7,368.2v-4.6H239V363h0.7v-0.3c0-0.7,0.2-1.4,0.6-1.8c0.4-0.4,0.8-0.5,1.3-0.5c0.4,0,0.6,0.1,0.8,0.2l-0.1,0.7
				c-0.1-0.1-0.3-0.1-0.6-0.1c-0.8,0-1,0.7-1,1.5v0.3h1.3v0.7h-1.3v4.6L239.7,368.2L239.7,368.2z"/>
			<path d="M243.2,365.8c0,1.3,0.8,1.8,1.8,1.8c0.7,0,1.1-0.1,1.5-0.3l0.2,0.7c-0.3,0.2-0.9,0.3-1.8,0.3c-1.6,0-2.6-1.1-2.6-2.7
				s0.9-2.8,2.5-2.8c1.7,0,2.2,1.5,2.2,2.5c0,0.2,0,0.3,0,0.4H243.2L243.2,365.8z M246,365.1c0-0.6-0.3-1.6-1.3-1.6
				c-1,0-1.4,0.9-1.5,1.6H246z"/>
			<path d="M248.2,364.6c0-0.6,0-1.2,0-1.6h0.8l0,1.1h0c0.2-0.7,0.8-1.2,1.5-1.2c0.1,0,0.2,0,0.3,0v0.9c-0.1,0-0.2,0-0.3,0
				c-0.7,0-1.2,0.5-1.3,1.2c0,0.1,0,0.3,0,0.4v2.8h-1L248.2,364.6L248.2,364.6z"/>
			<path d="M251.8,364.6c0-0.6,0-1.2,0-1.6h0.8l0,1.1h0c0.2-0.7,0.8-1.2,1.5-1.2c0.1,0,0.2,0,0.3,0v0.9c-0.1,0-0.2,0-0.3,0
				c-0.7,0-1.2,0.5-1.3,1.2c0,0.1,0,0.3,0,0.4v2.8h-1L251.8,364.6L251.8,364.6z"/>
			<path d="M255.8,365.8c0,1.3,0.8,1.8,1.8,1.8c0.7,0,1.1-0.1,1.5-0.3l0.2,0.7c-0.3,0.2-0.9,0.3-1.8,0.3c-1.6,0-2.6-1.1-2.6-2.7
				s0.9-2.8,2.5-2.8c1.7,0,2.2,1.5,2.2,2.5c0,0.2,0,0.3,0,0.4H255.8z M258.6,365.1c0-0.6-0.3-1.6-1.3-1.6c-1,0-1.4,0.9-1.5,1.6
				H258.6z"/>
			<path d="M265.3,360.5v6.4c0,0.5,0,1,0,1.4h-0.9l0-0.9h0c-0.3,0.6-0.9,1-1.8,1c-1.3,0-2.3-1.1-2.3-2.7c0-1.8,1.1-2.8,2.4-2.8
				c0.8,0,1.4,0.4,1.6,0.8h0v-3.2L265.3,360.5L265.3,360.5z M264.3,365.1c0-0.1,0-0.3,0-0.4c-0.1-0.6-0.7-1.1-1.4-1.1
				c-1,0-1.6,0.9-1.6,2c0,1.1,0.5,2,1.6,2c0.6,0,1.2-0.4,1.4-1.1c0-0.1,0-0.3,0-0.4L264.3,365.1L264.3,365.1z"/>
			<path d="M273,368.1c-0.3,0.1-0.8,0.3-1.5,0.3c-1.6,0-2.6-1.1-2.6-2.7c0-1.6,1.1-2.8,2.8-2.8c0.6,0,1.1,0.1,1.3,0.3l-0.2,0.7
				c-0.2-0.1-0.6-0.3-1.1-0.3c-1.2,0-1.9,0.9-1.9,2c0,1.2,0.8,2,1.8,2c0.5,0,0.9-0.1,1.2-0.3L273,368.1L273,368.1z"/>
			<path d="M278.8,365.6c0,2-1.4,2.8-2.6,2.8c-1.4,0-2.5-1.1-2.5-2.7c0-1.8,1.2-2.8,2.6-2.8S278.8,363.9,278.8,365.6L278.8,365.6z
				 M274.6,365.6c0,1.2,0.7,2,1.6,2s1.6-0.9,1.6-2.1c0-0.9-0.4-2-1.6-2C275.1,363.6,274.6,364.6,274.6,365.6L274.6,365.6z"/>
			<path d="M280,360.5h1v7.8h-1V360.5z"/>
			<path d="M287.4,365.6c0,2-1.4,2.8-2.6,2.8c-1.4,0-2.5-1.1-2.5-2.7c0-1.8,1.2-2.8,2.6-2.8S287.4,363.9,287.4,365.6L287.4,365.6z
				 M283.2,365.6c0,1.2,0.7,2,1.6,2c0.9,0,1.6-0.9,1.6-2.1c0-0.9-0.4-2-1.6-2S283.2,364.6,283.2,365.6L283.2,365.6z"/>
			<path d="M288.6,364.6c0-0.6,0-1.2,0-1.6h0.8l0,1.1h0c0.2-0.7,0.8-1.2,1.5-1.2c0.1,0,0.2,0,0.3,0v0.9c-0.1,0-0.2,0-0.3,0
				c-0.7,0-1.2,0.5-1.3,1.2c0,0.1,0,0.3,0,0.4v2.8h-1L288.6,364.6L288.6,364.6z"/>
			<path d="M294.6,368.2v-4.6h-0.7V363h0.7v-0.3c0-0.7,0.2-1.4,0.6-1.8c0.4-0.4,0.8-0.5,1.3-0.5c0.4,0,0.6,0.1,0.8,0.2l-0.1,0.7
				c-0.1-0.1-0.3-0.1-0.6-0.1c-0.8,0-1,0.7-1,1.5v0.3h1.3v0.7h-1.3v4.6L294.6,368.2L294.6,368.2z"/>
			<path d="M297.7,364.6c0-0.6,0-1.2,0-1.6h0.8l0,1.1h0c0.2-0.7,0.8-1.2,1.5-1.2c0.1,0,0.2,0,0.3,0v0.9c-0.1,0-0.2,0-0.3,0
				c-0.7,0-1.2,0.5-1.3,1.2c0,0.1,0,0.3,0,0.4v2.8h-1L297.7,364.6L297.7,364.6z"/>
			<path d="M306,365.6c0,2-1.4,2.8-2.6,2.8c-1.4,0-2.5-1.1-2.5-2.7c0-1.8,1.2-2.8,2.6-2.8S306,363.9,306,365.6L306,365.6z
				 M301.8,365.6c0,1.2,0.7,2,1.6,2s1.6-0.9,1.6-2.1c0-0.9-0.4-2-1.6-2C302.3,363.6,301.8,364.6,301.8,365.6L301.8,365.6z"/>
			<path d="M307.2,364.4c0-0.6,0-1,0-1.4h0.8l0,0.9h0c0.3-0.5,0.8-1,1.7-1c0.7,0,1.3,0.4,1.5,1.1h0c0.2-0.3,0.4-0.5,0.6-0.7
				c0.3-0.2,0.7-0.4,1.2-0.4c0.7,0,1.7,0.5,1.7,2.3v3.1h-0.9v-3c0-1-0.4-1.6-1.1-1.6c-0.6,0-1,0.4-1.2,0.9c0,0.1-0.1,0.3-0.1,0.5
				v3.3h-0.9v-3.2c0-0.8-0.4-1.4-1.1-1.4c-0.6,0-1,0.5-1.2,1c-0.1,0.1-0.1,0.3-0.1,0.5v3.2h-0.9L307.2,364.4L307.2,364.4z"/>
			<path d="M180.3,377.8v1.3h1.4v0.7h-1.4v2.9c0,0.7,0.2,1,0.7,1c0.3,0,0.4,0,0.6-0.1l0,0.7c-0.2,0.1-0.5,0.1-0.9,0.1
				c-0.4,0-0.8-0.2-1-0.4c-0.3-0.3-0.4-0.8-0.4-1.4v-2.9h-0.8v-0.7h0.8v-1L180.3,377.8L180.3,377.8z"/>
			<path d="M182.8,376.6h1v3.3h0c0.2-0.3,0.4-0.5,0.7-0.7c0.3-0.2,0.6-0.3,1-0.3c0.7,0,1.8,0.4,1.8,2.3v3.1h-1v-3
				c0-0.9-0.3-1.6-1.2-1.6c-0.6,0-1.1,0.4-1.3,1c-0.1,0.1-0.1,0.3-0.1,0.5v3.2h-1L182.8,376.6L182.8,376.6z"/>
			<path d="M189.4,381.9c0,1.3,0.8,1.8,1.8,1.8c0.7,0,1.1-0.1,1.5-0.3l0.2,0.7c-0.3,0.2-0.9,0.3-1.8,0.3c-1.6,0-2.6-1.1-2.6-2.7
				c0-1.6,0.9-2.8,2.5-2.8c1.7,0,2.2,1.5,2.2,2.5c0,0.2,0,0.3,0,0.4H189.4L189.4,381.9z M192.2,381.2c0-0.6-0.3-1.6-1.3-1.6
				c-1,0-1.4,0.9-1.5,1.6H192.2z"/>
			<path d="M201.5,381.7c0,2-1.4,2.8-2.6,2.8c-1.4,0-2.5-1.1-2.5-2.7c0-1.8,1.2-2.8,2.6-2.8S201.5,380.1,201.5,381.7L201.5,381.7z
				 M197.3,381.8c0,1.2,0.7,2,1.6,2s1.6-0.9,1.6-2.1c0-0.9-0.4-2-1.6-2S197.3,380.8,197.3,381.8L197.3,381.8z"/>
			<path d="M202.7,380.8c0-0.7,0-1.2,0-1.7h0.9l0.1,0.9h0c0.4-0.6,1-1,1.9-1c1.3,0,2.3,1.1,2.3,2.7c0,1.9-1.2,2.8-2.4,2.8
				c-0.7,0-1.3-0.3-1.6-0.8h0v2.9h-1V380.8L202.7,380.8z M203.6,382.3c0,0.1,0,0.3,0,0.4c0.2,0.7,0.8,1.1,1.4,1.1c1,0,1.6-0.8,1.6-2
				c0-1.1-0.6-2-1.6-2c-0.7,0-1.3,0.5-1.5,1.2c0,0.1-0.1,0.3-0.1,0.4V382.3L203.6,382.3z"/>
			<path d="M210,377.8v1.3h1.4v0.7H210v2.9c0,0.7,0.2,1,0.7,1c0.3,0,0.4,0,0.6-0.1l0,0.7c-0.2,0.1-0.5,0.1-0.9,0.1
				c-0.4,0-0.8-0.2-1-0.4c-0.3-0.3-0.4-0.8-0.4-1.4v-2.9h-0.8v-0.7h0.8v-1L210,377.8z"/>
			<path d="M213.6,377.6c0,0.3-0.2,0.6-0.6,0.6c-0.4,0-0.6-0.3-0.6-0.6c0-0.3,0.2-0.6,0.6-0.6C213.3,377,213.6,377.3,213.6,377.6
				L213.6,377.6z M212.5,384.4v-5.3h1v5.3H212.5z"/>
			<path d="M219.9,381.7c0,2-1.4,2.8-2.6,2.8c-1.4,0-2.5-1.1-2.5-2.7c0-1.8,1.2-2.8,2.6-2.8S219.9,380.1,219.9,381.7L219.9,381.7z
				 M215.7,381.8c0,1.2,0.7,2,1.6,2c0.9,0,1.6-0.9,1.6-2.1c0-0.9-0.4-2-1.6-2C216.1,379.7,215.7,380.8,215.7,381.8L215.7,381.8z"/>
			<path d="M221.1,380.5c0-0.6,0-1,0-1.4h0.9l0.1,0.9h0c0.3-0.5,0.9-1,1.7-1c0.7,0,1.9,0.4,1.9,2.3v3.1h-1v-3.1
				c0-0.9-0.3-1.6-1.2-1.6c-0.6,0-1.1,0.4-1.3,1c0,0.1-0.1,0.3-0.1,0.4v3.2h-1L221.1,380.5L221.1,380.5z"/>
			<path d="M227,383.4c0.3,0.2,0.8,0.4,1.3,0.4c0.7,0,1-0.3,1-0.8s-0.3-0.7-1-1c-1-0.4-1.4-0.9-1.4-1.5c0-0.9,0.7-1.6,1.8-1.6
				c0.5,0,1,0.1,1.3,0.3l-0.2,0.7c-0.2-0.1-0.6-0.3-1.1-0.3c-0.6,0-0.9,0.3-0.9,0.7c0,0.4,0.3,0.6,1,0.9c0.9,0.3,1.4,0.8,1.4,1.6
				c0,0.9-0.7,1.6-2,1.6c-0.6,0-1.1-0.2-1.5-0.4L227,383.4L227,383.4z"/>
			<path d="M237.5,383.1c0,0.5,0,0.9,0.1,1.3h-0.9l-0.1-0.7h0c-0.3,0.4-0.9,0.8-1.6,0.8c-1.1,0-1.6-0.8-1.6-1.5c0-1.3,1.1-2,3.2-2
				v-0.1c0-0.4-0.1-1.2-1.2-1.2c-0.5,0-1,0.1-1.4,0.4l-0.2-0.6c0.4-0.3,1.1-0.5,1.7-0.5c1.6,0,2,1.1,2,2.2V383.1z M236.6,381.7
				c-1.1,0-2.2,0.2-2.2,1.2c0,0.6,0.4,0.9,0.9,0.9c0.7,0,1.1-0.4,1.3-0.9c0-0.1,0-0.2,0-0.3V381.7L236.6,381.7z"/>
			<path d="M239,380.5c0-0.6,0-1,0-1.4h0.9l0.1,0.9h0c0.3-0.5,0.9-1,1.7-1c0.7,0,1.9,0.4,1.9,2.3v3.1h-1v-3.1c0-0.9-0.3-1.6-1.2-1.6
				c-0.6,0-1.1,0.4-1.3,1c0,0.1-0.1,0.3-0.1,0.4v3.2h-1L239,380.5L239,380.5z"/>
			<path d="M249.7,376.6v6.4c0,0.5,0,1,0,1.4h-0.9l0-0.9h0c-0.3,0.6-0.9,1-1.8,1c-1.3,0-2.3-1.1-2.3-2.7c0-1.8,1.1-2.8,2.4-2.8
				c0.8,0,1.4,0.4,1.6,0.8h0v-3.2L249.7,376.6L249.7,376.6z M248.7,381.3c0-0.1,0-0.3,0-0.4c-0.1-0.6-0.7-1.1-1.4-1.1
				c-1,0-1.6,0.9-1.6,2c0,1.1,0.5,2,1.6,2c0.6,0,1.2-0.4,1.4-1.1c0-0.1,0-0.3,0-0.4L248.7,381.3L248.7,381.3z"/>
			<path d="M258.1,383.6c0,1.2-0.3,2-0.8,2.4c-0.5,0.5-1.3,0.6-1.9,0.6s-1.3-0.2-1.8-0.4l0.2-0.7c0.4,0.2,0.9,0.4,1.6,0.4
				c1,0,1.7-0.5,1.7-1.9v-0.6h0c-0.3,0.5-0.9,0.9-1.7,0.9c-1.3,0-2.3-1.1-2.3-2.6c0-1.8,1.2-2.8,2.4-2.8c0.9,0,1.4,0.5,1.6,0.9h0
				l0-0.8h0.9c0,0.4,0,0.8,0,1.4L258.1,383.6L258.1,383.6z M257.2,381.2c0-0.2,0-0.3-0.1-0.4c-0.2-0.6-0.6-1-1.3-1
				c-0.9,0-1.6,0.8-1.6,2c0,1,0.5,1.9,1.6,1.9c0.6,0,1.1-0.4,1.3-1c0.1-0.2,0.1-0.4,0.1-0.5L257.2,381.2L257.2,381.2z"/>
			<path d="M260.2,381.9c0,1.3,0.8,1.8,1.8,1.8c0.7,0,1.1-0.1,1.5-0.3l0.2,0.7c-0.3,0.2-0.9,0.3-1.8,0.3c-1.6,0-2.6-1.1-2.6-2.7
				c0-1.6,0.9-2.8,2.5-2.8c1.7,0,2.2,1.5,2.2,2.5c0,0.2,0,0.3,0,0.4H260.2z M263.1,381.2c0-0.6-0.3-1.6-1.3-1.6
				c-1,0-1.4,0.9-1.5,1.6H263.1z"/>
			<path d="M265.2,380.5c0-0.6,0-1,0-1.4h0.9l0.1,0.9h0c0.3-0.5,0.9-1,1.7-1c0.7,0,1.9,0.4,1.9,2.3v3.1h-1v-3.1
				c0-0.9-0.3-1.6-1.2-1.6c-0.6,0-1.1,0.4-1.3,1c0,0.1-0.1,0.3-0.1,0.4v3.2h-1L265.2,380.5L265.2,380.5z"/>
			<path d="M271.8,381.9c0,1.3,0.8,1.8,1.8,1.8c0.7,0,1.1-0.1,1.5-0.3l0.2,0.7c-0.3,0.2-0.9,0.3-1.8,0.3c-1.6,0-2.6-1.1-2.6-2.7
				c0-1.6,0.9-2.8,2.5-2.8c1.7,0,2.2,1.5,2.2,2.5c0,0.2,0,0.3,0,0.4H271.8z M274.6,381.2c0-0.6-0.3-1.6-1.3-1.6
				c-1,0-1.4,0.9-1.5,1.6H274.6z"/>
			<path d="M276.7,380.8c0-0.6,0-1.2,0-1.6h0.8l0,1.1h0c0.2-0.7,0.8-1.2,1.5-1.2c0.1,0,0.2,0,0.3,0v0.9c-0.1,0-0.2,0-0.3,0
				c-0.7,0-1.2,0.5-1.3,1.2c0,0.1,0,0.3,0,0.4v2.8h-1L276.7,380.8L276.7,380.8z"/>
			<path d="M284,383.1c0,0.5,0,0.9,0.1,1.3h-0.9l-0.1-0.7h0c-0.3,0.4-0.9,0.8-1.6,0.8c-1.1,0-1.6-0.8-1.6-1.5c0-1.3,1.1-2,3.2-2
				v-0.1c0-0.4-0.1-1.2-1.2-1.2c-0.5,0-1,0.1-1.4,0.4l-0.2-0.6c0.4-0.3,1.1-0.5,1.7-0.5c1.6,0,2,1.1,2,2.2L284,383.1L284,383.1z
				 M283,381.7c-1.1,0-2.2,0.2-2.2,1.2c0,0.6,0.4,0.9,0.9,0.9c0.7,0,1.2-0.4,1.3-0.9c0-0.1,0-0.2,0-0.3V381.7L283,381.7z"/>
			<path d="M286.6,377.8v1.3h1.4v0.7h-1.4v2.9c0,0.7,0.2,1,0.7,1c0.3,0,0.4,0,0.6-0.1l0,0.7c-0.2,0.1-0.5,0.1-0.9,0.1
				c-0.4,0-0.8-0.2-1-0.4c-0.3-0.3-0.4-0.8-0.4-1.4v-2.9h-0.8v-0.7h0.8v-1L286.6,377.8L286.6,377.8z"/>
			<path d="M289.6,381.9c0,1.3,0.8,1.8,1.8,1.8c0.7,0,1.1-0.1,1.5-0.3l0.2,0.7c-0.3,0.2-0.9,0.3-1.8,0.3c-1.6,0-2.6-1.1-2.6-2.7
				c0-1.6,0.9-2.8,2.5-2.8c1.7,0,2.2,1.5,2.2,2.5c0,0.2,0,0.3,0,0.4H289.6z M292.4,381.2c0-0.6-0.3-1.6-1.3-1.6
				c-1,0-1.4,0.9-1.5,1.6H292.4z"/>
			<path d="M297.2,379.1l1.2,3.1c0.1,0.4,0.3,0.8,0.4,1.1h0c0.1-0.3,0.2-0.7,0.3-1.1l1.1-3.1h1l-1.4,3.8c-0.7,1.8-1.2,2.7-1.8,3.3
				c-0.5,0.4-0.9,0.6-1.2,0.6l-0.2-0.8c0.2-0.1,0.6-0.2,0.8-0.5c0.3-0.2,0.6-0.6,0.8-1.1c0-0.1,0.1-0.2,0.1-0.2s0-0.1-0.1-0.3
				l-1.9-4.9L297.2,379.1L297.2,379.1z"/>
			<path d="M306.6,381.7c0,2-1.4,2.8-2.6,2.8c-1.4,0-2.5-1.1-2.5-2.7c0-1.8,1.2-2.8,2.6-2.8S306.7,380.1,306.6,381.7L306.6,381.7z
				 M302.5,381.8c0,1.2,0.7,2,1.6,2s1.6-0.9,1.6-2.1c0-0.9-0.4-2-1.6-2S302.5,380.8,302.5,381.8L302.5,381.8z"/>
			<path d="M312.3,383c0,0.6,0,1,0,1.5h-0.9l-0.1-0.9h0c-0.2,0.4-0.8,1-1.7,1c-0.8,0-1.8-0.5-1.8-2.3v-3.1h1v2.9
				c0,1,0.3,1.7,1.2,1.7c0.6,0,1.1-0.4,1.3-0.9c0.1-0.1,0.1-0.3,0.1-0.5v-3.2h1L312.3,383L312.3,383z"/>
			<path d="M313.9,380.8c0-0.6,0-1.2,0-1.6h0.8l0,1.1h0c0.2-0.7,0.8-1.2,1.5-1.2c0.1,0,0.2,0,0.3,0v0.9c-0.1,0-0.2,0-0.3,0
				c-0.7,0-1.2,0.5-1.3,1.2c0,0.1,0,0.3,0,0.4v2.8h-1L313.9,380.8L313.9,380.8z"/>
			<path d="M234.3,401.6c-1-0.3-2-0.6-2.8-0.9c-0.2-0.1-0.3-0.1-0.4-0.1c-1.8-0.1-3.2-1.4-3.2-3.7s1.4-3.9,3.4-3.9s3.3,1.5,3.3,3.7
				c0,1.9-0.9,3.1-2.1,3.5v0c0.7,0.2,1.5,0.4,2.2,0.5L234.3,401.6L234.3,401.6z M233.5,396.9c0-1.5-0.8-3-2.3-3
				c-1.6,0-2.4,1.5-2.4,3.1s0.9,3,2.4,3C232.6,399.9,233.5,398.5,233.5,396.9z"/>
			<path d="M235.7,393.3c0.5-0.1,1.2-0.2,1.8-0.2c1,0,1.7,0.2,2.1,0.6c0.4,0.3,0.6,0.8,0.6,1.4c0,1-0.6,1.6-1.4,1.9v0
				c0.6,0.2,0.9,0.7,1.1,1.5c0.2,1,0.4,1.7,0.6,2h-1c-0.1-0.2-0.3-0.8-0.5-1.8c-0.2-1-0.6-1.4-1.5-1.4h-0.9v3.2h-1L235.7,393.3
				L235.7,393.3z M236.7,396.7h1c1,0,1.7-0.6,1.7-1.4c0-1-0.7-1.4-1.7-1.4c-0.5,0-0.8,0-0.9,0.1L236.7,396.7L236.7,396.7z"/>
			<path d="M247.7,400.4c-0.3,0.1-0.8,0.3-1.5,0.3c-1.6,0-2.6-1.1-2.6-2.7c0-1.6,1.1-2.8,2.8-2.8c0.6,0,1.1,0.1,1.3,0.3l-0.2,0.7
				c-0.2-0.1-0.6-0.3-1.1-0.3c-1.2,0-1.9,0.9-1.9,2c0,1.2,0.8,2,1.8,2c0.5,0,0.9-0.1,1.2-0.3L247.7,400.4L247.7,400.4z"/>
			<path d="M253.5,397.9c0,2-1.4,2.8-2.6,2.8c-1.4,0-2.5-1.1-2.5-2.7c0-1.8,1.2-2.8,2.6-2.8S253.5,396.3,253.5,397.9L253.5,397.9z
				 M249.3,397.9c0,1.2,0.7,2,1.6,2c0.9,0,1.6-0.9,1.6-2.1c0-0.9-0.4-2-1.6-2C249.8,395.9,249.3,396.9,249.3,397.9L249.3,397.9z"/>
			<path d="M259.3,392.8v6.4c0,0.5,0,1,0,1.4h-0.9l0-0.9h0c-0.3,0.6-0.9,1-1.8,1c-1.3,0-2.3-1.1-2.3-2.7c0-1.8,1.1-2.8,2.4-2.8
				c0.8,0,1.4,0.4,1.6,0.8h0v-3.2L259.3,392.8L259.3,392.8z M258.3,397.4c0-0.1,0-0.3,0-0.4c-0.1-0.6-0.7-1.1-1.4-1.1
				c-1,0-1.6,0.9-1.6,2c0,1.1,0.5,2,1.6,2c0.6,0,1.2-0.4,1.4-1.1c0-0.1,0-0.3,0-0.4L258.3,397.4L258.3,397.4z"/>
			<path d="M261.4,398.1c0,1.3,0.8,1.8,1.8,1.8c0.7,0,1.1-0.1,1.5-0.3l0.2,0.7c-0.3,0.2-0.9,0.3-1.8,0.3c-1.6,0-2.6-1.1-2.6-2.7
				s0.9-2.8,2.5-2.8c1.7,0,2.2,1.5,2.2,2.5c0,0.2,0,0.3,0,0.4H261.4L261.4,398.1z M264.2,397.4c0-0.6-0.3-1.6-1.3-1.6
				c-1,0-1.4,0.9-1.5,1.6H264.2L264.2,397.4z"/>
			<path d="M266,400c0-0.4,0.3-0.7,0.7-0.7c0.4,0,0.6,0.3,0.6,0.7c0,0.4-0.3,0.7-0.7,0.7C266.3,400.7,266,400.4,266,400L266,400z"/>
		</g>
		<g>
			<path class="st3" d="M247.5,39.5c-9.3,0-16.9-7.6-16.9-16.9s7.6-16.9,16.9-16.9c9.3,0,16.9,7.6,16.9,16.9S256.9,39.5,247.5,39.5z
				 M247.5,8.5c-7.8,0-14.1,6.3-14.1,14.1s6.3,14.1,14.1,14.1s14.1-6.3,14.1-14.1S255.3,8.5,247.5,8.5z"/>
			<path class="st4" d="M241.6,31v-2.4l2.2-2c3.7-3.3,5.5-5.3,5.6-7.2c0-1.4-0.8-2.5-2.8-2.5c-1.5,0-2.7,0.7-3.6,1.4l-1.1-2.8
				c1.3-1,3.3-1.7,5.5-1.7c3.9,0,6,2.2,6,5.3c0,2.9-2,5.1-4.5,7.3l-1.6,1.3v0.1h6.4V31H241.6L241.6,31z"/>
		</g>
		<g>
			<path class="st3" d="M65.8,479.2c-9.3,0-16.9-7.6-16.9-16.9s7.6-16.9,16.9-16.9s16.9,7.6,16.9,16.9S75.1,479.2,65.8,479.2z
				 M65.8,448.2c-7.8,0-14.1,6.3-14.1,14.1c0,7.8,6.3,14.1,14.1,14.1s14.1-6.3,14.1-14.1C79.9,454.5,73.6,448.2,65.8,448.2z"/>
			<path class="st4" d="M60.5,466.9c0.7,0.4,2.3,1,3.9,1c2.1,0,3.1-1,3.1-2.2c0-1.7-1.7-2.5-3.4-2.5h-1.6v-2.8h1.6c1.3,0,3-0.5,3-2
				c0-1-0.8-1.8-2.5-1.8c-1.4,0-2.8,0.6-3.5,1l-0.8-2.9c1-0.7,3-1.3,5.3-1.3c3.6,0,5.6,1.9,5.6,4.2c0,1.8-1,3.2-3.1,3.9v0.1
				c2,0.4,3.7,1.9,3.7,4.2c0,3-2.6,5.2-7,5.2c-2.2,0-4-0.6-5-1.2L60.5,466.9L60.5,466.9z"/>
		</g>
		<g>
			<path class="st3" d="M247.5,479.2c-9.3,0-16.9-7.6-16.9-16.9s7.6-16.9,16.9-16.9c9.3,0,16.9,7.6,16.9,16.9
				S256.9,479.2,247.5,479.2z M247.5,448.2c-7.8,0-14.1,6.3-14.1,14.1c0,7.8,6.3,14.1,14.1,14.1s14.1-6.3,14.1-14.1
				C261.6,454.5,255.3,448.2,247.5,448.2z"/>
			<path class="st4" d="M247.6,470.8v-4h-7.5v-2.6l6.4-10.4h4.9v10h2v3h-2v4H247.6L247.6,470.8z M247.6,463.8V460
				c0-1,0.1-2.1,0.1-3.2h-0.1c-0.6,1.1-1,2.1-1.6,3.2l-2.2,3.7l0,0.1H247.6L247.6,463.8z"/>
		</g>
	</g>
</g>
</svg>
