<?xml version="1.0" encoding="UTF-8"?>
<svg id="Layer_1" xmlns="http://www.w3.org/2000/svg" viewBox="0 0 48 48">
    <path d="M47,23.89l-4.8-4.8-3.2,3.2V5.18c0-1.1-.89-2-2-2H4c-1.1,0-2,.89-2,2V38.19c0,1.1,.89,2,2,2H21.11l-.02,.02v4.8h4.8l4.81-4.81h6.3c1.1,0,2-.89,2-2v-6.3l8-8Z" fill="#fff"/>
    <path d="M24,35.19h2.11l7.89-7.89v-2.11c0-.55-.45-1-1-1h-9c-.55,0-1,.45-1,1v9c0,.55,.45,1,1,1Z" fill="#1d59f9"/>
    <rect x="26.5" y="27.69" width="4" height="4" fill="#fff"/>
    <g>
        <rect x="7" y="8.19" width="3" height="3" fill="#220e27"/>
        <rect x="11" y="12.19" width="3" height="3" fill="#220e27"/>
        <rect x="15" y="8.19" width="3" height="3" fill="#220e27"/>
        <rect x="7" y="16.19" width="3" height="3" fill="#220e27"/>
        <rect x="15" y="16.19" width="3" height="3" fill="#220e27"/>
        <path d="M24,20.19h9c1.1,0,2-.9,2-2V9.19c0-1.1-.9-2-2-2h-9c-1.1,0-2,.9-2,2v9c0,1.1,.9,2,2,2Zm0-11h9v9h-9V9.19Z" fill="#220e27"/>
        <path d="M17,23.19H8c-1.1,0-2,.9-2,2v9c0,1.1,.9,2,2,2h9c1.1,0,2-.9,2-2v-9c0-1.1-.9-2-2-2Zm-9,11v-9h9v9H8Z" fill="#220e27"/>
        <rect x="11" y="28.19" width="3" height="3" fill="#220e27"/>
        <rect x="27" y="12.19" width="3" height="3" fill="#220e27"/>
        <path d="M47.71,23.18l-4.8-4.8c-.39-.39-1.02-.39-1.41,0l-1.5,1.5V5.18c0-1.65-1.34-3-3-3H4c-1.65,0-3,1.34-3,3V38.19c0,1.65,1.34,3,3,3H20.09v3.81c0,.55,.45,1,1,1h4.8c.27,0,.52-.11,.71-.29l4.52-4.52h5.88c1.65,0,3-1.34,3-3v-5.88l7.71-7.71c.39-.39,.39-1.02,0-1.41ZM3,38.19V5.18c0-.55,.45-1,1-1H37c.55,0,1,.45,1,1V21.88l-17.3,17.3H4c-.55,0-1-.45-1-1Zm22.48,5.81h-3.38v-3.38l16.75-16.75,3.38,3.38-16.75,16.75Zm12.52-5.81c0,.55-.45,1-1,1h-3.88l4.88-4.88v3.88Zm5.64-12.35l-3.38-3.38,1.94-1.94,3.38,3.38-1.94,1.94Z" fill="#220e27"/>
    </g>
</svg>