<?xml version="1.0" encoding="utf-8"?>
<svg xmlns="http://www.w3.org/2000/svg" xmlns:xlink="http://www.w3.org/1999/xlink" xml:space="preserve" width="888" height="888" viewBox="0 0 888 888"><g fill="#000000">
<g transform="translate(240,48) scale(4.12)"><path d="M5.4,2.8C4.5,1.1,2.6-0.1,1.2,0c-1.3,0.1-1.6,1.6-0.7,3.2c1,1.7,2.8,2.9,4.2,2.8C6.1,5.9,6.4,4.4,5.4,2.8z"/></g>
<g transform="translate(288,48) scale(4.12)"><path d="M6,6H0V2c0-1.1,0.9-2,2-2h4V6z"/></g>
<g transform="translate(312,48) scale(4.12)"><rect width="6" height="6"/></g>
<g transform="translate(336,48) scale(4.12)"><path d="M6,0.8L6,0.8C6,2.2,1.4,6,0,6l0,0V0h5.2C5.6,0,6,0.4,6,0.8z"/></g>
<g transform="translate(408,48) scale(4.12)"><path d="M0.8,0L0.8,0C2.2,0,6,4.6,6,6l0,0H0V0.8C0,0.4,0.4,0,0.8,0z"/></g>
<g transform="translate(504,48) scale(4.12)"><path d="M0,5.2L0,5.2C0,3.8,4.6,0,6,0l0,0v6H0.8C0.4,6,0,5.6,0,5.2z"/></g>
<g transform="translate(528,48) scale(4.12)"><rect width="6" height="6"/></g>
<g transform="translate(552,48) scale(4.12)"><path d="M0,6V0h4c1.1,0,2,0.9,2,2v4H0z"/></g>
<g transform="translate(600,48) scale(4.12)"><path d="M5.4,2.8C4.5,1.1,2.6-0.1,1.2,0c-1.3,0.1-1.6,1.6-0.7,3.2c1,1.7,2.8,2.9,4.2,2.8C6.1,5.9,6.4,4.4,5.4,2.8z"/></g>
<g transform="translate(288,72) scale(4.12)"><rect width="6" height="6"/></g>
<g transform="translate(360,72) scale(4.12)"><path d="M6,6H0V2c0-1.1,0.9-2,2-2h4V6z"/></g>
<g transform="translate(384,72) scale(4.12)"><rect width="6" height="6"/></g>
<g transform="translate(408,72) scale(4.12)"><rect width="6" height="6"/></g>
<g transform="translate(480,72) scale(4.12)"><path d="M5.4,2.8C4.5,1.1,2.6-0.1,1.2,0c-1.3,0.1-1.6,1.6-0.7,3.2c1,1.7,2.8,2.9,4.2,2.8C6.1,5.9,6.4,4.4,5.4,2.8z"/></g>
<g transform="translate(528,72) scale(4.12)"><rect width="6" height="6"/></g>
<g transform="translate(552,72) scale(4.12)"><rect width="6" height="6"/></g>
<g transform="translate(576,72) scale(4.12)"><path d="M0,6V0h4c1.1,0,2,0.9,2,2v4H0z"/></g>
<g transform="translate(264,96) scale(4.12)"><path d="M6,6H0V2c0-1.1,0.9-2,2-2h4V6z"/></g>
<g transform="translate(288,96) scale(4.12)"><rect width="6" height="6"/></g>
<g transform="translate(312,96) scale(4.12)"><rect width="6" height="6"/></g>
<g transform="translate(336,96) scale(4.12)"><rect width="6" height="6"/></g>
<g transform="translate(360,96) scale(4.12)"><rect width="6" height="6"/></g>
<g transform="translate(408,96) scale(4.12)"><rect width="6" height="6"/></g>
<g transform="translate(504,96) scale(4.12)"><path d="M6,6H0V2c0-1.1,0.9-2,2-2h4V6z"/></g>
<g transform="translate(528,96) scale(4.12)"><rect width="6" height="6"/></g>
<g transform="translate(552,96) scale(4.12)"><rect width="6" height="6"/></g>
<g transform="translate(576,96) scale(4.12)"><rect width="6" height="6"/></g>
<g transform="translate(600,96) scale(4.12)"><rect width="6" height="6"/></g>
<g transform="translate(624,96) scale(4.12)"><path d="M0,6V0h4c1.1,0,2,0.9,2,2v4H0z"/></g>
<g transform="translate(264,120) scale(4.12)"><path d="M6,0v6H2C0.9,6,0,5.1,0,4V0H6z"/></g>
<g transform="translate(288,120) scale(4.12)"><path d="M0,0h6v4c0,1.1-0.9,2-2,2H0V0z"/></g>
<g transform="translate(336,120) scale(4.12)"><path d="M6,0v6H2C0.9,6,0,5.1,0,4V0H6z"/></g>
<g transform="translate(360,120) scale(4.12)"><rect width="6" height="6"/></g>
<g transform="translate(408,120) scale(4.12)"><path d="M5.2,6L5.2,6C3.8,6,0,1.4,0,0l0,0h6v5.2C6,5.6,5.6,6,5.2,6z"/></g>
<g transform="translate(480,120) scale(4.12)"><path d="M0,5.2L0,5.2C0,3.8,4.6,0,6,0l0,0v6H0.8C0.4,6,0,5.6,0,5.2z"/></g>
<g transform="translate(504,120) scale(4.12)"><path d="M0,0h6v4c0,1.1-0.9,2-2,2H0V0z"/></g>
<g transform="translate(552,120) scale(4.12)"><path d="M5.2,6L5.2,6C3.8,6,0,1.4,0,0l0,0h6v5.2C6,5.6,5.6,6,5.2,6z"/></g>
<g transform="translate(624,120) scale(4.12)"><path d="M5.2,6L5.2,6C3.8,6,0,1.4,0,0l0,0h6v5.2C6,5.6,5.6,6,5.2,6z"/></g>
<g transform="translate(240,144) scale(4.12)"><path d="M0.8,0L0.8,0C2.2,0,6,4.6,6,6l0,0H0V0.8C0,0.4,0.4,0,0.8,0z"/></g>
<g transform="translate(312,144) scale(4.12)"><path d="M0.8,0L0.8,0C2.2,0,6,4.6,6,6l0,0H0V0.8C0,0.4,0.4,0,0.8,0z"/></g>
<g transform="translate(360,144) scale(4.12)"><rect width="6" height="6"/></g>
<g transform="translate(384,144) scale(4.12)"><path d="M6,0.8L6,0.8C6,2.2,1.4,6,0,6l0,0V0h5.2C5.6,0,6,0.4,6,0.8z"/></g>
<g transform="translate(528,144) scale(4.12)"><path d="M5.4,2.8C4.5,1.1,2.6-0.1,1.2,0c-1.3,0.1-1.6,1.6-0.7,3.2c1,1.7,2.8,2.9,4.2,2.8C6.1,5.9,6.4,4.4,5.4,2.8z"/></g>
<g transform="translate(600,144) scale(4.12)"><path d="M5.4,2.8C4.5,1.1,2.6-0.1,1.2,0c-1.3,0.1-1.6,1.6-0.7,3.2c1,1.7,2.8,2.9,4.2,2.8C6.1,5.9,6.4,4.4,5.4,2.8z"/></g>
<g transform="translate(240,168) scale(4.12)"><rect width="6" height="6"/></g>
<g transform="translate(312,168) scale(4.12)"><path d="M6,0v6H2C0.9,6,0,5.1,0,4V0H6z"/></g>
<g transform="translate(336,168) scale(4.12)"><rect width="6" height="6"/></g>
<g transform="translate(360,168) scale(4.12)"><path d="M0,0h6v4c0,1.1-0.9,2-2,2H0V0z"/></g>
<g transform="translate(408,168) scale(4.12)"><path d="M0,5.2L0,5.2C0,3.8,4.6,0,6,0l0,0v6H0.8C0.4,6,0,5.6,0,5.2z"/></g>
<g transform="translate(432,168) scale(4.12)"><path d="M0,6V0h4c1.1,0,2,0.9,2,2v4H0z"/></g>
<g transform="translate(504,168) scale(4.12)"><path d="M5.4,2.8C4.5,1.1,2.6-0.1,1.2,0c-1.3,0.1-1.6,1.6-0.7,3.2c1,1.7,2.8,2.9,4.2,2.8C6.1,5.9,6.4,4.4,5.4,2.8z"/></g>
<g transform="translate(552,168) scale(4.12)"><path d="M5.4,2.8C4.5,1.1,2.6-0.1,1.2,0c-1.3,0.1-1.6,1.6-0.7,3.2c1,1.7,2.8,2.9,4.2,2.8C6.1,5.9,6.4,4.4,5.4,2.8z"/></g>
<g transform="translate(624,168) scale(4.12)"><path d="M0.8,0L0.8,0C2.2,0,6,4.6,6,6l0,0H0V0.8C0,0.4,0.4,0,0.8,0z"/></g>
<g transform="translate(240,192) scale(4.12)"><path d="M5.2,6L5.2,6C3.8,6,0,1.4,0,0l0,0h6v5.2C6,5.6,5.6,6,5.2,6z"/></g>
<g transform="translate(288,192) scale(4.12)"><path d="M5.4,2.8C4.5,1.1,2.6-0.1,1.2,0c-1.3,0.1-1.6,1.6-0.7,3.2c1,1.7,2.8,2.9,4.2,2.8C6.1,5.9,6.4,4.4,5.4,2.8z"/></g>
<g transform="translate(336,192) scale(4.12)"><rect width="6" height="6"/></g>
<g transform="translate(384,192) scale(4.12)"><path d="M0.8,0L0.8,0C2.2,0,6,4.6,6,6l0,0H0V0.8C0,0.4,0.4,0,0.8,0z"/></g>
<g transform="translate(432,192) scale(4.12)"><rect width="6" height="6"/></g>
<g transform="translate(480,192) scale(4.12)"><path d="M0.8,0L0.8,0C2.2,0,6,4.6,6,6l0,0H0V0.8C0,0.4,0.4,0,0.8,0z"/></g>
<g transform="translate(528,192) scale(4.12)"><path d="M0.8,0L0.8,0C2.2,0,6,4.6,6,6l0,0H0V0.8C0,0.4,0.4,0,0.8,0z"/></g>
<g transform="translate(576,192) scale(4.12)"><path d="M5.4,2.8C4.5,1.1,2.6-0.1,1.2,0c-1.3,0.1-1.6,1.6-0.7,3.2c1,1.7,2.8,2.9,4.2,2.8C6.1,5.9,6.4,4.4,5.4,2.8z"/></g>
<g transform="translate(624,192) scale(4.12)"><path d="M5.2,6L5.2,6C3.8,6,0,1.4,0,0l0,0h6v5.2C6,5.6,5.6,6,5.2,6z"/></g>
<g transform="translate(264,216) scale(4.12)"><path d="M0.8,0L0.8,0C2.2,0,6,4.6,6,6l0,0H0V0.8C0,0.4,0.4,0,0.8,0z"/></g>
<g transform="translate(312,216) scale(4.12)"><path d="M6,6H0V2c0-1.1,0.9-2,2-2h4V6z"/></g>
<g transform="translate(336,216) scale(4.12)"><rect width="6" height="6"/></g>
<g transform="translate(384,216) scale(4.12)"><path d="M6,0v6H2C0.9,6,0,5.1,0,4V0H6z"/></g>
<g transform="translate(408,216) scale(4.12)"><rect width="6" height="6"/></g>
<g transform="translate(432,216) scale(4.12)"><rect width="6" height="6"/></g>
<g transform="translate(480,216) scale(4.12)"><path d="M6,0v6H2C0.9,6,0,5.1,0,4V0H6z"/></g>
<g transform="translate(504,216) scale(4.12)"><rect width="6" height="6"/></g>
<g transform="translate(528,216) scale(4.12)"><rect width="6" height="6"/></g>
<g transform="translate(552,216) scale(4.12)"><path d="M6,0.8L6,0.8C6,2.2,1.4,6,0,6l0,0V0h5.2C5.6,0,6,0.4,6,0.8z"/></g>
<g transform="translate(72,240) scale(4.12)"><path d="M6,6H0V2c0-1.1,0.9-2,2-2h4V6z"/></g>
<g transform="translate(96,240) scale(4.12)"><rect width="6" height="6"/></g>
<g transform="translate(120,240) scale(4.12)"><rect width="6" height="6"/></g>
<g transform="translate(144,240) scale(4.12)"><rect width="6" height="6"/></g>
<g transform="translate(168,240) scale(4.12)"><rect width="6" height="6"/></g>
<g transform="translate(192,240) scale(4.12)"><rect width="6" height="6"/></g>
<g transform="translate(216,240) scale(4.12)"><path d="M0,6V0h4c1.1,0,2,0.9,2,2v4H0z"/></g>
<g transform="translate(264,240) scale(4.12)"><path d="M5.2,6L5.2,6C3.8,6,0,1.4,0,0l0,0h6v5.2C6,5.6,5.6,6,5.2,6z"/></g>
<g transform="translate(312,240) scale(4.12)"><path d="M6,0v6H2C0.9,6,0,5.1,0,4V0H6z"/></g>
<g transform="translate(336,240) scale(4.12)"><rect width="6" height="6"/></g>
<g transform="translate(360,240) scale(4.12)"><path d="M0,6V0h4c1.1,0,2,0.9,2,2v4H0z"/></g>
<g transform="translate(408,240) scale(4.12)"><path d="M6,0v6H2C0.9,6,0,5.1,0,4V0H6z"/></g>
<g transform="translate(432,240) scale(4.12)"><rect width="6" height="6"/></g>
<g transform="translate(456,240) scale(4.12)"><path d="M0,6V0h4c1.1,0,2,0.9,2,2v4H0z"/></g>
<g transform="translate(504,240) scale(4.12)"><rect width="6" height="6"/></g>
<g transform="translate(576,240) scale(4.12)"><path d="M0,5.2L0,5.2C0,3.8,4.6,0,6,0l0,0v6H0.8C0.4,6,0,5.6,0,5.2z"/></g>
<g transform="translate(600,240) scale(4.12)"><path d="M0,6V0h4c1.1,0,2,0.9,2,2v4H0z"/></g>
<g transform="translate(696,240) scale(4.12)"><path d="M6,6H0V2c0-1.1,0.9-2,2-2h4V6z"/></g>
<g transform="translate(720,240) scale(4.12)"><path d="M6,0.8L6,0.8C6,2.2,1.4,6,0,6l0,0V0h5.2C5.6,0,6,0.4,6,0.8z"/></g>
<g transform="translate(816,240) scale(4.12)"><path d="M0.8,0L0.8,0C2.2,0,6,4.6,6,6l0,0H0V0.8C0,0.4,0.4,0,0.8,0z"/></g>
<g transform="translate(72,264) scale(4.12)"><rect width="6" height="6"/></g>
<g transform="translate(120,264) scale(4.12)"><rect width="6" height="6"/></g>
<g transform="translate(216,264) scale(4.12)"><path d="M6,0v6H2C0.9,6,0,5.1,0,4V0H6z"/></g>
<g transform="translate(240,264) scale(4.12)"><path d="M0,6V0h4c1.1,0,2,0.9,2,2v4H0z"/></g>
<g transform="translate(360,264) scale(4.12)"><path d="M6,0v6H2C0.9,6,0,5.1,0,4V0H6z"/></g>
<g transform="translate(384,264) scale(4.12)"><path d="M0,6V0h4c1.1,0,2,0.9,2,2v4H0z"/></g>
<g transform="translate(456,264) scale(4.12)"><rect width="6" height="6"/></g>
<g transform="translate(480,264) scale(4.12)"><rect width="6" height="6"/></g>
<g transform="translate(504,264) scale(4.12)"><path d="M0,0h6v4c0,1.1-0.9,2-2,2H0V0z"/></g>
<g transform="translate(600,264) scale(4.12)"><path d="M5.2,6L5.2,6C3.8,6,0,1.4,0,0l0,0h6v5.2C6,5.6,5.6,6,5.2,6z"/></g>
<g transform="translate(672,264) scale(4.12)"><path d="M6,6H0V2c0-1.1,0.9-2,2-2h4V6z"/></g>
<g transform="translate(696,264) scale(4.12)"><path d="M0,0h6v4c0,1.1-0.9,2-2,2H0V0z"/></g>
<g transform="translate(744,264) scale(4.12)"><path d="M0,5.2L0,5.2C0,3.8,4.6,0,6,0l0,0v6H0.8C0.4,6,0,5.6,0,5.2z"/></g>
<g transform="translate(768,264) scale(4.12)"><path d="M0,6V0h4c1.1,0,2,0.9,2,2v4H0z"/></g>
<g transform="translate(816,264) scale(4.12)"><path d="M5.2,6L5.2,6C3.8,6,0,1.4,0,0l0,0h6v5.2C6,5.6,5.6,6,5.2,6z"/></g>
<g transform="translate(48,288) scale(4.12)"><path d="M0,5.2L0,5.2C0,3.8,4.6,0,6,0l0,0v6H0.8C0.4,6,0,5.6,0,5.2z"/></g>
<g transform="translate(72,288) scale(4.12)"><rect width="6" height="6"/></g>
<g transform="translate(96,288) scale(4.12)"><rect width="6" height="6"/></g>
<g transform="translate(120,288) scale(4.12)"><path d="M0,0h6v4c0,1.1-0.9,2-2,2H0V0z"/></g>
<g transform="translate(192,288) scale(4.12)"><path d="M5.4,2.8C4.5,1.1,2.6-0.1,1.2,0c-1.3,0.1-1.6,1.6-0.7,3.2c1,1.7,2.8,2.9,4.2,2.8C6.1,5.9,6.4,4.4,5.4,2.8z"/></g>
<g transform="translate(240,288) scale(4.12)"><path d="M5.2,6L5.2,6C3.8,6,0,1.4,0,0l0,0h6v5.2C6,5.6,5.6,6,5.2,6z"/></g>
<g transform="translate(288,288) scale(4.12)"><path d="M5.4,2.8C4.5,1.1,2.6-0.1,1.2,0c-1.3,0.1-1.6,1.6-0.7,3.2c1,1.7,2.8,2.9,4.2,2.8C6.1,5.9,6.4,4.4,5.4,2.8z"/></g>
<g transform="translate(336,288) scale(4.12)"><path d="M0.8,0L0.8,0C2.2,0,6,4.6,6,6l0,0H0V0.8C0,0.4,0.4,0,0.8,0z"/></g>
<g transform="translate(384,288) scale(4.12)"><rect width="6" height="6"/></g>
<g transform="translate(408,288) scale(4.12)"><rect width="6" height="6"/></g>
<g transform="translate(432,288) scale(4.12)"><rect width="6" height="6"/></g>
<g transform="translate(456,288) scale(4.12)"><rect width="6" height="6"/></g>
<g transform="translate(528,288) scale(4.12)"><path d="M0.8,0L0.8,0C2.2,0,6,4.6,6,6l0,0H0V0.8C0,0.4,0.4,0,0.8,0z"/></g>
<g transform="translate(576,288) scale(4.12)"><path d="M5.4,2.8C4.5,1.1,2.6-0.1,1.2,0c-1.3,0.1-1.6,1.6-0.7,3.2c1,1.7,2.8,2.9,4.2,2.8C6.1,5.9,6.4,4.4,5.4,2.8z"/></g>
<g transform="translate(624,288) scale(4.12)"><path d="M6,6H0V2c0-1.1,0.9-2,2-2h4V6z"/></g>
<g transform="translate(648,288) scale(4.12)"><rect width="6" height="6"/></g>
<g transform="translate(672,288) scale(4.12)"><path d="M0,0h6v4c0,1.1-0.9,2-2,2H0V0z"/></g>
<g transform="translate(720,288) scale(4.12)"><path d="M0.8,0L0.8,0C2.2,0,6,4.6,6,6l0,0H0V0.8C0,0.4,0.4,0,0.8,0z"/></g>
<g transform="translate(768,288) scale(4.12)"><rect width="6" height="6"/></g>
<g transform="translate(792,288) scale(4.12)"><path d="M0,6V0h4c1.1,0,2,0.9,2,2v4H0z"/></g>
<g transform="translate(96,312) scale(4.12)"><path d="M5.2,6L5.2,6C3.8,6,0,1.4,0,0l0,0h6v5.2C6,5.6,5.6,6,5.2,6z"/></g>
<g transform="translate(144,312) scale(4.12)"><path d="M6,6H0V2c0-1.1,0.9-2,2-2h4V6z"/></g>
<g transform="translate(168,312) scale(4.12)"><path d="M6,0.8L6,0.8C6,2.2,1.4,6,0,6l0,0V0h5.2C5.6,0,6,0.4,6,0.8z"/></g>
<g transform="translate(312,312) scale(4.12)"><path d="M6,6H0V2c0-1.1,0.9-2,2-2h4V6z"/></g>
<g transform="translate(336,312) scale(4.12)"><path d="M0,0h6v4c0,1.1-0.9,2-2,2H0V0z"/></g>
<g transform="translate(384,312) scale(4.12)"><rect width="6" height="6"/></g>
<g transform="translate(408,312) scale(4.12)"><rect width="6" height="6"/></g>
<g transform="translate(432,312) scale(4.12)"><rect width="6" height="6"/></g>
<g transform="translate(456,312) scale(4.12)"><rect width="6" height="6"/></g>
<g transform="translate(480,312) scale(4.12)"><path d="M6,0.8L6,0.8C6,2.2,1.4,6,0,6l0,0V0h5.2C5.6,0,6,0.4,6,0.8z"/></g>
<g transform="translate(528,312) scale(4.12)"><rect width="6" height="6"/></g>
<g transform="translate(600,312) scale(4.12)"><path d="M0,5.2L0,5.2C0,3.8,4.6,0,6,0l0,0v6H0.8C0.4,6,0,5.6,0,5.2z"/></g>
<g transform="translate(624,312) scale(4.12)"><rect width="6" height="6"/></g>
<g transform="translate(720,312) scale(4.12)"><rect width="6" height="6"/></g>
<g transform="translate(744,312) scale(4.12)"><rect width="6" height="6"/></g>
<g transform="translate(768,312) scale(4.12)"><rect width="6" height="6"/></g>
<g transform="translate(792,312) scale(4.12)"><rect width="6" height="6"/></g>
<g transform="translate(816,312) scale(4.12)"><path d="M6,0.8L6,0.8C6,2.2,1.4,6,0,6l0,0V0h5.2C5.6,0,6,0.4,6,0.8z"/></g>
<g transform="translate(48,336) scale(4.12)"><path d="M6,6H0V2c0-1.1,0.9-2,2-2h4V6z"/></g>
<g transform="translate(72,336) scale(4.12)"><path d="M0,6V0h4c1.1,0,2,0.9,2,2v4H0z"/></g>
<g transform="translate(144,336) scale(4.12)"><rect width="6" height="6"/></g>
<g transform="translate(192,336) scale(4.12)"><path d="M0,5.2L0,5.2C0,3.8,4.6,0,6,0l0,0v6H0.8C0.4,6,0,5.6,0,5.2z"/></g>
<g transform="translate(216,336) scale(4.12)"><rect width="6" height="6"/></g>
<g transform="translate(240,336) scale(4.12)"><rect width="6" height="6"/></g>
<g transform="translate(264,336) scale(4.12)"><rect width="6" height="6"/></g>
<g transform="translate(288,336) scale(4.12)"><rect width="6" height="6"/></g>
<g transform="translate(312,336) scale(4.12)"><path d="M0,0h6v4c0,1.1-0.9,2-2,2H0V0z"/></g>
<g transform="translate(360,336) scale(4.12)"><path d="M0,5.2L0,5.2C0,3.8,4.6,0,6,0l0,0v6H0.8C0.4,6,0,5.6,0,5.2z"/></g>
<g transform="translate(384,336) scale(4.12)"><rect width="6" height="6"/></g>
<g transform="translate(504,336) scale(4.12)"><path d="M0,5.2L0,5.2C0,3.8,4.6,0,6,0l0,0v6H0.8C0.4,6,0,5.6,0,5.2z"/></g>
<g transform="translate(528,336) scale(4.12)"><rect width="6" height="6"/></g>
<g transform="translate(552,336) scale(4.12)"><rect width="6" height="6"/></g>
<g transform="translate(576,336) scale(4.12)"><path d="M6,0.8L6,0.8C6,2.2,1.4,6,0,6l0,0V0h5.2C5.6,0,6,0.4,6,0.8z"/></g>
<g transform="translate(624,336) scale(4.12)"><path d="M6,0v6H2C0.9,6,0,5.1,0,4V0H6z"/></g>
<g transform="translate(648,336) scale(4.12)"><path d="M6,0.8L6,0.8C6,2.2,1.4,6,0,6l0,0V0h5.2C5.6,0,6,0.4,6,0.8z"/></g>
<g transform="translate(696,336) scale(4.12)"><path d="M0,5.2L0,5.2C0,3.8,4.6,0,6,0l0,0v6H0.8C0.4,6,0,5.6,0,5.2z"/></g>
<g transform="translate(720,336) scale(4.12)"><rect width="6" height="6"/></g>
<g transform="translate(744,336) scale(4.12)"><path d="M0,0h6v4c0,1.1-0.9,2-2,2H0V0z"/></g>
<g transform="translate(48,360) scale(4.12)"><rect width="6" height="6"/></g>
<g transform="translate(72,360) scale(4.12)"><rect width="6" height="6"/></g>
<g transform="translate(144,360) scale(4.12)"><path d="M6,0v6H2C0.9,6,0,5.1,0,4V0H6z"/></g>
<g transform="translate(168,360) scale(4.12)"><path d="M0,6V0h4c1.1,0,2,0.9,2,2v4H0z"/></g>
<g transform="translate(336,360) scale(4.12)"><path d="M5.4,2.8C4.5,1.1,2.6-0.1,1.2,0c-1.3,0.1-1.6,1.6-0.7,3.2c1,1.7,2.8,2.9,4.2,2.8C6.1,5.9,6.4,4.4,5.4,2.8z"/></g>
<g transform="translate(384,360) scale(4.12)"><rect width="6" height="6"/></g>
<g transform="translate(456,360) scale(4.12)"><path d="M6,6H0V2c0-1.1,0.9-2,2-2h4V6z"/></g>
<g transform="translate(480,360) scale(4.12)"><path d="M6,0.8L6,0.8C6,2.2,1.4,6,0,6l0,0V0h5.2C5.6,0,6,0.4,6,0.8z"/></g>
<g transform="translate(600,360) scale(4.12)"><path d="M5.4,2.8C4.5,1.1,2.6-0.1,1.2,0c-1.3,0.1-1.6,1.6-0.7,3.2c1,1.7,2.8,2.9,4.2,2.8C6.1,5.9,6.4,4.4,5.4,2.8z"/></g>
<g transform="translate(672,360) scale(4.12)"><path d="M0.8,0L0.8,0C2.2,0,6,4.6,6,6l0,0H0V0.8C0,0.4,0.4,0,0.8,0z"/></g>
<g transform="translate(768,360) scale(4.12)"><path d="M6,6H0V2c0-1.1,0.9-2,2-2h4V6z"/></g>
<g transform="translate(792,360) scale(4.12)"><rect width="6" height="6"/></g>
<g transform="translate(816,360) scale(4.12)"><path d="M6,0.8L6,0.8C6,2.2,1.4,6,0,6l0,0V0h5.2C5.6,0,6,0.4,6,0.8z"/></g>
<g transform="translate(48,384) scale(4.12)"><path d="M6,0v6H2C0.9,6,0,5.1,0,4V0H6z"/></g>
<g transform="translate(72,384) scale(4.12)"><path d="M0,0h6v4c0,1.1-0.9,2-2,2H0V0z"/></g>
<g transform="translate(168,384) scale(4.12)"><rect width="6" height="6"/></g>
<g transform="translate(192,384) scale(4.12)"><path d="M6,0.8L6,0.8C6,2.2,1.4,6,0,6l0,0V0h5.2C5.6,0,6,0.4,6,0.8z"/></g>
<g transform="translate(264,384) scale(4.12)"><path d="M6,6H0V2c0-1.1,0.9-2,2-2h4V6z"/></g>
<g transform="translate(288,384) scale(4.12)"><path d="M0,6V0h4c1.1,0,2,0.9,2,2v4H0z"/></g>
<g transform="translate(384,384) scale(4.12)"><rect width="6" height="6"/></g>
<g transform="translate(456,384) scale(4.12)"><path d="M5.2,6L5.2,6C3.8,6,0,1.4,0,0l0,0h6v5.2C6,5.6,5.6,6,5.2,6z"/></g>
<g transform="translate(528,384) scale(4.12)"><path d="M5.4,2.8C4.5,1.1,2.6-0.1,1.2,0c-1.3,0.1-1.6,1.6-0.7,3.2c1,1.7,2.8,2.9,4.2,2.8C6.1,5.9,6.4,4.4,5.4,2.8z"/></g>
<g transform="translate(576,384) scale(4.12)"><path d="M0.8,0L0.8,0C2.2,0,6,4.6,6,6l0,0H0V0.8C0,0.4,0.4,0,0.8,0z"/></g>
<g transform="translate(624,384) scale(4.12)"><path d="M0,5.2L0,5.2C0,3.8,4.6,0,6,0l0,0v6H0.8C0.4,6,0,5.6,0,5.2z"/></g>
<g transform="translate(648,384) scale(4.12)"><rect width="6" height="6"/></g>
<g transform="translate(672,384) scale(4.12)"><rect width="6" height="6"/></g>
<g transform="translate(744,384) scale(4.12)"><path d="M6,6H0V2c0-1.1,0.9-2,2-2h4V6z"/></g>
<g transform="translate(768,384) scale(4.12)"><rect width="6" height="6"/></g>
<g transform="translate(792,384) scale(4.12)"><path d="M0,0h6v4c0,1.1-0.9,2-2,2H0V0z"/></g>
<g transform="translate(96,408) scale(4.12)"><path d="M0.8,0L0.8,0C2.2,0,6,4.6,6,6l0,0H0V0.8C0,0.4,0.4,0,0.8,0z"/></g>
<g transform="translate(168,408) scale(4.12)"><path d="M5.2,6L5.2,6C3.8,6,0,1.4,0,0l0,0h6v5.2C6,5.6,5.6,6,5.2,6z"/></g>
<g transform="translate(264,408) scale(4.12)"><rect width="6" height="6"/></g>
<g transform="translate(288,408) scale(4.12)"><path d="M0,0h6v4c0,1.1-0.9,2-2,2H0V0z"/></g>
<g transform="translate(336,408) scale(4.12)"><path d="M5.4,2.8C4.5,1.1,2.6-0.1,1.2,0c-1.3,0.1-1.6,1.6-0.7,3.2c1,1.7,2.8,2.9,4.2,2.8C6.1,5.9,6.4,4.4,5.4,2.8z"/></g>
<g transform="translate(384,408) scale(4.12)"><path d="M5.2,6L5.2,6C3.8,6,0,1.4,0,0l0,0h6v5.2C6,5.6,5.6,6,5.2,6z"/></g>
<g transform="translate(432,408) scale(4.12)"><path d="M5.4,2.8C4.5,1.1,2.6-0.1,1.2,0c-1.3,0.1-1.6,1.6-0.7,3.2c1,1.7,2.8,2.9,4.2,2.8C6.1,5.9,6.4,4.4,5.4,2.8z"/></g>
<g transform="translate(480,408) scale(4.12)"><path d="M0.8,0L0.8,0C2.2,0,6,4.6,6,6l0,0H0V0.8C0,0.4,0.4,0,0.8,0z"/></g>
<g transform="translate(552,408) scale(4.12)"><path d="M0,5.2L0,5.2C0,3.8,4.6,0,6,0l0,0v6H0.8C0.4,6,0,5.6,0,5.2z"/></g>
<g transform="translate(576,408) scale(4.12)"><rect width="6" height="6"/></g>
<g transform="translate(648,408) scale(4.12)"><rect width="6" height="6"/></g>
<g transform="translate(672,408) scale(4.12)"><rect width="6" height="6"/></g>
<g transform="translate(696,408) scale(4.12)"><path d="M0,6V0h4c1.1,0,2,0.9,2,2v4H0z"/></g>
<g transform="translate(744,408) scale(4.12)"><rect width="6" height="6"/></g>
<g transform="translate(768,408) scale(4.12)"><path d="M0,0h6v4c0,1.1-0.9,2-2,2H0V0z"/></g>
<g transform="translate(96,432) scale(4.12)"><path d="M6,0v6H2C0.9,6,0,5.1,0,4V0H6z"/></g>
<g transform="translate(120,432) scale(4.12)"><path d="M6,0.8L6,0.8C6,2.2,1.4,6,0,6l0,0V0h5.2C5.6,0,6,0.4,6,0.8z"/></g>
<g transform="translate(192,432) scale(4.12)"><path d="M5.4,2.8C4.5,1.1,2.6-0.1,1.2,0c-1.3,0.1-1.6,1.6-0.7,3.2c1,1.7,2.8,2.9,4.2,2.8C6.1,5.9,6.4,4.4,5.4,2.8z"/></g>
<g transform="translate(264,432) scale(4.12)"><rect width="6" height="6"/></g>
<g transform="translate(312,432) scale(4.12)"><path d="M5.4,2.8C4.5,1.1,2.6-0.1,1.2,0c-1.3,0.1-1.6,1.6-0.7,3.2c1,1.7,2.8,2.9,4.2,2.8C6.1,5.9,6.4,4.4,5.4,2.8z"/></g>
<g transform="translate(408,432) scale(4.12)"><path d="M0.8,0L0.8,0C2.2,0,6,4.6,6,6l0,0H0V0.8C0,0.4,0.4,0,0.8,0z"/></g>
<g transform="translate(480,432) scale(4.12)"><path d="M5.2,6L5.2,6C3.8,6,0,1.4,0,0l0,0h6v5.2C6,5.6,5.6,6,5.2,6z"/></g>
<g transform="translate(576,432) scale(4.12)"><rect width="6" height="6"/></g>
<g transform="translate(600,432) scale(4.12)"><path d="M0,6V0h4c1.1,0,2,0.9,2,2v4H0z"/></g>
<g transform="translate(648,432) scale(4.12)"><path d="M5.2,6L5.2,6C3.8,6,0,1.4,0,0l0,0h6v5.2C6,5.6,5.6,6,5.2,6z"/></g>
<g transform="translate(696,432) scale(4.12)"><rect width="6" height="6"/></g>
<g transform="translate(720,432) scale(4.12)"><rect width="6" height="6"/></g>
<g transform="translate(744,432) scale(4.12)"><rect width="6" height="6"/></g>
<g transform="translate(816,432) scale(4.12)"><path d="M0.8,0L0.8,0C2.2,0,6,4.6,6,6l0,0H0V0.8C0,0.4,0.4,0,0.8,0z"/></g>
<g transform="translate(72,456) scale(4.12)"><path d="M5.4,2.8C4.5,1.1,2.6-0.1,1.2,0c-1.3,0.1-1.6,1.6-0.7,3.2c1,1.7,2.8,2.9,4.2,2.8C6.1,5.9,6.4,4.4,5.4,2.8z"/></g>
<g transform="translate(168,456) scale(4.12)"><path d="M0.8,0L0.8,0C2.2,0,6,4.6,6,6l0,0H0V0.8C0,0.4,0.4,0,0.8,0z"/></g>
<g transform="translate(240,456) scale(4.12)"><path d="M6,6H0V2c0-1.1,0.9-2,2-2h4V6z"/></g>
<g transform="translate(264,456) scale(4.12)"><rect width="6" height="6"/></g>
<g transform="translate(288,456) scale(4.12)"><path d="M6,0.8L6,0.8C6,2.2,1.4,6,0,6l0,0V0h5.2C5.6,0,6,0.4,6,0.8z"/></g>
<g transform="translate(336,456) scale(4.12)"><path d="M5.4,2.8C4.5,1.1,2.6-0.1,1.2,0c-1.3,0.1-1.6,1.6-0.7,3.2c1,1.7,2.8,2.9,4.2,2.8C6.1,5.9,6.4,4.4,5.4,2.8z"/></g>
<g transform="translate(408,456) scale(4.12)"><rect width="6" height="6"/></g>
<g transform="translate(432,456) scale(4.12)"><rect width="6" height="6"/></g>
<g transform="translate(456,456) scale(4.12)"><path d="M6,0.8L6,0.8C6,2.2,1.4,6,0,6l0,0V0h5.2C5.6,0,6,0.4,6,0.8z"/></g>
<g transform="translate(504,456) scale(4.12)"><path d="M0,5.2L0,5.2C0,3.8,4.6,0,6,0l0,0v6H0.8C0.4,6,0,5.6,0,5.2z"/></g>
<g transform="translate(528,456) scale(4.12)"><rect width="6" height="6"/></g>
<g transform="translate(552,456) scale(4.12)"><rect width="6" height="6"/></g>
<g transform="translate(576,456) scale(4.12)"><rect width="6" height="6"/></g>
<g transform="translate(600,456) scale(4.12)"><path d="M0,0h6v4c0,1.1-0.9,2-2,2H0V0z"/></g>
<g transform="translate(672,456) scale(4.12)"><path d="M0,5.2L0,5.2C0,3.8,4.6,0,6,0l0,0v6H0.8C0.4,6,0,5.6,0,5.2z"/></g>
<g transform="translate(696,456) scale(4.12)"><rect width="6" height="6"/></g>
<g transform="translate(744,456) scale(4.12)"><path d="M6,0v6H2C0.9,6,0,5.1,0,4V0H6z"/></g>
<g transform="translate(768,456) scale(4.12)"><path d="M0,6V0h4c1.1,0,2,0.9,2,2v4H0z"/></g>
<g transform="translate(816,456) scale(4.12)"><path d="M5.2,6L5.2,6C3.8,6,0,1.4,0,0l0,0h6v5.2C6,5.6,5.6,6,5.2,6z"/></g>
<g transform="translate(48,480) scale(4.12)"><path d="M5.4,2.8C4.5,1.1,2.6-0.1,1.2,0c-1.3,0.1-1.6,1.6-0.7,3.2c1,1.7,2.8,2.9,4.2,2.8C6.1,5.9,6.4,4.4,5.4,2.8z"/></g>
<g transform="translate(96,480) scale(4.12)"><path d="M5.4,2.8C4.5,1.1,2.6-0.1,1.2,0c-1.3,0.1-1.6,1.6-0.7,3.2c1,1.7,2.8,2.9,4.2,2.8C6.1,5.9,6.4,4.4,5.4,2.8z"/></g>
<g transform="translate(168,480) scale(4.12)"><rect width="6" height="6"/></g>
<g transform="translate(192,480) scale(4.12)"><rect width="6" height="6"/></g>
<g transform="translate(216,480) scale(4.12)"><rect width="6" height="6"/></g>
<g transform="translate(240,480) scale(4.12)"><rect width="6" height="6"/></g>
<g transform="translate(264,480) scale(4.12)"><rect width="6" height="6"/></g>
<g transform="translate(312,480) scale(4.12)"><path d="M5.4,2.8C4.5,1.1,2.6-0.1,1.2,0c-1.3,0.1-1.6,1.6-0.7,3.2c1,1.7,2.8,2.9,4.2,2.8C6.1,5.9,6.4,4.4,5.4,2.8z"/></g>
<g transform="translate(384,480) scale(4.12)"><path d="M0,5.2L0,5.2C0,3.8,4.6,0,6,0l0,0v6H0.8C0.4,6,0,5.6,0,5.2z"/></g>
<g transform="translate(408,480) scale(4.12)"><path d="M0,0h6v4c0,1.1-0.9,2-2,2H0V0z"/></g>
<g transform="translate(480,480) scale(4.12)"><path d="M5.4,2.8C4.5,1.1,2.6-0.1,1.2,0c-1.3,0.1-1.6,1.6-0.7,3.2c1,1.7,2.8,2.9,4.2,2.8C6.1,5.9,6.4,4.4,5.4,2.8z"/></g>
<g transform="translate(528,480) scale(4.12)"><rect width="6" height="6"/></g>
<g transform="translate(552,480) scale(4.12)"><rect width="6" height="6"/></g>
<g transform="translate(648,480) scale(4.12)"><path d="M0.8,0L0.8,0C2.2,0,6,4.6,6,6l0,0H0V0.8C0,0.4,0.4,0,0.8,0z"/></g>
<g transform="translate(696,480) scale(4.12)"><rect width="6" height="6"/></g>
<g transform="translate(720,480) scale(4.12)"><path d="M0,6V0h4c1.1,0,2,0.9,2,2v4H0z"/></g>
<g transform="translate(768,480) scale(4.12)"><rect width="6" height="6"/></g>
<g transform="translate(792,480) scale(4.12)"><path d="M0,6V0h4c1.1,0,2,0.9,2,2v4H0z"/></g>
<g transform="translate(120,504) scale(4.12)"><path d="M0.8,0L0.8,0C2.2,0,6,4.6,6,6l0,0H0V0.8C0,0.4,0.4,0,0.8,0z"/></g>
<g transform="translate(168,504) scale(4.12)"><path d="M5.2,6L5.2,6C3.8,6,0,1.4,0,0l0,0h6v5.2C6,5.6,5.6,6,5.2,6z"/></g>
<g transform="translate(216,504) scale(4.12)"><rect width="6" height="6"/></g>
<g transform="translate(264,504) scale(4.12)"><rect width="6" height="6"/></g>
<g transform="translate(288,504) scale(4.12)"><path d="M6,0.8L6,0.8C6,2.2,1.4,6,0,6l0,0V0h5.2C5.6,0,6,0.4,6,0.8z"/></g>
<g transform="translate(504,504) scale(4.12)"><path d="M6,6H0V2c0-1.1,0.9-2,2-2h4V6z"/></g>
<g transform="translate(528,504) scale(4.12)"><rect width="6" height="6"/></g>
<g transform="translate(552,504) scale(4.12)"><rect width="6" height="6"/></g>
<g transform="translate(576,504) scale(4.12)"><path d="M6,0.8L6,0.8C6,2.2,1.4,6,0,6l0,0V0h5.2C5.6,0,6,0.4,6,0.8z"/></g>
<g transform="translate(624,504) scale(4.12)"><path d="M6,6H0V2c0-1.1,0.9-2,2-2h4V6z"/></g>
<g transform="translate(648,504) scale(4.12)"><rect width="6" height="6"/></g>
<g transform="translate(672,504) scale(4.12)"><rect width="6" height="6"/></g>
<g transform="translate(696,504) scale(4.12)"><rect width="6" height="6"/></g>
<g transform="translate(720,504) scale(4.12)"><rect width="6" height="6"/></g>
<g transform="translate(744,504) scale(4.12)"><rect width="6" height="6"/></g>
<g transform="translate(768,504) scale(4.12)"><rect width="6" height="6"/></g>
<g transform="translate(792,504) scale(4.12)"><rect width="6" height="6"/></g>
<g transform="translate(96,528) scale(4.12)"><path d="M6,6H0V2c0-1.1,0.9-2,2-2h4V6z"/></g>
<g transform="translate(120,528) scale(4.12)"><rect width="6" height="6"/></g>
<g transform="translate(144,528) scale(4.12)"><path d="M0,6V0h4c1.1,0,2,0.9,2,2v4H0z"/></g>
<g transform="translate(192,528) scale(4.12)"><path d="M0,5.2L0,5.2C0,3.8,4.6,0,6,0l0,0v6H0.8C0.4,6,0,5.6,0,5.2z"/></g>
<g transform="translate(216,528) scale(4.12)"><rect width="6" height="6"/></g>
<g transform="translate(240,528) scale(4.12)"><rect width="6" height="6"/></g>
<g transform="translate(264,528) scale(4.12)"><path d="M0,0h6v4c0,1.1-0.9,2-2,2H0V0z"/></g>
<g transform="translate(336,528) scale(4.12)"><path d="M0.8,0L0.8,0C2.2,0,6,4.6,6,6l0,0H0V0.8C0,0.4,0.4,0,0.8,0z"/></g>
<g transform="translate(432,528) scale(4.12)"><path d="M0,5.2L0,5.2C0,3.8,4.6,0,6,0l0,0v6H0.8C0.4,6,0,5.6,0,5.2z"/></g>
<g transform="translate(456,528) scale(4.12)"><path d="M0,6V0h4c1.1,0,2,0.9,2,2v4H0z"/></g>
<g transform="translate(504,528) scale(4.12)"><path d="M5.2,6L5.2,6C3.8,6,0,1.4,0,0l0,0h6v5.2C6,5.6,5.6,6,5.2,6z"/></g>
<g transform="translate(552,528) scale(4.12)"><rect width="6" height="6"/></g>
<g transform="translate(624,528) scale(4.12)"><path d="M6,0v6H2C0.9,6,0,5.1,0,4V0H6z"/></g>
<g transform="translate(648,528) scale(4.12)"><rect width="6" height="6"/></g>
<g transform="translate(696,528) scale(4.12)"><path d="M6,0v6H2C0.9,6,0,5.1,0,4V0H6z"/></g>
<g transform="translate(720,528) scale(4.12)"><rect width="6" height="6"/></g>
<g transform="translate(744,528) scale(4.12)"><path d="M0,0h6v4c0,1.1-0.9,2-2,2H0V0z"/></g>
<g transform="translate(792,528) scale(4.12)"><path d="M5.2,6L5.2,6C3.8,6,0,1.4,0,0l0,0h6v5.2C6,5.6,5.6,6,5.2,6z"/></g>
<g transform="translate(48,552) scale(4.12)"><path d="M0.8,0L0.8,0C2.2,0,6,4.6,6,6l0,0H0V0.8C0,0.4,0.4,0,0.8,0z"/></g>
<g transform="translate(96,552) scale(4.12)"><rect width="6" height="6"/></g>
<g transform="translate(144,552) scale(4.12)"><path d="M6,0v6H2C0.9,6,0,5.1,0,4V0H6z"/></g>
<g transform="translate(168,552) scale(4.12)"><path d="M6,0.8L6,0.8C6,2.2,1.4,6,0,6l0,0V0h5.2C5.6,0,6,0.4,6,0.8z"/></g>
<g transform="translate(216,552) scale(4.12)"><rect width="6" height="6"/></g>
<g transform="translate(240,552) scale(4.12)"><path d="M0,0h6v4c0,1.1-0.9,2-2,2H0V0z"/></g>
<g transform="translate(288,552) scale(4.12)"><path d="M6,6H0V2c0-1.1,0.9-2,2-2h4V6z"/></g>
<g transform="translate(312,552) scale(4.12)"><rect width="6" height="6"/></g>
<g transform="translate(336,552) scale(4.12)"><rect width="6" height="6"/></g>
<g transform="translate(384,552) scale(4.12)"><path d="M5.4,2.8C4.5,1.1,2.6-0.1,1.2,0c-1.3,0.1-1.6,1.6-0.7,3.2c1,1.7,2.8,2.9,4.2,2.8C6.1,5.9,6.4,4.4,5.4,2.8z"/></g>
<g transform="translate(456,552) scale(4.12)"><path d="M6,0v6H2C0.9,6,0,5.1,0,4V0H6z"/></g>
<g transform="translate(480,552) scale(4.12)"><path d="M6,0.8L6,0.8C6,2.2,1.4,6,0,6l0,0V0h5.2C5.6,0,6,0.4,6,0.8z"/></g>
<g transform="translate(528,552) scale(4.12)"><path d="M0,5.2L0,5.2C0,3.8,4.6,0,6,0l0,0v6H0.8C0.4,6,0,5.6,0,5.2z"/></g>
<g transform="translate(552,552) scale(4.12)"><rect width="6" height="6"/></g>
<g transform="translate(576,552) scale(4.12)"><rect width="6" height="6"/></g>
<g transform="translate(600,552) scale(4.12)"><path d="M6,0.8L6,0.8C6,2.2,1.4,6,0,6l0,0V0h5.2C5.6,0,6,0.4,6,0.8z"/></g>
<g transform="translate(648,552) scale(4.12)"><rect width="6" height="6"/></g>
<g transform="translate(672,552) scale(4.12)"><path d="M0,6V0h4c1.1,0,2,0.9,2,2v4H0z"/></g>
<g transform="translate(768,552) scale(4.12)"><path d="M0.8,0L0.8,0C2.2,0,6,4.6,6,6l0,0H0V0.8C0,0.4,0.4,0,0.8,0z"/></g>
<g transform="translate(816,552) scale(4.12)"><path d="M5.4,2.8C4.5,1.1,2.6-0.1,1.2,0c-1.3,0.1-1.6,1.6-0.7,3.2c1,1.7,2.8,2.9,4.2,2.8C6.1,5.9,6.4,4.4,5.4,2.8z"/></g>
<g transform="translate(48,576) scale(4.12)"><rect width="6" height="6"/></g>
<g transform="translate(96,576) scale(4.12)"><path d="M6,0v6H2C0.9,6,0,5.1,0,4V0H6z"/></g>
<g transform="translate(120,576) scale(4.12)"><path d="M6,0.8L6,0.8C6,2.2,1.4,6,0,6l0,0V0h5.2C5.6,0,6,0.4,6,0.8z"/></g>
<g transform="translate(192,576) scale(4.12)"><path d="M0,5.2L0,5.2C0,3.8,4.6,0,6,0l0,0v6H0.8C0.4,6,0,5.6,0,5.2z"/></g>
<g transform="translate(216,576) scale(4.12)"><path d="M0,0h6v4c0,1.1-0.9,2-2,2H0V0z"/></g>
<g transform="translate(288,576) scale(4.12)"><path d="M5.2,6L5.2,6C3.8,6,0,1.4,0,0l0,0h6v5.2C6,5.6,5.6,6,5.2,6z"/></g>
<g transform="translate(336,576) scale(4.12)"><path d="M6,0v6H2C0.9,6,0,5.1,0,4V0H6z"/></g>
<g transform="translate(360,576) scale(4.12)"><path d="M0,6V0h4c1.1,0,2,0.9,2,2v4H0z"/></g>
<g transform="translate(432,576) scale(4.12)"><path d="M0.8,0L0.8,0C2.2,0,6,4.6,6,6l0,0H0V0.8C0,0.4,0.4,0,0.8,0z"/></g>
<g transform="translate(504,576) scale(4.12)"><path d="M0.8,0L0.8,0C2.2,0,6,4.6,6,6l0,0H0V0.8C0,0.4,0.4,0,0.8,0z"/></g>
<g transform="translate(552,576) scale(4.12)"><rect width="6" height="6"/></g>
<g transform="translate(648,576) scale(4.12)"><rect width="6" height="6"/></g>
<g transform="translate(672,576) scale(4.12)"><rect width="6" height="6"/></g>
<g transform="translate(696,576) scale(4.12)"><path d="M6,0.8L6,0.8C6,2.2,1.4,6,0,6l0,0V0h5.2C5.6,0,6,0.4,6,0.8z"/></g>
<g transform="translate(768,576) scale(4.12)"><rect width="6" height="6"/></g>
<g transform="translate(792,576) scale(4.12)"><path d="M0,6V0h4c1.1,0,2,0.9,2,2v4H0z"/></g>
<g transform="translate(48,600) scale(4.12)"><rect width="6" height="6"/></g>
<g transform="translate(168,600) scale(4.12)"><path d="M0.8,0L0.8,0C2.2,0,6,4.6,6,6l0,0H0V0.8C0,0.4,0.4,0,0.8,0z"/></g>
<g transform="translate(240,600) scale(4.12)"><path d="M5.4,2.8C4.5,1.1,2.6-0.1,1.2,0c-1.3,0.1-1.6,1.6-0.7,3.2c1,1.7,2.8,2.9,4.2,2.8C6.1,5.9,6.4,4.4,5.4,2.8z"/></g>
<g transform="translate(312,600) scale(4.12)"><path d="M0.8,0L0.8,0C2.2,0,6,4.6,6,6l0,0H0V0.8C0,0.4,0.4,0,0.8,0z"/></g>
<g transform="translate(360,600) scale(4.12)"><path d="M5.2,6L5.2,6C3.8,6,0,1.4,0,0l0,0h6v5.2C6,5.6,5.6,6,5.2,6z"/></g>
<g transform="translate(408,600) scale(4.12)"><path d="M0,5.2L0,5.2C0,3.8,4.6,0,6,0l0,0v6H0.8C0.4,6,0,5.6,0,5.2z"/></g>
<g transform="translate(432,600) scale(4.12)"><rect width="6" height="6"/></g>
<g transform="translate(480,600) scale(4.12)"><path d="M0,5.2L0,5.2C0,3.8,4.6,0,6,0l0,0v6H0.8C0.4,6,0,5.6,0,5.2z"/></g>
<g transform="translate(504,600) scale(4.12)"><rect width="6" height="6"/></g>
<g transform="translate(528,600) scale(4.12)"><rect width="6" height="6"/></g>
<g transform="translate(552,600) scale(4.12)"><path d="M0,0h6v4c0,1.1-0.9,2-2,2H0V0z"/></g>
<g transform="translate(624,600) scale(4.12)"><path d="M6,6H0V2c0-1.1,0.9-2,2-2h4V6z"/></g>
<g transform="translate(648,600) scale(4.12)"><rect width="6" height="6"/></g>
<g transform="translate(744,600) scale(4.12)"><path d="M0,5.2L0,5.2C0,3.8,4.6,0,6,0l0,0v6H0.8C0.4,6,0,5.6,0,5.2z"/></g>
<g transform="translate(768,600) scale(4.12)"><rect width="6" height="6"/></g>
<g transform="translate(792,600) scale(4.12)"><rect width="6" height="6"/></g>
<g transform="translate(48,624) scale(4.12)"><path d="M5.2,6L5.2,6C3.8,6,0,1.4,0,0l0,0h6v5.2C6,5.6,5.6,6,5.2,6z"/></g>
<g transform="translate(120,624) scale(4.12)"><path d="M0,5.2L0,5.2C0,3.8,4.6,0,6,0l0,0v6H0.8C0.4,6,0,5.6,0,5.2z"/></g>
<g transform="translate(144,624) scale(4.12)"><rect width="6" height="6"/></g>
<g transform="translate(168,624) scale(4.12)"><rect width="6" height="6"/></g>
<g transform="translate(192,624) scale(4.12)"><path d="M6,0.8L6,0.8C6,2.2,1.4,6,0,6l0,0V0h5.2C5.6,0,6,0.4,6,0.8z"/></g>
<g transform="translate(312,624) scale(4.12)"><path d="M5.2,6L5.2,6C3.8,6,0,1.4,0,0l0,0h6v5.2C6,5.6,5.6,6,5.2,6z"/></g>
<g transform="translate(432,624) scale(4.12)"><path d="M6,0v6H2C0.9,6,0,5.1,0,4V0H6z"/></g>
<g transform="translate(456,624) scale(4.12)"><path d="M6,0.8L6,0.8C6,2.2,1.4,6,0,6l0,0V0h5.2C5.6,0,6,0.4,6,0.8z"/></g>
<g transform="translate(504,624) scale(4.12)"><rect width="6" height="6"/></g>
<g transform="translate(600,624) scale(4.12)"><path d="M6,6H0V2c0-1.1,0.9-2,2-2h4V6z"/></g>
<g transform="translate(624,624) scale(4.12)"><rect width="6" height="6"/></g>
<g transform="translate(648,624) scale(4.12)"><rect width="6" height="6"/></g>
<g transform="translate(672,624) scale(4.12)"><rect width="6" height="6"/></g>
<g transform="translate(696,624) scale(4.12)"><rect width="6" height="6"/></g>
<g transform="translate(720,624) scale(4.12)"><path d="M0,6V0h4c1.1,0,2,0.9,2,2v4H0z"/></g>
<g transform="translate(792,624) scale(4.12)"><path d="M5.2,6L5.2,6C3.8,6,0,1.4,0,0l0,0h6v5.2C6,5.6,5.6,6,5.2,6z"/></g>
<g transform="translate(240,648) scale(4.12)"><path d="M0.8,0L0.8,0C2.2,0,6,4.6,6,6l0,0H0V0.8C0,0.4,0.4,0,0.8,0z"/></g>
<g transform="translate(408,648) scale(4.12)"><path d="M5.4,2.8C4.5,1.1,2.6-0.1,1.2,0c-1.3,0.1-1.6,1.6-0.7,3.2c1,1.7,2.8,2.9,4.2,2.8C6.1,5.9,6.4,4.4,5.4,2.8z"/></g>
<g transform="translate(480,648) scale(4.12)"><path d="M6,6H0V2c0-1.1,0.9-2,2-2h4V6z"/></g>
<g transform="translate(504,648) scale(4.12)"><rect width="6" height="6"/></g>
<g transform="translate(528,648) scale(4.12)"><path d="M0,6V0h4c1.1,0,2,0.9,2,2v4H0z"/></g>
<g transform="translate(600,648) scale(4.12)"><rect width="6" height="6"/></g>
<g transform="translate(624,648) scale(4.12)"><rect width="6" height="6"/></g>
<g transform="translate(720,648) scale(4.12)"><rect width="6" height="6"/></g>
<g transform="translate(768,648) scale(4.12)"><path d="M0.8,0L0.8,0C2.2,0,6,4.6,6,6l0,0H0V0.8C0,0.4,0.4,0,0.8,0z"/></g>
<g transform="translate(816,648) scale(4.12)"><path d="M5.4,2.8C4.5,1.1,2.6-0.1,1.2,0c-1.3,0.1-1.6,1.6-0.7,3.2c1,1.7,2.8,2.9,4.2,2.8C6.1,5.9,6.4,4.4,5.4,2.8z"/></g>
<g transform="translate(240,672) scale(4.12)"><rect width="6" height="6"/></g>
<g transform="translate(288,672) scale(4.12)"><path d="M0,5.2L0,5.2C0,3.8,4.6,0,6,0l0,0v6H0.8C0.4,6,0,5.6,0,5.2z"/></g>
<g transform="translate(312,672) scale(4.12)"><path d="M0,6V0h4c1.1,0,2,0.9,2,2v4H0z"/></g>
<g transform="translate(360,672) scale(4.12)"><path d="M0.8,0L0.8,0C2.2,0,6,4.6,6,6l0,0H0V0.8C0,0.4,0.4,0,0.8,0z"/></g>
<g transform="translate(480,672) scale(4.12)"><path d="M5.2,6L5.2,6C3.8,6,0,1.4,0,0l0,0h6v5.2C6,5.6,5.6,6,5.2,6z"/></g>
<g transform="translate(528,672) scale(4.12)"><path d="M5.2,6L5.2,6C3.8,6,0,1.4,0,0l0,0h6v5.2C6,5.6,5.6,6,5.2,6z"/></g>
<g transform="translate(576,672) scale(4.12)"><path d="M0,5.2L0,5.2C0,3.8,4.6,0,6,0l0,0v6H0.8C0.4,6,0,5.6,0,5.2z"/></g>
<g transform="translate(600,672) scale(4.12)"><rect width="6" height="6"/></g>
<g transform="translate(624,672) scale(4.12)"><rect width="6" height="6"/></g>
<g transform="translate(672,672) scale(4.12)"><path d="M5.4,2.8C4.5,1.1,2.6-0.1,1.2,0c-1.3,0.1-1.6,1.6-0.7,3.2c1,1.7,2.8,2.9,4.2,2.8C6.1,5.9,6.4,4.4,5.4,2.8z"/></g>
<g transform="translate(720,672) scale(4.12)"><rect width="6" height="6"/></g>
<g transform="translate(768,672) scale(4.12)"><rect width="6" height="6"/></g>
<g transform="translate(792,672) scale(4.12)"><path d="M6,0.8L6,0.8C6,2.2,1.4,6,0,6l0,0V0h5.2C5.6,0,6,0.4,6,0.8z"/></g>
<g transform="translate(240,696) scale(4.12)"><rect width="6" height="6"/></g>
<g transform="translate(312,696) scale(4.12)"><path d="M6,0v6H2C0.9,6,0,5.1,0,4V0H6z"/></g>
<g transform="translate(336,696) scale(4.12)"><rect width="6" height="6"/></g>
<g transform="translate(360,696) scale(4.12)"><rect width="6" height="6"/></g>
<g transform="translate(384,696) scale(4.12)"><path d="M6,0.8L6,0.8C6,2.2,1.4,6,0,6l0,0V0h5.2C5.6,0,6,0.4,6,0.8z"/></g>
<g transform="translate(432,696) scale(4.12)"><path d="M5.4,2.8C4.5,1.1,2.6-0.1,1.2,0c-1.3,0.1-1.6,1.6-0.7,3.2c1,1.7,2.8,2.9,4.2,2.8C6.1,5.9,6.4,4.4,5.4,2.8z"/></g>
<g transform="translate(504,696) scale(4.12)"><path d="M5.4,2.8C4.5,1.1,2.6-0.1,1.2,0c-1.3,0.1-1.6,1.6-0.7,3.2c1,1.7,2.8,2.9,4.2,2.8C6.1,5.9,6.4,4.4,5.4,2.8z"/></g>
<g transform="translate(600,696) scale(4.12)"><path d="M6,0v6H2C0.9,6,0,5.1,0,4V0H6z"/></g>
<g transform="translate(624,696) scale(4.12)"><rect width="6" height="6"/></g>
<g transform="translate(720,696) scale(4.12)"><rect width="6" height="6"/></g>
<g transform="translate(744,696) scale(4.12)"><rect width="6" height="6"/></g>
<g transform="translate(768,696) scale(4.12)"><path d="M0,0h6v4c0,1.1-0.9,2-2,2H0V0z"/></g>
<g transform="translate(240,720) scale(4.12)"><rect width="6" height="6"/></g>
<g transform="translate(264,720) scale(4.12)"><rect width="6" height="6"/></g>
<g transform="translate(288,720) scale(4.12)"><path d="M0,6V0h4c1.1,0,2,0.9,2,2v4H0z"/></g>
<g transform="translate(336,720) scale(4.12)"><path d="M6,0v6H2C0.9,6,0,5.1,0,4V0H6z"/></g>
<g transform="translate(360,720) scale(4.12)"><rect width="6" height="6"/></g>
<g transform="translate(408,720) scale(4.12)"><path d="M5.4,2.8C4.5,1.1,2.6-0.1,1.2,0c-1.3,0.1-1.6,1.6-0.7,3.2c1,1.7,2.8,2.9,4.2,2.8C6.1,5.9,6.4,4.4,5.4,2.8z"/></g>
<g transform="translate(528,720) scale(4.12)"><path d="M0,5.2L0,5.2C0,3.8,4.6,0,6,0l0,0v6H0.8C0.4,6,0,5.6,0,5.2z"/></g>
<g transform="translate(552,720) scale(4.12)"><rect width="6" height="6"/></g>
<g transform="translate(576,720) scale(4.12)"><path d="M6,0.8L6,0.8C6,2.2,1.4,6,0,6l0,0V0h5.2C5.6,0,6,0.4,6,0.8z"/></g>
<g transform="translate(624,720) scale(4.12)"><rect width="6" height="6"/></g>
<g transform="translate(648,720) scale(4.12)"><rect width="6" height="6"/></g>
<g transform="translate(672,720) scale(4.12)"><rect width="6" height="6"/></g>
<g transform="translate(696,720) scale(4.12)"><rect width="6" height="6"/></g>
<g transform="translate(720,720) scale(4.12)"><rect width="6" height="6"/></g>
<g transform="translate(744,720) scale(4.12)"><path d="M0,0h6v4c0,1.1-0.9,2-2,2H0V0z"/></g>
<g transform="translate(816,720) scale(4.12)"><path d="M0.8,0L0.8,0C2.2,0,6,4.6,6,6l0,0H0V0.8C0,0.4,0.4,0,0.8,0z"/></g>
<g transform="translate(240,744) scale(4.12)"><rect width="6" height="6"/></g>
<g transform="translate(264,744) scale(4.12)"><rect width="6" height="6"/></g>
<g transform="translate(288,744) scale(4.12)"><rect width="6" height="6"/></g>
<g transform="translate(312,744) scale(4.12)"><path d="M0,6V0h4c1.1,0,2,0.9,2,2v4H0z"/></g>
<g transform="translate(360,744) scale(4.12)"><path d="M6,0v6H2C0.9,6,0,5.1,0,4V0H6z"/></g>
<g transform="translate(384,744) scale(4.12)"><path d="M0,6V0h4c1.1,0,2,0.9,2,2v4H0z"/></g>
<g transform="translate(432,744) scale(4.12)"><path d="M6,6H0V2c0-1.1,0.9-2,2-2h4V6z"/></g>
<g transform="translate(456,744) scale(4.12)"><path d="M0,6V0h4c1.1,0,2,0.9,2,2v4H0z"/></g>
<g transform="translate(600,744) scale(4.12)"><path d="M0,5.2L0,5.2C0,3.8,4.6,0,6,0l0,0v6H0.8C0.4,6,0,5.6,0,5.2z"/></g>
<g transform="translate(624,744) scale(4.12)"><rect width="6" height="6"/></g>
<g transform="translate(648,744) scale(4.12)"><rect width="6" height="6"/></g>
<g transform="translate(720,744) scale(4.12)"><path d="M5.2,6L5.2,6C3.8,6,0,1.4,0,0l0,0h6v5.2C6,5.6,5.6,6,5.2,6z"/></g>
<g transform="translate(816,744) scale(4.12)"><path d="M5.2,6L5.2,6C3.8,6,0,1.4,0,0l0,0h6v5.2C6,5.6,5.6,6,5.2,6z"/></g>
<g transform="translate(240,768) scale(4.12)"><rect width="6" height="6"/></g>
<g transform="translate(264,768) scale(4.12)"><rect width="6" height="6"/></g>
<g transform="translate(288,768) scale(4.12)"><rect width="6" height="6"/></g>
<g transform="translate(312,768) scale(4.12)"><path d="M0,0h6v4c0,1.1-0.9,2-2,2H0V0z"/></g>
<g transform="translate(384,768) scale(4.12)"><rect width="6" height="6"/></g>
<g transform="translate(408,768) scale(4.12)"><rect width="6" height="6"/></g>
<g transform="translate(432,768) scale(4.12)"><rect width="6" height="6"/></g>
<g transform="translate(456,768) scale(4.12)"><rect width="6" height="6"/></g>
<g transform="translate(480,768) scale(4.12)"><path d="M6,0.8L6,0.8C6,2.2,1.4,6,0,6l0,0V0h5.2C5.6,0,6,0.4,6,0.8z"/></g>
<g transform="translate(528,768) scale(4.12)"><path d="M5.4,2.8C4.5,1.1,2.6-0.1,1.2,0c-1.3,0.1-1.6,1.6-0.7,3.2c1,1.7,2.8,2.9,4.2,2.8C6.1,5.9,6.4,4.4,5.4,2.8z"/></g>
<g transform="translate(576,768) scale(4.12)"><path d="M5.4,2.8C4.5,1.1,2.6-0.1,1.2,0c-1.3,0.1-1.6,1.6-0.7,3.2c1,1.7,2.8,2.9,4.2,2.8C6.1,5.9,6.4,4.4,5.4,2.8z"/></g>
<g transform="translate(648,768) scale(4.12)"><path d="M6,0v6H2C0.9,6,0,5.1,0,4V0H6z"/></g>
<g transform="translate(672,768) scale(4.12)"><rect width="6" height="6"/></g>
<g transform="translate(696,768) scale(4.12)"><path d="M6,0.8L6,0.8C6,2.2,1.4,6,0,6l0,0V0h5.2C5.6,0,6,0.4,6,0.8z"/></g>
<g transform="translate(744,768) scale(4.12)"><path d="M6,6H0V2c0-1.1,0.9-2,2-2h4V6z"/></g>
<g transform="translate(768,768) scale(4.12)"><path d="M0,6V0h4c1.1,0,2,0.9,2,2v4H0z"/></g>
<g transform="translate(240,792) scale(4.12)"><path d="M5.2,6L5.2,6C3.8,6,0,1.4,0,0l0,0h6v5.2C6,5.6,5.6,6,5.2,6z"/></g>
<g transform="translate(288,792) scale(4.12)"><path d="M5.2,6L5.2,6C3.8,6,0,1.4,0,0l0,0h6v5.2C6,5.6,5.6,6,5.2,6z"/></g>
<g transform="translate(384,792) scale(4.12)"><path d="M5.2,6L5.2,6C3.8,6,0,1.4,0,0l0,0h6v5.2C6,5.6,5.6,6,5.2,6z"/></g>
<g transform="translate(552,792) scale(4.12)"><path d="M5.4,2.8C4.5,1.1,2.6-0.1,1.2,0c-1.3,0.1-1.6,1.6-0.7,3.2c1,1.7,2.8,2.9,4.2,2.8C6.1,5.9,6.4,4.4,5.4,2.8z"/></g>
<g transform="translate(720,792) scale(4.12)"><path d="M0,5.2L0,5.2C0,3.8,4.6,0,6,0l0,0v6H0.8C0.4,6,0,5.6,0,5.2z"/></g>
<g transform="translate(744,792) scale(4.12)"><rect width="6" height="6"/></g>
<g transform="translate(768,792) scale(4.12)"><path d="M0,0h6v4c0,1.1-0.9,2-2,2H0V0z"/></g>
<g transform="translate(264,816) scale(4.12)"><path d="M5.4,2.8C4.5,1.1,2.6-0.1,1.2,0c-1.3,0.1-1.6,1.6-0.7,3.2c1,1.7,2.8,2.9,4.2,2.8C6.1,5.9,6.4,4.4,5.4,2.8z"/></g>
<g transform="translate(312,816) scale(4.12)"><path d="M0,5.2L0,5.2C0,3.8,4.6,0,6,0l0,0v6H0.8C0.4,6,0,5.6,0,5.2z"/></g>
<g transform="translate(336,816) scale(4.12)"><rect width="6" height="6"/></g>
<g transform="translate(360,816) scale(4.12)"><path d="M6,0.8L6,0.8C6,2.2,1.4,6,0,6l0,0V0h5.2C5.6,0,6,0.4,6,0.8z"/></g>
<g transform="translate(408,816) scale(4.12)"><path d="M5.4,2.8C4.5,1.1,2.6-0.1,1.2,0c-1.3,0.1-1.6,1.6-0.7,3.2c1,1.7,2.8,2.9,4.2,2.8C6.1,5.9,6.4,4.4,5.4,2.8z"/></g>
<g transform="translate(456,816) scale(4.12)"><path d="M0,5.2L0,5.2C0,3.8,4.6,0,6,0l0,0v6H0.8C0.4,6,0,5.6,0,5.2z"/></g>
<g transform="translate(480,816) scale(4.12)"><path d="M6,0.8L6,0.8C6,2.2,1.4,6,0,6l0,0V0h5.2C5.6,0,6,0.4,6,0.8z"/></g>
<g transform="translate(576,816) scale(4.12)"><path d="M0,5.2L0,5.2C0,3.8,4.6,0,6,0l0,0v6H0.8C0.4,6,0,5.6,0,5.2z"/></g>
<g transform="translate(600,816) scale(4.12)"><rect width="6" height="6"/></g>
<g transform="translate(624,816) scale(4.12)"><path d="M6,0.8L6,0.8C6,2.2,1.4,6,0,6l0,0V0h5.2C5.6,0,6,0.4,6,0.8z"/></g>
<g transform="translate(672,816) scale(4.12)"><path d="M0,5.2L0,5.2C0,3.8,4.6,0,6,0l0,0v6H0.8C0.4,6,0,5.6,0,5.2z"/></g>
<g transform="translate(696,816) scale(4.12)"><path d="M6,0.8L6,0.8C6,2.2,1.4,6,0,6l0,0V0h5.2C5.6,0,6,0.4,6,0.8z"/></g>
<g transform="translate(744,816) scale(4.12)"><path d="M5.2,6L5.2,6C3.8,6,0,1.4,0,0l0,0h6v5.2C6,5.6,5.6,6,5.2,6z"/></g>
<g transform="translate(792,816) scale(4.12)"><path d="M5.4,2.8C4.5,1.1,2.6-0.1,1.2,0c-1.3,0.1-1.6,1.6-0.7,3.2c1,1.7,2.8,2.9,4.2,2.8C6.1,5.9,6.4,4.4,5.4,2.8z"/></g>
<g transform="translate(48,48)"><g transform="scale(12)"><path d="M0,0l0,7c0,3.9,3.1,7,7,7h7V7c0-3.9-3.1-7-7-7H0z M7,12L7,12c-2.8,0-5-2.2-5-5v0c0-2.8,2.2-5,5-5h0c2.8,0,5,2.2,5,5v0 C12,9.8,9.8,12,7,12z"/></g></g>
<g transform="translate(672,48)"><g transform="scale(12) rotate(90 7 7)"><path d="M0,0l0,7c0,3.9,3.1,7,7,7h7V7c0-3.9-3.1-7-7-7H0z M7,12L7,12c-2.8,0-5-2.2-5-5v0c0-2.8,2.2-5,5-5h0c2.8,0,5,2.2,5,5v0 C12,9.8,9.8,12,7,12z"/></g></g>
<g transform="translate(48,672)"><g transform="scale(12) rotate(-90 7 7)"><path d="M0,0l0,7c0,3.9,3.1,7,7,7h7V7c0-3.9-3.1-7-7-7H0z M7,12L7,12c-2.8,0-5-2.2-5-5v0c0-2.8,2.2-5,5-5h0c2.8,0,5,2.2,5,5v0 C12,9.8,9.8,12,7,12z"/></g></g>
<g transform="translate(96,96)"><g transform="scale(12)"><polygon points="6,6 3,6 0,3 0,0 3,0 6,3 "/></g></g>
<g transform="translate(720,96)"><g transform="scale(12) rotate(90 3 3)"><polygon points="6,6 3,6 0,3 0,0 3,0 6,3 "/></g></g>
<g transform="translate(96,720)"><g transform="scale(12) rotate(-90 3 3)"><polygon points="6,6 3,6 0,3 0,0 3,0 6,3 "/></g></g>
</g></svg>
