<?xml version="1.0" encoding="UTF-8"?>
<svg id="Layer_1" xmlns="http://www.w3.org/2000/svg" viewBox="0 0 48 48">
    <g>
        <rect x="5" y="21" width="10" height="16.01" rx="2" ry="2" fill="#fff"/>
        <rect x="19" y="12.76" width="10" height="24.25" rx="2" ry="2" fill="#fff"/>
        <rect x="33" y="5" width="10" height="32.01" rx="2" ry="2" fill="#fff"/>
    </g>
    <rect x="4" y="40.01" width="40" height="3.99" rx="2" ry="2" fill="#1d59f9"/>
    <g>
        <path d="M13,20H7c-1.65,0-3,1.34-3,3v12.01c0,1.65,1.34,3,3,3h6.01c1.65,0,3-1.34,3-3v-12.01c0-1.65-1.34-3-3-3Zm1,15.01c0,.55-.45,1-1,1H7c-.55,0-1-.45-1-1v-12.01c0-.55,.45-1,1-1h6.01c.55,0,1,.45,1,1v12.01Z" fill="#220e27"/>
        <path d="M27,11.76h-6.01c-1.65,0-3,1.34-3,3v20.25c0,1.65,1.34,3,3,3h6.01c1.65,0,3-1.34,3-3V14.76c0-1.65-1.34-3-3-3Zm1,23.25c0,.55-.45,1-1,1h-6.01c-.55,0-1-.45-1-1V14.76c0-.55,.45-1,1-1h6.01c.55,0,1,.45,1,1v20.25Z" fill="#220e27"/>
        <path d="M41,4h-6.01c-1.65,0-3,1.34-3,3v28.01c0,1.65,1.34,3,3,3h6.01c1.65,0,3-1.34,3-3V7c0-1.65-1.34-3-3-3Zm1,31.01c0,.55-.45,1-1,1h-6.01c-.55,0-1-.45-1-1V7c0-.55,.45-1,1-1h6.01c.55,0,1,.45,1,1v28.01Z" fill="#220e27"/>
        <rect x="37" y="31" width="3" height="3" fill="#220e27"/>
        <rect x="23" y="31" width="3" height="3" fill="#220e27"/>
        <rect x="9" y="31" width="3" height="3" fill="#220e27"/>
    </g>
</svg>