<svg xmlns="http://www.w3.org/2000/svg" viewBox="0 0 271.23 229.09"><defs><style>.cls-1{fill:#27c48a;}</style></defs><g id="Layer_2" data-name="Layer 2"><g id="Layer_1-2" data-name="Layer 1"><path class="cls-1" d="M0,217.83c2.17-5.22,6.1-7,11.67-7q124.44.15,248.9.07c5.69,0,9.06,2.21,10.34,6.76a8.93,8.93,0,0,1-7.78,11.23c-1.14.1-2.29.07-3.44.07q-124,0-248.1.08c-5.59,0-9.52-1.72-11.59-7Z"/><path d="M98.5,100.35q0-38.26,0-76.53C98.5,9,107.5,0,122.42,0c9.1,0,18.19,0,27.28,0,13.84.05,23.05,9.23,23.06,23.07q0,77.32,0,154.64c0,14-9.25,23.14-23.26,23.17q-13.89,0-27.8,0c-14,0-23.18-9.23-23.2-23.23Q98.47,139,98.5,100.35Zm56.21.16q0-38.67,0-77.34c0-3.84-1.23-5.08-5-5.09H121.86c-4.16,0-5.31,1.16-5.31,5.36V177.59c0,4,1.21,5.24,5.18,5.25H149c4.68,0,5.7-1,5.7-5.78Z"/><path d="M14.2,135.52c0-14.74,0-29.48,0-44.22,0-10.9,9.52-20.73,20.84-20.84,10.77-.11,21.54-.13,32.3,0,11.17.13,21,9.31,21.06,22.08q.14,43,0,86.06c-.06,13-9.55,22.19-22.55,22.29-9.53.07-19.07,0-28.6,0-13.84,0-23-9.13-23.12-23-.08-14.13,0-28.25,0-42.37Zm18-.05V177c0,4.86,1,5.8,5.92,5.8h27c3.94,0,5.24-1.29,5.24-5.24q0-42,0-83.95c0-4-1.23-5.21-5.21-5.21q-13.77,0-27.54,0c-4.43,0-5.42,1-5.42,5.46Z"/><path d="M257,150c0,10.14.32,20.3-.08,30.43a20.79,20.79,0,0,1-20.17,20.27c-11.19.46-22.43.49-33.61,0-11.69-.53-20.17-9.9-20.29-22-.18-19.41-.21-38.82,0-58.23.15-12.61,9.13-21.6,21.72-21.94q15.34-.42,30.7,0c13.09.33,21.73,9.52,21.84,22.88.08,9.53,0,19.06,0,28.59Zm-17.95-.54q0-13.77,0-27.53c0-4.37-1-5.38-5.48-5.38q-13.77,0-27.53,0c-3.92,0-5.15,1.26-5.16,5.27q0,27.8,0,55.58c0,4.18,1.23,5.42,5.32,5.43h27.52c4.19,0,5.33-1.13,5.33-5.32Q239.08,163.49,239.07,149.47Z"/></g></g></svg>