<?xml version="1.0" encoding="UTF-8"?>
<svg id="Layer_1" xmlns="http://www.w3.org/2000/svg" viewBox="0 0 48 48">
    <path d="M41,8h-3v-2c0-1.1-.89-2-2-2H12c-1.1,0-2,.89-2,2v2h-3c-1.1,0-2,.89-2,2v28.01c0,1.1,.89,2,2,2h3v2c0,1.1,.89,2,2,2h24.01c1.1,0,2-.89,2-2v-2h3c1.1,0,2-.89,2-2V10c0-1.1-.89-2-2-2Z" fill="#fff"/>
    <rect x="17" y="31.01" width="14" height="3.99" rx="2" ry="2" fill="#1d59f9"/>
    <g>
        <path d="M41,7h-2v-1c0-1.65-1.34-3-3-3H12c-1.65,0-3,1.34-3,3v1h-2c-1.65,0-3,1.34-3,3v28.01c0,1.65,1.34,3,3,3h2v1c0,1.65,1.34,3,3,3h24.01c1.65,0,3-1.34,3-3v-1h2c1.65,0,3-1.34,3-3V10c0-1.65-1.34-3-3-3ZM7,39c-.55,0-1-.45-1-1V10c0-.55,.45-1,1-1h2v30h-2Zm30,3c0,.55-.45,1-1,1H12c-.55,0-1-.45-1-1V6c0-.55,.45-1,1-1h24.01c.55,0,1,.45,1,1V42Zm5-4c0,.55-.45,1-1,1h-2V9h2c.55,0,1,.45,1,1v28.01Z" fill="#220e27"/>
        <rect x="16" y="11" width="16" height="2" fill="#220e27"/>
        <rect x="20" y="15" width="8" height="2" fill="#220e27"/>
        <rect x="15" y="23" width="3" height="3" fill="#220e27"/>
        <rect x="22.5" y="23" width="3" height="3" fill="#220e27"/>
        <rect x="30" y="23" width="3" height="3" fill="#220e27"/>
    </g>
</svg>