<svg xmlns="http://www.w3.org/2000/svg" viewBox="0 0 258.47 258.37"><defs><style>.cls-1{fill:#26c48a;}</style></defs><g id="Layer_2" data-name="Layer 2"><g id="Layer_1-2" data-name="Layer 1"><path d="M129,258.36H38.53C16,258.35.07,242.47.06,220a84.6,84.6,0,0,1,.18-10.08A18,18,0,0,1,16.07,194c2.25-.29,2.48-1,2.48-2.93-.05-32.19.28-64.38-.17-96.57-.24-17.44,13-30.8,29.9-29.93,2.27.12,5.36.78,6.65-.38,1.52-1.38.45-4.51.46-6.88.06-9.6,0-19.21,0-28.82C55.49,12,67.46.05,84,0Q129.28,0,174.53,0C191.06.05,203,12,203,28.58c0,11.24.05,22.49,0,33.73,0,1.91.53,2.37,2.38,2.34,4.59-.07,9.22-.39,13.75.82,12.56,3.35,20.8,14.08,20.81,27.39q.07,49,0,98c0,1.93.12,2.84,2.55,3.16a18.09,18.09,0,0,1,15.9,18.24c0,5.65.48,11.34-.79,16.94a36.86,36.86,0,0,1-36.29,29.14Q175.17,258.42,129,258.36Zm55.55-148.48V29.46c0-7.5-3.44-11-10.85-11H84.67c-7.29,0-10.8,3.49-10.8,10.73q0,80.86-.06,161.71c0,2.45.63,2.93,3,2.92q52.47-.12,104.93,0c2.41,0,2.95-.58,2.94-3C184.55,163.88,184.59,136.88,184.59,109.88ZM129.27,212.23q-51.87,0-103.75,0c-2.27,0-5.37-1-6.59.44s-.41,4.37-.41,6.66c0,13.11,7.41,20.56,20.46,20.56H170.11c17.1,0,34.2,0,51.3,0a18.28,18.28,0,0,0,18.18-15c.67-3.24.08-6.53.4-9.77.25-2.42-.55-3-2.93-2.94Q183.17,212.29,129.27,212.23ZM55.42,138.59c0-17.67,0-35.34,0-53,0-1.9-.27-2.78-2.42-2.58s-4.61,0-6.91.06A9.06,9.06,0,0,0,37,92.24c-.05,33.23,0,66.45-.06,99.68,0,1.54.46,1.91,1.93,1.89,4.7-.09,9.41-.15,14.11,0,2.05.07,2.51-.52,2.5-2.52C55.38,173.74,55.42,156.17,55.42,138.59ZM203,138.18c0,17.67.05,35.34,0,53,0,2.17.51,2.73,2.66,2.64,4.41-.18,8.84-.19,13.25,0,2.16.09,2.67-.5,2.65-2.65-.11-14-.05-28-.05-42.06q0-28.08,0-56.17c0-6-3.85-9.84-9.91-9.89-1.92,0-3.85.14-5.75,0-2.18-.21-2.86.4-2.85,2.74C203.09,103.23,203,120.71,203,138.18Z"/><path class="cls-1" d="M129.53,36.92q13.26,0,26.5,0c6.27,0,10.08,3.77,10.1,10q0,17.72,0,35.42c0,6.1-3.8,9.93-9.85,9.94q-27.08,0-54.15,0c-5.89,0-9.77-3.85-9.79-9.69q-.06-18,0-36c0-5.86,3.88-9.62,9.83-9.64C111.29,36.9,120.41,36.92,129.53,36.92Zm0,18.46c-5.57,0-11.15.06-16.72,0-1.63,0-2.1.42-2.06,2.06q.17,7.2,0,14.41c0,1.63.43,2.07,2.06,2.06q16.42-.11,32.86,0c1.63,0,2.1-.43,2.06-2.06q-.16-7.2,0-14.41c0-1.64-.43-2.09-2.06-2.06C140.28,55.44,134.9,55.38,129.52,55.38Z"/><path class="cls-1" d="M129.29,129.19q-13.38,0-26.77,0c-6,0-10.23-3.86-10.19-9.3s4.17-9.13,10.06-9.14q26.77,0,53.54,0c6,0,10.24,3.85,10.2,9.3s-4.23,9.14-10.35,9.15Z"/><path class="cls-1" d="M129.2,147.64q13.38,0,26.77,0c6,0,10.22,3.89,10.16,9.33s-4.22,9.1-10.1,9.11q-26.78,0-53.55,0c-6,0-10.21-3.9-10.15-9.35s4.19-9.08,10.1-9.09Q115.81,147.62,129.2,147.64Z"/></g></g></svg>