<?xml version="1.0" encoding="UTF-8"?>
<svg id="Layer_1" xmlns="http://www.w3.org/2000/svg" viewBox="0 0 48 48">
    <rect x="8.67" y="13.5" width="10" height="10" transform="translate(27.34 37) rotate(-180)" fill="#fff"/>
    <path d="M46,6.21l-15.22-2.65-.77,4.44H5.17c-1.1,0-2,.89-2,2V43c0,1.1,.89,2,2,2H38.17c1.1,0,2-.89,2-2v-5.33l.33,.06,5.49-31.53Z" fill="#fff"/>
    <g>
        <path d="M16.67,28.5h-6c-1.65,0-3,1.35-3,3v6c0,1.65,1.35,3,3,3h6c1.65,0,3-1.35,3-3v-6c0-1.65-1.35-3-3-3Zm1,9c0,.55-.45,1-1,1h-6c-.55,0-1-.45-1-1v-6c0-.55,.45-1,1-1h6c.55,0,1,.45,1,1v6Z" fill="#1d59f9"/>
        <rect x="35.05" y="6.99" width="4.41" height="8.83" transform="translate(19.62 46.15) rotate(-80.11)" fill="#1d59f9"/>
        <rect x="33.91" y="13.51" width="4.41" height="8.83" transform="translate(12.25 50.43) rotate(-80.11)" fill="#1d59f9"/>
        <rect x="32.77" y="20.04" width="4.41" height="8.83" transform="translate(4.89 54.71) rotate(-80.11)" fill="#1d59f9"/>
    </g>
    <g>
        <path d="M18.67,12.5H8.67c-.55,0-1,.45-1,1v10c0,.55,.45,1,1,1h10c.55,0,1-.45,1-1V13.5c0-.55-.45-1-1-1Zm-1,10H9.67V14.5h8v8Z"/>
        <rect x="11.67" y="16.5" width="4" height="4"/>
        <rect x="7.67" y="28.5" width="3" height="3"/>
        <rect x="11.67" y="32.5" width="4" height="4"/>
        <rect x="16.67" y="28.5" width="3" height="3"/>
        <rect x="7.67" y="37.5" width="3" height="3"/>
        <rect x="16.67" y="37.5" width="3" height="3"/>
        <path d="M46.99,6.38c.04-.26-.01-.53-.17-.75-.15-.22-.39-.36-.65-.41l-15.22-2.65c-.55-.09-1.06,.27-1.16,.81l-.63,3.62H5.17c-1.65,0-3,1.34-3,3V43c0,1.65,1.34,3,3,3H38.17c1.65,0,3-1.34,3-3v-4.54c.16-.15,.28-.33,.32-.55l5.49-31.53Zm-15.39-1.67l13.25,2.31-4.2,24.12-13.15-2.29-.34,1.97,13.15,2.29-.6,3.47-13.25-2.31L31.59,4.71Zm6.58,39.29H5.17c-.55,0-1-.45-1-1V10c0-.55,.45-1,1-1H28.82l-4.52,25.91c-.04,.26,.01,.53,.17,.75,.15,.22,.39,.36,.65,.41l14.06,2.45v4.48c0,.55-.45,1-1,1Z"/>
    </g>
</svg>