<svg xmlns="http://www.w3.org/2000/svg" viewBox="0 0 248.58 247.32"><defs><style>.cls-1{fill:#25c48a;}</style></defs><g id="Layer_2" data-name="Layer 2"><g id="Layer_1-2" data-name="Layer 1"><path class="cls-1" d="M219.86,161.11c.9-.54,1.9-.27,2.84-.26,8.63.09,17.26-.26,25.88.18v28.64l-26.85,0c-1.08,0-2,.18-2-1.51.11-9,.11-18,.14-27.08Z"/><path d="M185.47,106.48H142.53c-7.25,0-10.36-3.09-10.36-10.3V10.29C132.17,3.1,135.29,0,142.55,0h85.89c7.1,0,10.21,3.1,10.21,10.19q0,43.07,0,86.13c0,7.06-3.12,10.16-10.23,10.16Zm36.47-53c0-11.56,0-23.12,0-34.68,0-1.69-.39-2.13-2.11-2.13q-34.44.09-68.89,0c-1.67,0-2.14.39-2.14,2.11q.1,34.46,0,68.89c0,1.7.42,2.13,2.12,2.12q34.44-.08,68.89,0c1.69,0,2.14-.41,2.12-2.12C221.9,76.29,221.94,64.89,221.94,53.49Z"/><path d="M53.28,238.47H10.33c-7.1,0-10.18-3.08-10.18-10.19q0-43.07,0-86.13c0-6.92,3.18-10.13,10-10.13H96.57c6.89,0,10.05,3.18,10.05,10.11q0,43.19,0,86.38c0,6.8-3.13,9.95-9.91,10Q75,238.49,53.28,238.47ZM16.87,185.05c0,11.48,0,23,0,34.44,0,1.63.12,2.36,2.14,2.35q34.44-.14,68.89,0c1.74,0,2.09-.49,2.08-2.15q-.09-34.44,0-68.88c0-1.73-.47-2.11-2.14-2.1q-34.44.08-68.89,0c-1.75,0-2.1.51-2.09,2.16C16.9,162.24,16.87,173.64,16.87,185.05Z"/><path d="M106.37,53.28q0,21.71,0,43.43c0,6.63-3.14,9.77-9.83,9.77H9.92c-6.76,0-9.92-3.19-9.92-10V9.91C0,3.19,3.19,0,10,0H96.36c7,0,10,3.07,10,10.08ZM53.21,16.72c-11.49,0-23,0-34.46,0-1.63,0-2.19.34-2.19,2.1q.09,34.46,0,68.92c0,1.76.57,2.09,2.19,2.09q34.47-.08,68.92,0c1.66,0,2.16-.37,2.16-2.1q-.1-34.45,0-68.92c0-1.74-.51-2.11-2.16-2.1C76.18,16.76,64.69,16.72,53.21,16.72Z"/><path class="cls-1" d="M219.91,161.06c-5.4-.45-10.81-.11-16.21-.19-3.64-.05-7.27-.08-10.91,0-1.52,0-1.89-.44-1.88-1.92q.1-12.6,0-25.2c0-1.3.27-1.85,1.73-1.84q12.72.1,25.44,0c1.67,0,1.78.71,1.77,2,0,9,0,18.1,0,27.15Z"/><path class="cls-1" d="M205.12,247.28c-4,0-8.08-.06-12.11,0-1.52,0-2.12-.28-2.1-2q.14-12.48,0-25c0-1.57.4-2,2-2,8.32.09,16.64.07,25,0,1.4,0,2,.24,2,1.83q-.12,12.6,0,25.2c0,1.47-.38,2-1.89,1.93C213.69,247.22,209.4,247.28,205.12,247.28Z"/><path class="cls-1" d="M162,161.24c-.65-.74-1.52-.36-2.27-.36-8,0-16-.07-24,0-1.71,0-2.39-.27-2.36-2.21.12-8.25.1-16.5,0-24.76,0-1.65.51-2,2-2,8.34.07,16.67,0,25,0,1.05,0,1.82-.06,1.81,1.44-.07,9.07,0,18.13-.06,27.19a3.14,3.14,0,0,1-.18.7Z"/><path class="cls-1" d="M162,161.29c.55-.71,1.34-.44,2-.44,8.33,0,16.65,0,25,0,1.57,0,2,.39,2,2-.08,8.24-.11,16.49,0,24.73,0,2-.66,2.17-2.34,2.16-8.8-.05-17.61,0-26.41,0l.08.07q-.08-13-.15-25.93c0-.88-.1-1.76-.16-2.63Z"/><path class="cls-1" d="M162.22,189.73c0,8.8-.11,17.61,0,26.41,0,2-.59,2.33-2.4,2.31q-12.24-.13-24.47,0c-1.57,0-2-.39-2-2,.08-8.32,0-16.64,0-25,0-.91-.32-1.9,1.32-1.88,9.2.11,18.4.13,27.6.18Z"/><path class="cls-1" d="M185.34,67.68c-4.2,0-8.4,0-12.6,0-1.36,0-1.8-.36-1.79-1.76q.09-12.72,0-25.44c0-1.41.45-1.76,1.8-1.75q12.72.08,25.43,0c1.25,0,1.69.35,1.68,1.64q-.06,12.84,0,25.68c0,1.29-.45,1.64-1.69,1.63C193.9,67.65,189.62,67.68,185.34,67.68Z"/><path class="cls-1" d="M67.83,185.37c0,4.12,0,8.24,0,12.36,0,1.37-.21,2-1.81,2-8.49-.08-17-.06-25.45,0-1.23,0-1.69-.32-1.68-1.63q.08-12.84,0-25.69c0-1.32.46-1.61,1.69-1.61,8.48.05,17,.07,25.44,0,1.63,0,1.83.63,1.81,2C67.78,177,67.83,181.17,67.83,185.37Z"/><path class="cls-1" d="M67.58,53.4c0,4.12,0,8.25,0,12.37,0,1.43-.28,2-1.85,2q-12.62-.12-25.23,0c-1.42,0-1.75-.44-1.74-1.78q.08-12.62,0-25.24c0-1.41.24-2,1.83-1.94q12.62.12,25.23,0c1.4,0,1.78.42,1.76,1.78C67.53,44.83,67.58,49.11,67.58,53.4Z"/></g></g></svg>