<svg xmlns="http://www.w3.org/2000/svg" width="400" height="190" fill="none"><rect width="400" height="128" y="31" fill="#fff" rx="8"/><rect width="100" height="116" x="184" y="1" fill="#fff" stroke="#E4E4E4" stroke-width="2" rx="8"/><rect width="100" height="116" x="160" y="24" fill="#fff" stroke="#E4E4E4" stroke-width="2" rx="8"/><rect width="100" height="116" x="136" y="47" fill="#fff" stroke="#E4E4E4" stroke-width="2" rx="8"/><g filter="url(#a)"><rect width="100" height="116" x="112" y="71" fill="#fff" rx="8"/><rect width="100" height="116" x="112" y="71" stroke="#1D59F9" stroke-width="2" rx="8"/></g><path stroke="#220E27" stroke-width="2" d="M180.667 147h-37.334c-2.945 0-5.333-2.328-5.333-5.2v-41.6c0-2.872 2.388-5.2 5.333-5.2h37.334c2.945 0 5.333 2.328 5.333 5.2v41.6c0 2.872-2.388 5.2-5.333 5.2Z" clip-rule="evenodd"/><path fill="#1D59F9" fill-rule="evenodd" d="M159.334 108c0 2.872-2.388 5.2-5.334 5.2-2.945 0-5.333-2.328-5.333-5.2 0-2.872 2.388-5.2 5.333-5.2 2.946 0 5.334 2.328 5.334 5.2Z" clip-rule="evenodd"/><path stroke="#220E27" d="M138.666 139.2h46.667"/><path stroke="#220E27" stroke-linecap="round" stroke-linejoin="round" d="m142.667 130.75 10.667-10.4 9.333 10.4M158.667 125.55l9.6-9.36 13.067 14.56"/><path fill="#220E27" d="M135.306 170h-1.35v-7.23h1.35V170Zm6.259-3c.057.107.108.218.155.335.05.113.098.228.145.345.047-.12.095-.238.145-.355.05-.117.103-.228.16-.335l2.14-4.005a.622.622 0 0 1 .08-.12.283.283 0 0 1 .095-.065.457.457 0 0 1 .12-.025c.043-.003.095-.005.155-.005h1.015V170h-1.185v-4.67c0-.087.002-.182.005-.285.007-.103.015-.208.025-.315l-2.185 4.1a.597.597 0 0 1-.195.22.516.516 0 0 1-.28.075h-.185a.516.516 0 0 1-.28-.075.597.597 0 0 1-.195-.22l-2.215-4.115c.013.11.022.218.025.325.007.103.01.2.01.29V170h-1.185v-7.23h1.015c.06 0 .112.002.155.005a.39.39 0 0 1 .115.025c.037.013.07.035.1.065s.058.07.085.12l2.16 4.015Zm13.022 3h-1.04a.473.473 0 0 1-.29-.085.52.52 0 0 1-.16-.22l-.54-1.475h-2.995l-.54 1.475a.467.467 0 0 1-.16.21.436.436 0 0 1-.285.095h-1.045l2.84-7.23h1.375l2.84 7.23Zm-4.68-2.73h2.305l-.88-2.405a18.92 18.92 0 0 1-.135-.375 12.558 12.558 0 0 1-.14-.475 12.558 12.558 0 0 1-.27.86l-.88 2.395Zm9.491 1.74c.303 0 .566-.027.79-.08.226-.057.441-.133.645-.23v-1.315h-.905a.287.287 0 0 1-.205-.07.245.245 0 0 1-.075-.18v-.76h2.405v2.925a3.66 3.66 0 0 1-1.21.59c-.224.063-.464.11-.72.14a6.53 6.53 0 0 1-.83.05 3.775 3.775 0 0 1-1.455-.275 3.437 3.437 0 0 1-1.15-.765 3.506 3.506 0 0 1-.76-1.17 3.986 3.986 0 0 1-.27-1.485c0-.543.088-1.042.265-1.495.176-.453.426-.843.75-1.17.326-.327.721-.58 1.185-.76.463-.18.983-.27 1.56-.27.59 0 1.1.088 1.53.265.433.173.8.4 1.1.68l-.39.61c-.077.123-.179.185-.305.185a.456.456 0 0 1-.245-.08 16.143 16.143 0 0 0-.33-.19 2.173 2.173 0 0 0-.37-.165 2.9 2.9 0 0 0-.455-.115 3.31 3.31 0 0 0-.58-.045c-.357 0-.68.06-.97.18a2.05 2.05 0 0 0-.735.515c-.204.223-.36.492-.47.805-.11.313-.165.663-.165 1.05 0 .417.058.788.175 1.115.116.323.28.597.49.82.21.223.46.395.75.515.29.117.606.175.95.175Zm9.466-6.24v1.07h-3.205v2.005h2.525v1.035h-2.525v2.045h3.205V170h-4.56v-7.23h4.56Zm2.868 0c.06 0 .11.003.15.01.04.003.075.013.105.03a.283.283 0 0 1 .095.065c.03.027.063.063.1.11l3.795 4.835a7.242 7.242 0 0 1-.03-.34 12.032 12.032 0 0 1-.005-.315v-4.395h1.185V170h-.695a.62.62 0 0 1-.265-.05.586.586 0 0 1-.205-.18l-3.78-4.815c.01.107.017.213.02.32.007.103.01.198.01.285V170h-1.185v-7.23h.705Zm12.413 0v1.07h-3.205v2.005h2.525v1.035h-2.525v2.045h3.205V170h-4.56v-7.23h4.56Zm6.038 1.315a.367.367 0 0 1-.13.155.308.308 0 0 1-.17.045.446.446 0 0 1-.225-.075 5.823 5.823 0 0 0-.295-.175 2.279 2.279 0 0 0-.4-.17 1.607 1.607 0 0 0-.535-.08c-.187 0-.35.023-.49.07a1.025 1.025 0 0 0-.35.185.765.765 0 0 0-.21.29.92.92 0 0 0-.07.365c0 .17.047.312.14.425.097.113.223.21.38.29.157.08.335.152.535.215s.403.132.61.205c.21.07.415.153.615.25.2.093.378.213.535.36.157.143.282.32.375.53.097.21.145.465.145.765 0 .327-.057.633-.17.92-.11.283-.273.532-.49.745-.213.21-.475.377-.785.5-.31.12-.665.18-1.065.18a3.29 3.29 0 0 1-.68-.07 3.445 3.445 0 0 1-1.22-.49 2.897 2.897 0 0 1-.475-.39l.39-.645a.474.474 0 0 1 .13-.115.327.327 0 0 1 .175-.05c.083 0 .173.035.27.105.097.067.21.142.34.225.133.083.288.16.465.23.18.067.395.1.645.1.383 0 .68-.09.89-.27.21-.183.315-.445.315-.785a.716.716 0 0 0-.145-.465 1.091 1.091 0 0 0-.375-.3 2.762 2.762 0 0 0-.535-.21c-.2-.057-.403-.118-.61-.185a5.358 5.358 0 0 1-.61-.24 1.974 1.974 0 0 1-.535-.365 1.7 1.7 0 0 1-.38-.56 2.205 2.205 0 0 1-.14-.835c0-.263.052-.52.155-.77.107-.25.26-.472.46-.665.203-.193.452-.348.745-.465a2.694 2.694 0 0 1 1.005-.175c.427 0 .82.067 1.18.2s.667.32.92.56l-.33.635Z"/><defs><filter id="a" width="116" height="132" x="109" y="58" color-interpolation-filters="sRGB" filterUnits="userSpaceOnUse"><feFlood flood-opacity="0" result="BackgroundImageFix"/><feColorMatrix in="SourceAlpha" result="hardAlpha" values="0 0 0 0 0 0 0 0 0 0 0 0 0 0 0 0 0 0 127 0"/><feMorphology in="SourceAlpha" operator="dilate" radius="1" result="effect1_dropShadow_4757_6835"/><feOffset dx="5" dy="-5"/><feGaussianBlur stdDeviation="3"/><feComposite in2="hardAlpha" operator="out"/><feColorMatrix values="0 0 0 0 0.113725 0 0 0 0 0.34902 0 0 0 0 0.976471 0 0 0 0.1 0"/><feBlend in2="BackgroundImageFix" result="effect1_dropShadow_4757_6835"/><feBlend in="SourceGraphic" in2="effect1_dropShadow_4757_6835" result="shape"/></filter></defs></svg>