<svg xmlns="http://www.w3.org/2000/svg" width="400" height="188" fill="none"><rect width="400" height="128" y="31" fill="#fff" rx="8"/><rect width="106" height="106" x="147" y="41" fill="#fff" stroke="#E4E4E4" stroke-dasharray="4 4" stroke-width="2" rx="8"/><path fill="#000" fill-rule="evenodd" d="M164.666 82.08V58.667h23.413V82.08h-23.413Zm5.508-5.509h12.396V64.176h-12.396V76.57Z" clip-rule="evenodd"/><path fill="#000" d="M174.032 68.032h5.534v5.534h-5.534z"/><path fill="#000" fill-rule="evenodd" d="M211.919 82.08V58.667h23.413V82.08h-23.413Zm5.509-5.509h12.395V64.176h-12.395V76.57Z" clip-rule="evenodd"/><path fill="#000" d="M220.433 68.032h5.534v5.534h-5.534z"/><path fill="#000" fill-rule="evenodd" d="M164.666 129.333v-23.414h23.413v23.414h-23.413Zm5.508-5.509h12.396v-12.396h-12.396v12.396Z" clip-rule="evenodd"/><path fill="#000" d="M174.032 114.433h5.534v5.534h-5.534zM170.2 85.486h5.534v5.534H170.2zM180.908 96.98v-5.535h-5.173v5.535h5.044v5.534h5.173V96.98h-5.044ZM203.83 68.883h5.534v5.534h-5.534zM192.762 64.201h5.534v10.217h-5.534zM198.297 58.667h5.534v5.534h-5.534zM198.296 75.269v5.534h-5.534v5.534h11.068V75.27h-5.534ZM203.83 107.978v-5.464h-5.534V91.445h-5.534v11.209h5.534v5.464h5.534v5.464h11.068v-5.604H203.83ZM203.83 85.486h5.534v11.068h-5.534z"/><path fill="#000" fill-rule="evenodd" d="M229.956 86.763v5.162h5.377v10.589h-15.056v-5.162h-5.378v-5.295h5.243v-5.294h9.814Zm-9.679 10.456h9.679v-5.162h-9.679v5.162Z" clip-rule="evenodd"/><path fill="#000" d="M229.798 108.048h5.534v11.068h-5.534zM209.365 96.98h5.534v5.534h-5.534zM214.899 113.582h5.534v5.534h-5.534zM220.433 107.196h5.534v5.534h-5.534zM219.582 119.116v10.217h5.676v-4.91h4.541v-5.307h-10.217ZM192.762 108.048h5.534v10.217h-5.534zM208.886 123.799v-5.534h-10.589v11.068h5.294v-5.534h5.162v5.534h5.295v-5.534h-5.162ZM181.269 85.486h11.068v5.534h-11.068zM164.666 91.445h5.534v11.068h-5.534z"/><rect width="55" height="4" x="307" y="91" fill="#E4E4E4" rx="2"/><rect width="55" height="4" x="307" y="102" fill="#E4E4E4" rx="2"/><rect width="55" height="4" x="307" y="113" fill="#E4E4E4" rx="2"/><rect width="37" height="4" x="307" y="124" fill="#E4E4E4" rx="2"/><rect width="56" height="4" x="62" y="59" fill="#E4E4E4" rx="2"/><rect width="26" height="4" x="62" y="69" fill="#E4E4E4" rx="2"/><rect width="12" height="12" x="62" y="89" fill="#E4E4E4" rx="4"/><rect width="12" height="12" x="80" y="89" fill="#E4E4E4" rx="4"/><rect width="12" height="12" x="98" y="89" fill="#E4E4E4" rx="4"/><g filter="url(#a)"><rect width="110" height="57" x="50" y="128" fill="#fff" rx="8"/><rect width="110" height="57" x="50" y="128" stroke="#E4E4E4" stroke-width="2" rx="8"/></g><rect width="37" height="19" x="62" y="142" fill="#31D3B3" rx="4"/><rect width="37" height="4" x="62" y="167" fill="#E4E4E4" rx="2"/><rect width="37" height="19" x="111" y="142" fill="#FDBCCB" rx="4"/><rect width="37" height="4" x="111" y="167" fill="#E4E4E4" rx="2"/><g filter="url(#b)"><rect width="55" height="57" x="240" y="3" fill="#fff" rx="8"/><rect width="55" height="57" x="240" y="3" stroke="#1D59F9" stroke-width="2" rx="8"/></g><path fill="#220E27" d="M270.226 39.629h-2.391c-.269 0-.491-.065-.668-.195a1.2 1.2 0 0 1-.367-.506l-1.243-3.393h-6.888l-1.242 3.393a1.074 1.074 0 0 1-.368.483.994.994 0 0 1-.655.218H254L260.532 23h3.162l6.532 16.629Zm-10.763-6.279h5.301l-2.024-5.532a39.872 39.872 0 0 1-.311-.862 28.52 28.52 0 0 1-.321-1.093 30.37 30.37 0 0 1-.322 1.093c-.1.337-.2.633-.299.886l-2.024 5.508ZM281.024 39.629h-1.276c-.269 0-.48-.038-.633-.115-.153-.084-.268-.25-.345-.495l-.253-.839c-.299.268-.594.506-.885.713a5.38 5.38 0 0 1-.886.506 4.548 4.548 0 0 1-.977.31 5.886 5.886 0 0 1-1.15.104c-.499 0-.959-.065-1.38-.196a3.105 3.105 0 0 1-1.093-.609 2.765 2.765 0 0 1-.701-1c-.169-.4-.253-.863-.253-1.392 0-.445.115-.882.345-1.311.237-.437.628-.828 1.173-1.173.544-.353 1.268-.644 2.173-.874.905-.23 2.028-.36 3.37-.391v-.69c0-.79-.169-1.372-.506-1.748-.33-.383-.813-.575-1.449-.575-.46 0-.844.054-1.15.161-.307.107-.575.23-.805.368-.223.13-.43.25-.621.357a1.276 1.276 0 0 1-.633.16.82.82 0 0 1-.494-.149c-.138-.1-.25-.222-.334-.368l-.517-.909c1.357-1.241 2.993-1.863 4.91-1.863.69 0 1.303.116 1.84.345a3.82 3.82 0 0 1 1.38.944c.376.398.659.877.851 1.437.199.56.299 1.173.299 1.84v7.452Zm-5.52-1.771c.291 0 .56-.027.805-.08.245-.054.475-.135.69-.242a3.65 3.65 0 0 0 .633-.391c.207-.161.414-.349.621-.564v-1.989c-.828.038-1.522.111-2.082.218-.552.1-.997.23-1.334.392-.337.16-.579.348-.724.563a1.272 1.272 0 0 0-.207.702c0 .498.145.854.437 1.069.299.215.686.322 1.161.322Z"/><g filter="url(#c)"><rect width="55" height="57" x="307" y="3" fill="#fff" rx="8"/><rect width="55" height="57" x="307" y="3" stroke="#E4E4E4" stroke-width="2" rx="8"/></g><path fill="#220E27" d="M337.893 38.065c-1.012-.069-1.334-.322-2.07-2.001L330.096 23h-.46l-4.784 11.293c-.437 1.012-1.15 2.691-1.679 3.266-.414.437-.805.483-1.173.506v.437h4.554v-.437c-.483 0-1.564 0-1.564-.966 0-.253.069-.575.184-.874l1.058-2.691h6.026l.943 2.208c.138.322.437 1.081.437 1.449 0 .851-.759.874-1.61.874v.437h5.865v-.437Zm-11.27-5.474 2.645-6.325 2.668 6.325h-5.313ZM344.855 35.673c0 .69-.069.966-.782 1.311-.207.115-.92.414-1.426.414-.851 0-1.518-.713-1.518-1.794v-.046c0-.782.253-2.07 3.726-3.22v3.335Zm3.565 1.311c-.253.207-.552.437-1.035.437-.667 0-.667-.667-.667-1.334v-4.485c0-1.38 0-3.68-3.427-3.68-2.668 0-3.749 1.633-3.749 2.553 0 .368.276 1.012.989 1.012.598 0 1.035-.506 1.035-.989 0-.207-.115-.552-.115-.897 0-.713.874-1.127 1.633-1.127.69 0 1.771.253 1.771 1.909v1.403c-3.749 1.472-5.75 2.254-5.75 4.554 0 1.541 1.196 2.392 2.438 2.392 1.265 0 2.484-.92 3.335-1.679.115 1.656 1.081 1.679 1.495 1.679.368 0 1.081-.023 2.047-1.15v-.598Z"/><defs><filter id="a" width="126" height="73" x="47" y="115" color-interpolation-filters="sRGB" filterUnits="userSpaceOnUse"><feFlood flood-opacity="0" result="BackgroundImageFix"/><feColorMatrix in="SourceAlpha" result="hardAlpha" values="0 0 0 0 0 0 0 0 0 0 0 0 0 0 0 0 0 0 127 0"/><feMorphology in="SourceAlpha" operator="dilate" radius="1" result="effect1_dropShadow_4317_12518"/><feOffset dx="5" dy="-5"/><feGaussianBlur stdDeviation="3"/><feComposite in2="hardAlpha" operator="out"/><feColorMatrix values="0 0 0 0 0 0 0 0 0 0 0 0 0 0 0 0 0 0 0.08 0"/><feBlend in2="BackgroundImageFix" result="effect1_dropShadow_4317_12518"/><feBlend in="SourceGraphic" in2="effect1_dropShadow_4317_12518" result="shape"/></filter><filter id="b" width="71" height="73" x="227" y="0" color-interpolation-filters="sRGB" filterUnits="userSpaceOnUse"><feFlood flood-opacity="0" result="BackgroundImageFix"/><feColorMatrix in="SourceAlpha" result="hardAlpha" values="0 0 0 0 0 0 0 0 0 0 0 0 0 0 0 0 0 0 127 0"/><feMorphology in="SourceAlpha" operator="dilate" radius="1" result="effect1_dropShadow_4317_12518"/><feOffset dx="-5" dy="5"/><feGaussianBlur stdDeviation="3"/><feComposite in2="hardAlpha" operator="out"/><feColorMatrix values="0 0 0 0 0.113725 0 0 0 0 0.34902 0 0 0 0 0.976471 0 0 0 0.1 0"/><feBlend in2="BackgroundImageFix" result="effect1_dropShadow_4317_12518"/><feBlend in="SourceGraphic" in2="effect1_dropShadow_4317_12518" result="shape"/></filter><filter id="c" width="71" height="73" x="294" y="0" color-interpolation-filters="sRGB" filterUnits="userSpaceOnUse"><feFlood flood-opacity="0" result="BackgroundImageFix"/><feColorMatrix in="SourceAlpha" result="hardAlpha" values="0 0 0 0 0 0 0 0 0 0 0 0 0 0 0 0 0 0 127 0"/><feMorphology in="SourceAlpha" operator="dilate" radius="1" result="effect1_dropShadow_4317_12518"/><feOffset dx="-5" dy="5"/><feGaussianBlur stdDeviation="3"/><feComposite in2="hardAlpha" operator="out"/><feColorMatrix values="0 0 0 0 0 0 0 0 0 0 0 0 0 0 0 0 0 0 0.08 0"/><feBlend in2="BackgroundImageFix" result="effect1_dropShadow_4317_12518"/><feBlend in="SourceGraphic" in2="effect1_dropShadow_4317_12518" result="shape"/></filter></defs></svg>